<?xml version="1.0" encoding="UTF-8"?>
<svg id="Layer_2" data-name="Layer 2" xmlns="http://www.w3.org/2000/svg" viewBox="0 0 681.25 681.25">
  <defs>
    <style>
      .cls-1 {
        fill: #fff;
      }

      .cls-2 {
        fill: #e6e7e8;
        stroke: #4d51a3;
        stroke-miterlimit: 10;
      }

      .cls-3 {
        fill: #4d51a3;
      }

      .cls-4 {
        fill: #dc186a;
      }
    </style>
  </defs>
  <g id="Layer_2-2" data-name="Layer 2">
    <g>
      <circle class="cls-2" cx="340.62" cy="340.62" r="340.12"/>
      <path class="cls-4" d="M339.12,341.74l.66-341.04s198.52-7.5,299.83,177.66l-300.49,163.39Z"/>
      <rect class="cls-3" x="332.7" y="19.49" width="15.85" height="54.77" rx="7.92" ry="7.92"/>
      <rect class="cls-3" x="332.7" y="607.86" width="15.85" height="54.77" rx="7.92" ry="7.92"/>
      <rect class="cls-3" x="606.86" y="313.24" width="15.85" height="54.77" rx="7.92" ry="7.92" transform="translate(955.4 -274.16) rotate(90)"/>
      <rect class="cls-3" x="56.04" y="313.24" width="15.85" height="54.77" rx="7.92" ry="7.92" transform="translate(404.58 276.66) rotate(90)"/>
      <circle class="cls-3" cx="580.64" cy="206.65" r="12.09"/>
      <circle class="cls-3" cx="578.29" cy="474.59" r="12.09"/>
      <circle class="cls-3" cx="468.15" cy="92.98" r="12.09"/>
      <circle class="cls-3" cx="486.71" cy="589.77" r="12.09"/>
      <circle class="cls-3" cx="337.54" cy="344.58" r="12.09"/>
      <circle class="cls-3" cx="84.45" cy="206.65" r="12.09"/>
      <circle class="cls-3" cx="84.45" cy="469.33" r="12.09"/>
      <circle class="cls-3" cx="192.82" cy="91.51" r="12.09"/>
      <circle class="cls-3" cx="192.82" cy="589.77" r="12.09"/>
      <g>
        <path class="cls-1" d="M366.87,151.82v-19.24c2.37.18,4.81-.35,7.32-1.58,2.5-1.23,4.96-2.87,7.38-4.94,2.41-2.06,4.55-4.1,6.39-6.12l13.45,13.05c-3.26,3.69-6.73,7.05-10.41,10.08-3.69,3.03-7.51,5.36-11.47,6.98-3.95,1.63-8.17,2.22-12.65,1.78ZM385.85,212.45v-80.93l2.11-11.33h18.06v92.26h-20.16Z"/>
        <path class="cls-1" d="M460.44,214.03c-7.56,0-14.28-2.04-20.16-6.13s-10.48-9.71-13.77-16.87c-3.3-7.16-4.94-15.4-4.94-24.71s1.65-17.55,4.94-24.71c3.29-7.16,7.86-12.78,13.71-16.87,5.84-4.09,12.54-6.13,20.1-6.13s14.4,2.04,20.29,6.13,10.52,9.71,13.91,16.87c3.38,7.16,5.07,15.4,5.07,24.71s-1.67,17.55-5.01,24.71c-3.34,7.16-7.95,12.79-13.84,16.87-5.89,4.09-12.65,6.13-20.3,6.13ZM460.57,194.79c3.51,0,6.66-1.23,9.42-3.69,2.77-2.46,4.94-5.82,6.52-10.08,1.58-4.26,2.38-9.16,2.38-14.7s-.79-10.59-2.38-14.89c-1.58-4.3-3.78-7.69-6.59-10.15-2.82-2.46-6.02-3.69-9.62-3.69s-6.64,1.23-9.36,3.69c-2.72,2.46-4.86,5.85-6.39,10.15-1.54,4.31-2.31,9.27-2.31,14.89s.77,10.46,2.31,14.76c1.53,4.31,3.69,7.67,6.46,10.08,2.77,2.42,5.95,3.63,9.56,3.63Z"/>
      </g>
      <g>
        <path class="cls-1" d="M388.33,245.15c-2.16,0-4.06-.46-5.7-1.37-1.64-.92-2.93-2.18-3.87-3.79-.94-1.61-1.41-3.47-1.41-5.57s.46-3.96,1.37-5.57c.91-1.61,2.2-2.87,3.85-3.79,1.65-.91,3.53-1.37,5.63-1.37s4.06.46,5.72,1.37c1.65.92,2.94,2.18,3.85,3.79.91,1.61,1.37,3.47,1.37,5.57s-.46,3.96-1.37,5.57c-.92,1.61-2.19,2.88-3.83,3.79-1.64.91-3.51,1.37-5.61,1.37ZM388.33,239.25c.82,0,1.55-.21,2.19-.62.64-.41,1.15-.98,1.52-1.7.37-.72.55-1.56.55-2.52s-.19-1.8-.55-2.52-.88-1.29-1.54-1.7c-.66-.41-1.41-.62-2.25-.62s-1.6.21-2.25.62c-.66.41-1.17.98-1.54,1.7-.37.72-.55,1.56-.55,2.52s.18,1.8.55,2.52c.37.73.89,1.29,1.56,1.7.67.41,1.44.62,2.32.62Z"/>
        <path class="cls-1" d="M402.26,244.65v-20.49h6.39v20.49h-6.39ZM406.98,234.04c0-2.21.44-4.06,1.33-5.53.89-1.48,2.01-2.58,3.36-3.32,1.35-.74,2.76-1.11,4.24-1.11v6.23c-1.26,0-2.44.14-3.54.41-1.11.27-2,.69-2.68,1.25-.68.56-1.03,1.28-1.03,2.15l-1.68-.08Z"/>
        <path class="cls-1" d="M428.16,244.65v-28.68h6.39v28.68h-6.39Z"/>
        <path class="cls-1" d="M448.57,245.15c-2.13,0-4.02-.46-5.66-1.37-1.64-.92-2.92-2.18-3.85-3.79-.93-1.61-1.39-3.47-1.39-5.57s.47-4,1.41-5.61c.94-1.61,2.23-2.87,3.87-3.77s3.54-1.35,5.7-1.35c1.94,0,3.69.47,5.24,1.39,1.56.93,2.79,2.31,3.71,4.14.91,1.83,1.37,4.11,1.37,6.84h-15.41l.7-.78c0,.93.19,1.75.57,2.46s.92,1.25,1.6,1.62c.68.37,1.45.55,2.29.55,1.01,0,1.86-.23,2.56-.68.7-.45,1.18-1.02,1.45-1.7l5.66,1.93c-.55,1.28-1.32,2.35-2.32,3.2s-2.14,1.48-3.42,1.88c-1.28.41-2.65.62-4.1.62ZM444.43,232.61l-.66-.82h9.18l-.57.82c0-1.01-.21-1.82-.61-2.42-.41-.6-.92-1.03-1.52-1.29-.6-.26-1.2-.39-1.8-.39s-1.21.13-1.82.39c-.61.26-1.13.69-1.56,1.29-.42.6-.64,1.41-.64,2.42Z"/>
        <path class="cls-1" d="M469.38,245.15c-1.34,0-2.59-.2-3.75-.59-1.16-.4-2.17-.96-3.01-1.68-.85-.72-1.48-1.6-1.89-2.64l5.25-2.21c.36.71.85,1.24,1.48,1.58.63.34,1.27.51,1.93.51s1.21-.12,1.6-.35c.38-.23.57-.55.57-.96,0-.44-.2-.78-.59-1.03-.4-.25-.96-.46-1.7-.66l-1.76-.45c-1.91-.49-3.38-1.31-4.4-2.44-1.02-1.13-1.54-2.45-1.54-3.95,0-2.1.72-3.73,2.17-4.88s3.46-1.72,6.02-1.72c1.45,0,2.72.19,3.83.57,1.11.38,2.03.92,2.79,1.62.75.7,1.29,1.51,1.62,2.44l-5.08,2.09c-.19-.55-.58-.96-1.17-1.25-.59-.29-1.24-.43-1.95-.43-.6,0-1.07.13-1.39.39-.33.26-.49.61-.49,1.05,0,.33.2.61.59.84.4.23.98.44,1.74.64l2.17.53c1.28.33,2.36.83,3.24,1.5.87.67,1.53,1.45,1.97,2.34.44.89.66,1.84.66,2.85,0,1.29-.38,2.4-1.13,3.34-.75.94-1.8,1.67-3.13,2.19-1.34.52-2.88.78-4.63.78Z"/>
        <path class="cls-1" d="M488.93,245.15c-1.34,0-2.59-.2-3.75-.59-1.16-.4-2.17-.96-3.01-1.68-.85-.72-1.48-1.6-1.89-2.64l5.25-2.21c.36.71.85,1.24,1.48,1.58.63.34,1.27.51,1.93.51s1.21-.12,1.6-.35c.38-.23.57-.55.57-.96,0-.44-.2-.78-.59-1.03-.4-.25-.96-.46-1.7-.66l-1.76-.45c-1.91-.49-3.38-1.31-4.4-2.44-1.02-1.13-1.54-2.45-1.54-3.95,0-2.1.72-3.73,2.17-4.88s3.46-1.72,6.02-1.72c1.45,0,2.72.19,3.83.57,1.11.38,2.03.92,2.79,1.62.75.7,1.29,1.51,1.62,2.44l-5.08,2.09c-.19-.55-.58-.96-1.17-1.25-.59-.29-1.24-.43-1.95-.43-.6,0-1.07.13-1.39.39-.33.26-.49.61-.49,1.05,0,.33.2.61.59.84.4.23.98.44,1.74.64l2.17.53c1.28.33,2.36.83,3.24,1.5.87.67,1.53,1.45,1.97,2.34.44.89.66,1.84.66,2.85,0,1.29-.38,2.4-1.13,3.34-.75.94-1.8,1.67-3.13,2.19-1.34.52-2.88.78-4.63.78Z"/>
      </g>
    </g>
  </g>
</svg>