<?xml version="1.0" encoding="UTF-8"?>
<svg id="Layer_2" data-name="Layer 2" xmlns="http://www.w3.org/2000/svg" viewBox="0 0 681.25 681.25">
  <defs>
    <style>
      .cls-1 {
        fill: #fff;
      }

      .cls-2 {
        fill: #e6e7e8;
        stroke: #4d51a3;
        stroke-miterlimit: 10;
      }

      .cls-3 {
        fill: #4d51a3;
      }

      .cls-4 {
        fill: #dc186a;
      }
    </style>
  </defs>
  <g id="Layer_2-2" data-name="Layer 2">
    <g>
      <circle class="cls-2" cx="340.62" cy="340.62" r="340.12"/>
      <path class="cls-4" d="M337.54,344.58L340.62.5s126.94-12.23,243.93,103.1,115.85,296.98,54.14,400.96l-301.15-159.98Z"/>
      <rect class="cls-3" x="332.7" y="19.49" width="15.85" height="54.77" rx="7.92" ry="7.92"/>
      <rect class="cls-3" x="332.7" y="607.86" width="15.85" height="54.77" rx="7.92" ry="7.92"/>
      <rect class="cls-3" x="606.86" y="313.24" width="15.85" height="54.77" rx="7.92" ry="7.92" transform="translate(955.4 -274.16) rotate(90)"/>
      <rect class="cls-3" x="56.04" y="313.24" width="15.85" height="54.77" rx="7.92" ry="7.92" transform="translate(404.58 276.66) rotate(90)"/>
      <circle class="cls-3" cx="580.64" cy="206.65" r="12.09"/>
      <circle class="cls-3" cx="578.29" cy="474.59" r="12.09"/>
      <circle class="cls-3" cx="468.15" cy="92.98" r="12.09"/>
      <circle class="cls-3" cx="486.71" cy="589.77" r="12.09"/>
      <circle class="cls-3" cx="337.54" cy="344.58" r="12.09"/>
      <circle class="cls-3" cx="84.45" cy="206.65" r="12.09"/>
      <circle class="cls-3" cx="84.45" cy="469.33" r="12.09"/>
      <circle class="cls-3" cx="192.82" cy="91.51" r="12.09"/>
      <circle class="cls-3" cx="192.82" cy="589.77" r="12.09"/>
      <g>
        <path class="cls-1" d="M394.9,269.92v-14.17c0-2.2.81-4.74,2.44-7.63,1.63-2.89,3.89-5.84,6.78-8.85,2.89-3.01,6.17-5.78,9.83-8.3l10.74-7.32c1.63-1.06,3.25-2.3,4.88-3.73,1.63-1.42,2.97-2.97,4.03-4.64,1.06-1.66,1.59-3.36,1.59-5.07s-.43-3.4-1.28-4.82c-.85-1.43-2.12-2.52-3.79-3.3-1.67-.77-3.85-1.16-6.53-1.16-2.04,0-3.85.43-5.44,1.28-1.59.85-2.89,1.99-3.91,3.42s-1.77,2.99-2.26,4.7l-20.27-3.42c.81-4.23,2.58-8.18,5.31-11.85,2.72-3.66,6.35-6.61,10.87-8.85,4.52-2.24,9.71-3.36,15.57-3.36,6.68,0,12.38,1.16,17.1,3.48s8.37,5.52,10.93,9.58c2.56,4.07,3.85,8.79,3.85,14.17,0,5.7-1.57,10.62-4.7,14.77-3.14,4.15-7.27,7.98-12.4,11.48l-9.4,6.47c-1.95,1.3-3.75,2.77-5.38,4.4s-3.05,3.46-4.27,5.5h37.12v17.22h-61.42Z"/>
        <path class="cls-1" d="M500.53,271.38c-7,0-13.23-1.89-18.68-5.68-5.46-3.79-9.71-8.99-12.76-15.63-3.06-6.63-4.58-14.27-4.58-22.9s1.53-16.26,4.58-22.9c3.05-6.63,7.28-11.84,12.7-15.63,5.41-3.79,11.62-5.68,18.62-5.68s13.35,1.89,18.8,5.68c5.46,3.79,9.75,8.99,12.88,15.63,3.14,6.64,4.7,14.27,4.7,22.9s-1.55,16.26-4.64,22.9c-3.09,6.64-7.37,11.85-12.82,15.63-5.46,3.79-11.72,5.68-18.81,5.68ZM500.65,253.56c3.25,0,6.17-1.14,8.73-3.42s4.58-5.39,6.04-9.34c1.47-3.95,2.2-8.49,2.2-13.62s-.74-9.81-2.2-13.8c-1.46-3.98-3.5-7.12-6.1-9.4-2.61-2.28-5.58-3.42-8.91-3.42s-6.15,1.14-8.67,3.42c-2.52,2.28-4.5,5.42-5.92,9.4-1.43,3.99-2.14,8.59-2.14,13.8s.71,9.69,2.14,13.68c1.42,3.99,3.42,7.11,5.98,9.34,2.56,2.24,5.52,3.36,8.85,3.36Z"/>
      </g>
      <g>
        <path class="cls-1" d="M388.78,324.07c-3.32,0-6.24-.7-8.76-2.11-2.52-1.41-4.5-3.35-5.95-5.83-1.45-2.48-2.17-5.33-2.17-8.57s.7-6.09,2.11-8.57c1.4-2.48,3.38-4.42,5.92-5.83,2.54-1.4,5.43-2.11,8.66-2.11s6.25.7,8.79,2.11c2.54,1.41,4.51,3.35,5.92,5.83,1.4,2.48,2.11,5.33,2.11,8.57s-.7,6.09-2.11,8.57c-1.41,2.48-3.37,4.42-5.89,5.83-2.52,1.4-5.4,2.11-8.63,2.11ZM388.78,315c1.26,0,2.38-.32,3.37-.95.98-.63,1.76-1.5,2.33-2.61.57-1.11.85-2.4.85-3.87s-.28-2.76-.85-3.87-1.35-1.99-2.36-2.61c-1.01-.63-2.16-.95-3.46-.95s-2.46.32-3.47.95c-1.01.63-1.79,1.5-2.36,2.61-.57,1.11-.85,2.4-.85,3.87s.28,2.76.85,3.87c.57,1.12,1.37,1.99,2.39,2.61,1.03.63,2.21.95,3.56.95Z"/>
        <path class="cls-1" d="M410.2,323.31v-31.5h9.83v31.5h-9.83ZM417.45,307c0-3.4.68-6.24,2.05-8.51,1.37-2.27,3.09-3.97,5.17-5.1,2.08-1.13,4.25-1.7,6.52-1.7v9.57c-1.93,0-3.75.21-5.45.63-1.7.42-3.08,1.06-4.12,1.92-1.05.86-1.58,1.96-1.58,3.31l-2.58-.13Z"/>
        <path class="cls-1" d="M450.01,323.31v-44.1h9.83v44.1h-9.83Z"/>
        <path class="cls-1" d="M481.39,324.07c-3.28,0-6.18-.7-8.69-2.11-2.52-1.41-4.49-3.35-5.92-5.83-1.43-2.48-2.14-5.33-2.14-8.57s.73-6.15,2.17-8.63c1.45-2.48,3.43-4.41,5.95-5.8s5.44-2.08,8.76-2.08c2.98,0,5.67.72,8.06,2.14,2.39,1.43,4.3,3.55,5.7,6.36,1.4,2.81,2.11,6.32,2.11,10.52h-23.69l1.07-1.2c0,1.43.29,2.69.88,3.78s1.41,1.92,2.46,2.49c1.05.57,2.22.85,3.53.85,1.55,0,2.87-.35,3.94-1.04,1.07-.69,1.81-1.56,2.24-2.61l8.69,2.96c-.84,1.97-2.03,3.61-3.56,4.91s-3.29,2.27-5.26,2.9c-1.97.63-4.07.95-6.3.95ZM475.02,304.79l-1.01-1.26h14.11l-.88,1.26c0-1.55-.32-2.79-.94-3.72-.63-.93-1.41-1.59-2.33-1.98-.92-.4-1.85-.6-2.77-.6s-1.86.2-2.8.6c-.94.4-1.74,1.06-2.39,1.98-.65.92-.98,2.16-.98,3.72Z"/>
        <path class="cls-1" d="M513.39,324.07c-2.06,0-3.98-.31-5.76-.91-1.79-.61-3.33-1.47-4.63-2.58-1.3-1.11-2.27-2.47-2.9-4.06l8.06-3.4c.55,1.09,1.3,1.9,2.27,2.42.96.53,1.95.79,2.96.79s1.87-.18,2.46-.54c.59-.36.88-.85.88-1.48,0-.67-.31-1.2-.91-1.58-.61-.38-1.48-.71-2.61-1.01l-2.71-.69c-2.94-.76-5.2-2.01-6.77-3.75-1.57-1.74-2.36-3.77-2.36-6.08,0-3.23,1.11-5.73,3.34-7.5s5.31-2.65,9.26-2.65c2.22,0,4.19.29,5.89.88,1.7.59,3.13,1.42,4.28,2.49,1.15,1.07,1.98,2.32,2.49,3.75l-7.81,3.21c-.29-.84-.89-1.48-1.79-1.92-.9-.44-1.9-.66-2.99-.66-.92,0-1.64.2-2.14.6-.5.4-.76.94-.76,1.61,0,.5.31.94.91,1.29.61.36,1.5.68,2.68.98l3.34.82c1.97.5,3.63,1.27,4.98,2.3,1.34,1.03,2.35,2.23,3.02,3.59.67,1.37,1.01,2.82,1.01,4.38,0,1.98-.58,3.69-1.73,5.13-1.16,1.45-2.76,2.57-4.82,3.37-2.06.8-4.43,1.2-7.12,1.2Z"/>
        <path class="cls-1" d="M543.43,324.07c-2.06,0-3.98-.31-5.76-.91-1.79-.61-3.33-1.47-4.63-2.58-1.3-1.11-2.27-2.47-2.9-4.06l8.06-3.4c.55,1.09,1.3,1.9,2.27,2.42.96.53,1.95.79,2.96.79s1.87-.18,2.46-.54c.59-.36.88-.85.88-1.48,0-.67-.31-1.2-.91-1.58-.61-.38-1.48-.71-2.61-1.01l-2.71-.69c-2.94-.76-5.2-2.01-6.77-3.75-1.57-1.74-2.36-3.77-2.36-6.08,0-3.23,1.11-5.73,3.34-7.5s5.31-2.65,9.26-2.65c2.22,0,4.19.29,5.89.88,1.7.59,3.13,1.42,4.28,2.49,1.15,1.07,1.98,2.32,2.49,3.75l-7.81,3.21c-.29-.84-.89-1.48-1.79-1.92-.9-.44-1.9-.66-2.99-.66-.92,0-1.64.2-2.14.6-.5.4-.76.94-.76,1.61,0,.5.31.94.91,1.29.61.36,1.5.68,2.68.98l3.34.82c1.97.5,3.63,1.27,4.98,2.3,1.34,1.03,2.35,2.23,3.02,3.59.67,1.37,1.01,2.82,1.01,4.38,0,1.98-.58,3.69-1.73,5.13-1.16,1.45-2.76,2.57-4.82,3.37-2.06.8-4.43,1.2-7.12,1.2Z"/>
      </g>
    </g>
  </g>
</svg>