<?xml version="1.0" encoding="UTF-8"?>
<svg id="Layer_2" data-name="Layer 2" xmlns="http://www.w3.org/2000/svg" viewBox="0 0 681.25 681.25">
  <defs>
    <style>
      .cls-1 {
        fill: #fff;
      }

      .cls-2 {
        fill: #e6e7e8;
        stroke: #4d51a3;
        stroke-miterlimit: 10;
      }

      .cls-3 {
        fill: #4d51a3;
      }

      .cls-4 {
        fill: #dc186a;
      }
    </style>
  </defs>
  <g id="Layer_2-2" data-name="Layer 2">
    <g>
      <circle class="cls-2" cx="340.62" cy="340.62" r="340.12"/>
      <path class="cls-4" d="M340.62,1.62v678c187.22,0,339-151.78,339-339S527.85,1.62,340.62,1.62Z"/>
      <rect class="cls-3" x="332.7" y="19.49" width="15.85" height="54.77" rx="7.92" ry="7.92"/>
      <rect class="cls-3" x="332.7" y="607.86" width="15.85" height="54.77" rx="7.92" ry="7.92"/>
      <rect class="cls-3" x="606.86" y="313.24" width="15.85" height="54.77" rx="7.92" ry="7.92" transform="translate(955.4 -274.16) rotate(90)"/>
      <rect class="cls-3" x="56.04" y="313.24" width="15.85" height="54.77" rx="7.92" ry="7.92" transform="translate(404.58 276.66) rotate(90)"/>
      <circle class="cls-3" cx="580.64" cy="206.65" r="12.09"/>
      <circle class="cls-3" cx="578.29" cy="474.59" r="12.09"/>
      <circle class="cls-3" cx="468.15" cy="92.98" r="12.09"/>
      <circle class="cls-3" cx="486.71" cy="589.77" r="12.09"/>
      <circle class="cls-3" cx="337.54" cy="344.58" r="12.09"/>
      <circle class="cls-3" cx="84.45" cy="206.65" r="12.09"/>
      <circle class="cls-3" cx="84.45" cy="469.33" r="12.09"/>
      <circle class="cls-3" cx="192.82" cy="91.51" r="12.09"/>
      <circle class="cls-3" cx="192.82" cy="589.77" r="12.09"/>
      <g>
        <path class="cls-1" d="M398.89,397.72c-3.32,0-6.24-.7-8.76-2.11-2.52-1.41-4.5-3.35-5.95-5.83-1.45-2.48-2.17-5.33-2.17-8.57s.7-6.09,2.11-8.57c1.4-2.48,3.38-4.42,5.92-5.83,2.54-1.4,5.43-2.11,8.66-2.11s6.25.7,8.79,2.11c2.54,1.41,4.51,3.35,5.92,5.83,1.4,2.48,2.11,5.33,2.11,8.57s-.7,6.09-2.11,8.57c-1.41,2.48-3.37,4.42-5.89,5.83-2.52,1.4-5.4,2.11-8.63,2.11ZM398.89,388.65c1.26,0,2.38-.32,3.37-.95.98-.63,1.76-1.5,2.33-2.61.57-1.11.85-2.4.85-3.87s-.28-2.76-.85-3.87-1.35-1.99-2.36-2.61c-1.01-.63-2.16-.95-3.46-.95s-2.46.32-3.47.95c-1.01.63-1.79,1.5-2.36,2.61-.57,1.11-.85,2.4-.85,3.87s.28,2.76.85,3.87c.57,1.12,1.37,1.99,2.39,2.61,1.03.63,2.21.95,3.56.95Z"/>
        <path class="cls-1" d="M420.31,396.97v-31.5h9.83v31.5h-9.83ZM427.56,380.65c0-3.4.68-6.24,2.05-8.51,1.37-2.27,3.09-3.97,5.17-5.1,2.08-1.13,4.25-1.7,6.52-1.7v9.57c-1.93,0-3.75.21-5.45.63-1.7.42-3.08,1.06-4.12,1.92-1.05.86-1.58,1.96-1.58,3.31l-2.58-.13Z"/>
        <path class="cls-1" d="M460.12,396.97v-44.1h9.83v44.1h-9.83Z"/>
        <path class="cls-1" d="M491.5,397.72c-3.28,0-6.18-.7-8.69-2.11-2.52-1.41-4.49-3.35-5.92-5.83-1.43-2.48-2.14-5.33-2.14-8.57s.73-6.15,2.17-8.63c1.45-2.48,3.43-4.41,5.95-5.8s5.44-2.08,8.76-2.08c2.98,0,5.67.72,8.06,2.14,2.39,1.43,4.3,3.55,5.7,6.36,1.4,2.81,2.11,6.32,2.11,10.52h-23.69l1.07-1.2c0,1.43.29,2.69.88,3.78s1.41,1.92,2.46,2.49c1.05.57,2.22.85,3.53.85,1.55,0,2.87-.35,3.94-1.04,1.07-.69,1.81-1.56,2.24-2.61l8.69,2.96c-.84,1.97-2.03,3.61-3.56,4.91s-3.29,2.27-5.26,2.9c-1.97.63-4.07.95-6.3.95ZM485.13,378.45l-1.01-1.26h14.11l-.88,1.26c0-1.55-.32-2.79-.94-3.72-.63-.93-1.41-1.59-2.33-1.98-.92-.4-1.85-.6-2.77-.6s-1.86.2-2.8.6c-.94.4-1.74,1.06-2.39,1.98-.65.92-.98,2.16-.98,3.72Z"/>
        <path class="cls-1" d="M523.5,397.72c-2.06,0-3.98-.31-5.76-.91-1.79-.61-3.33-1.47-4.63-2.58-1.3-1.11-2.27-2.47-2.9-4.06l8.06-3.4c.55,1.09,1.3,1.9,2.27,2.42.96.53,1.95.79,2.96.79s1.87-.18,2.46-.54c.59-.36.88-.85.88-1.48,0-.67-.31-1.2-.91-1.58-.61-.38-1.48-.71-2.61-1.01l-2.71-.69c-2.94-.76-5.2-2.01-6.77-3.75-1.57-1.74-2.36-3.77-2.36-6.08,0-3.23,1.11-5.73,3.34-7.5s5.31-2.65,9.26-2.65c2.22,0,4.19.29,5.89.88,1.7.59,3.13,1.42,4.28,2.49,1.15,1.07,1.98,2.32,2.49,3.75l-7.81,3.21c-.29-.84-.89-1.48-1.79-1.92-.9-.44-1.9-.66-2.99-.66-.92,0-1.64.2-2.14.6-.5.4-.76.94-.76,1.61,0,.5.31.94.91,1.29.61.36,1.5.68,2.68.98l3.34.82c1.97.5,3.63,1.27,4.98,2.3,1.34,1.03,2.35,2.23,3.02,3.59.67,1.37,1.01,2.82,1.01,4.38,0,1.98-.58,3.69-1.73,5.13-1.16,1.45-2.76,2.57-4.82,3.37-2.06.8-4.43,1.2-7.12,1.2Z"/>
        <path class="cls-1" d="M553.55,397.72c-2.06,0-3.98-.31-5.76-.91-1.79-.61-3.33-1.47-4.63-2.58-1.3-1.11-2.27-2.47-2.9-4.06l8.06-3.4c.55,1.09,1.3,1.9,2.27,2.42.96.53,1.95.79,2.96.79s1.87-.18,2.46-.54c.59-.36.88-.85.88-1.48,0-.67-.31-1.2-.91-1.58-.61-.38-1.48-.71-2.61-1.01l-2.71-.69c-2.94-.76-5.2-2.01-6.77-3.75-1.57-1.74-2.36-3.77-2.36-6.08,0-3.23,1.11-5.73,3.34-7.5s5.31-2.65,9.26-2.65c2.22,0,4.19.29,5.89.88,1.7.59,3.13,1.42,4.28,2.49,1.15,1.07,1.98,2.32,2.49,3.75l-7.81,3.21c-.29-.84-.89-1.48-1.79-1.92-.9-.44-1.9-.66-2.99-.66-.92,0-1.64.2-2.14.6-.5.4-.76.94-.76,1.61,0,.5.31.94.91,1.29.61.36,1.5.68,2.68.98l3.34.82c1.97.5,3.63,1.27,4.98,2.3,1.34,1.03,2.35,2.23,3.02,3.59.67,1.37,1.01,2.82,1.01,4.38,0,1.98-.58,3.69-1.73,5.13-1.16,1.45-2.76,2.57-4.82,3.37-2.06.8-4.43,1.2-7.12,1.2Z"/>
      </g>
      <g>
        <path class="cls-1" d="M438.33,338.81c-4.35,0-8.32-.66-11.91-1.97-3.59-1.32-6.55-3.25-8.9-5.78-2.34-2.53-3.87-5.65-4.59-9.34l15.02-3.66c.4.79.9,1.75,1.53,2.86.63,1.13,1.56,2.09,2.82,2.92,1.25.82,2.93,1.23,5.04,1.23,2.77,0,4.94-.74,6.52-2.22s2.37-3.44,2.37-5.88c0-1.45-.35-2.81-1.04-4.1s-1.95-2.31-3.76-3.06c-1.81-.76-4.37-1.13-7.66-1.13h-5.14v-10.28h4.55c3.88,0,7.56.47,11.02,1.43s6.54,2.36,9.24,4.2c2.7,1.85,4.83,4.02,6.37,6.52,1.55,2.51,2.32,5.34,2.32,8.5,0,4.21-1.12,7.81-3.36,10.77-2.24,2.97-5.17,5.2-8.79,6.72-3.63,1.51-7.51,2.27-11.66,2.27ZM428.64,305.41v-9.59h5.14c4.15,0,7.08-.69,8.8-2.07,1.71-1.38,2.57-3.26,2.57-5.63,0-1.38-.33-2.61-.99-3.66-.66-1.05-1.58-1.89-2.77-2.52s-2.54-.94-4.05-.94c-1.12,0-2.27.2-3.46.6s-2.27,1.09-3.26,2.07-1.75,2.4-2.27,4.25l-14.83-3.55c.72-3.76,2.32-6.9,4.79-9.44,2.47-2.53,5.42-4.45,8.85-5.73,3.42-1.29,6.95-1.93,10.57-1.93,4.35,0,8.28.8,11.81,2.42,3.52,1.62,6.33,3.85,8.4,6.72,2.07,2.86,3.11,6.21,3.11,10.03,0,3.3-.81,6.13-2.42,8.5-1.62,2.36-3.76,4.33-6.42,5.88-2.67,1.54-5.65,2.7-8.94,3.46-3.3.76-6.66,1.13-10.08,1.13h-4.55Z"/>
        <path class="cls-1" d="M497.62,338.81c-5.67,0-10.7-1.53-15.12-4.59s-7.86-7.28-10.33-12.65c-2.47-5.36-3.71-11.54-3.71-18.53s1.23-13.16,3.71-18.53c2.47-5.36,5.9-9.59,10.28-12.65,4.38-3.06,9.4-4.59,15.07-4.59s10.8,1.53,15.22,4.59,7.89,7.29,10.43,12.65c2.54,5.37,3.8,11.55,3.8,18.53s-1.25,13.17-3.76,18.53c-2.5,5.37-5.96,9.59-10.37,12.65-4.42,3.06-9.49,4.59-15.22,4.59ZM497.72,324.38c2.63,0,4.99-.92,7.07-2.77,2.07-1.84,3.71-4.36,4.89-7.56,1.19-3.19,1.78-6.87,1.78-11.02s-.6-7.94-1.78-11.16c-1.18-3.23-2.83-5.77-4.94-7.62-2.11-1.84-4.52-2.77-7.21-2.77s-4.98.92-7.02,2.77c-2.04,1.85-3.64,4.38-4.79,7.62-1.15,3.23-1.73,6.95-1.73,11.16s.58,7.84,1.73,11.07c1.15,3.23,2.77,5.75,4.84,7.56,2.07,1.82,4.46,2.72,7.17,2.72Z"/>
      </g>
    </g>
  </g>
</svg>