<?xml version="1.0" encoding="UTF-8"?>
<svg id="Layer_2" data-name="Layer 2" xmlns="http://www.w3.org/2000/svg" viewBox="0 0 681.25 681.25">
  <defs>
    <style>
      .cls-1 {
        fill: #fff;
      }

      .cls-2 {
        fill: #e6e7e8;
        stroke: #4d51a3;
        stroke-miterlimit: 10;
      }

      .cls-3 {
        fill: #4d51a3;
      }

      .cls-4 {
        fill: #dc186a;
      }
    </style>
  </defs>
  <g id="Layer_2-2" data-name="Layer 2">
    <g>
      <circle class="cls-2" cx="340.62" cy="340.62" r="340.12"/>
      <path class="cls-4" d="M339.12,341.74l.66-341.24s76.63-4.66,162.47,40.79l-163.14,300.45Z"/>
      <rect class="cls-3" x="332.7" y="19.49" width="15.85" height="54.77" rx="7.92" ry="7.92"/>
      <rect class="cls-3" x="332.7" y="607.86" width="15.85" height="54.77" rx="7.92" ry="7.92"/>
      <rect class="cls-3" x="606.86" y="313.24" width="15.85" height="54.77" rx="7.92" ry="7.92" transform="translate(955.4 -274.16) rotate(90)"/>
      <rect class="cls-3" x="56.04" y="313.24" width="15.85" height="54.77" rx="7.92" ry="7.92" transform="translate(404.58 276.66) rotate(90)"/>
      <circle class="cls-3" cx="580.64" cy="206.65" r="12.09"/>
      <circle class="cls-3" cx="578.29" cy="474.59" r="12.09"/>
      <circle class="cls-3" cx="468.15" cy="92.98" r="12.09"/>
      <circle class="cls-3" cx="486.71" cy="589.77" r="12.09"/>
      <circle class="cls-3" cx="337.54" cy="344.58" r="12.09"/>
      <circle class="cls-3" cx="84.45" cy="206.65" r="12.09"/>
      <circle class="cls-3" cx="84.45" cy="469.33" r="12.09"/>
      <circle class="cls-3" cx="192.82" cy="91.51" r="12.09"/>
      <circle class="cls-3" cx="192.82" cy="589.77" r="12.09"/>
      <path class="cls-1" d="M384.19,171.05c-4,0-8.04-.7-12.12-2.08-4.08-1.39-7.71-3.39-10.91-6s-5.44-5.85-6.75-9.7l17.55-4.16c1.16,2.01,2.71,3.48,4.67,4.45s4.06,1.44,6.29,1.44c3.38,0,6.13-1.02,8.25-3.06,2.11-2.04,3.17-4.79,3.17-8.26,0-3.15-1.02-5.83-3.06-8.02s-4.83-3.29-8.36-3.29c-2.16,0-4.06.5-5.72,1.5-1.65,1.01-2.86,2.19-3.64,3.58l-16.74-3.69,5.31-44.9h46.86v16.85h-31.17l-2.31,16.5c2-1.15,4.27-2.06,6.81-2.71,2.54-.65,5.31-.98,8.31-.98,4.16.08,7.98,1.16,11.48,3.23,3.5,2.08,6.29,4.9,8.37,8.48,2.08,3.58,3.12,7.72,3.12,12.41,0,5.62-1.27,10.56-3.81,14.83-2.54,4.27-6,7.6-10.39,9.98-4.39,2.39-9.46,3.58-15.24,3.58Z"/>
      <g>
        <path class="cls-1" d="M359.51,191.24c-1.01,0-1.91-.22-2.68-.64-.77-.43-1.38-1.02-1.82-1.78-.44-.76-.66-1.63-.66-2.62s.22-1.86.65-2.62c.43-.76,1.03-1.35,1.81-1.78.78-.43,1.66-.64,2.65-.64s1.91.22,2.69.64c.78.43,1.38,1.02,1.81,1.78.43.76.64,1.63.64,2.62s-.22,1.86-.64,2.62c-.43.76-1.03,1.35-1.8,1.78-.77.43-1.65.64-2.64.64ZM359.51,188.47c.38,0,.73-.1,1.03-.29.3-.19.54-.46.71-.8.17-.34.26-.73.26-1.18s-.09-.84-.26-1.18-.41-.61-.72-.8c-.31-.19-.66-.29-1.06-.29s-.75.1-1.06.29c-.31.19-.55.46-.72.8-.17.34-.26.73-.26,1.18s.09.84.26,1.18c.17.34.42.61.73.8.31.19.68.29,1.09.29Z"/>
        <path class="cls-1" d="M366.06,191.01v-9.62h3v9.62h-3ZM368.27,186.02c0-1.04.21-1.91.63-2.6.42-.69.94-1.21,1.58-1.56.64-.35,1.3-.52,1.99-.52v2.93c-.59,0-1.15.07-1.67.19-.52.13-.94.32-1.26.59-.32.26-.48.6-.48,1.01l-.79-.04Z"/>
        <path class="cls-1" d="M378.22,191.01v-13.47h3v13.47h-3Z"/>
        <path class="cls-1" d="M387.81,191.24c-1,0-1.89-.22-2.66-.64-.77-.43-1.37-1.02-1.81-1.78-.44-.76-.65-1.63-.65-2.62s.22-1.88.66-2.64c.44-.76,1.05-1.35,1.82-1.77s1.66-.64,2.68-.64c.91,0,1.73.22,2.46.65.73.44,1.31,1.08,1.74,1.94.43.86.64,1.93.64,3.21h-7.24l.33-.37c0,.44.09.82.27,1.16s.43.59.75.76c.32.17.68.26,1.08.26.47,0,.88-.11,1.2-.32.33-.21.55-.48.68-.8l2.66.9c-.26.6-.62,1.1-1.09,1.5s-1,.69-1.61.89c-.6.19-1.24.29-1.92.29ZM385.86,185.35l-.31-.39h4.31l-.27.39c0-.47-.1-.85-.29-1.14-.19-.28-.43-.48-.71-.61-.28-.12-.56-.18-.85-.18s-.57.06-.86.18c-.29.12-.53.32-.73.61-.2.28-.3.66-.3,1.14Z"/>
        <path class="cls-1" d="M397.59,191.24c-.63,0-1.22-.09-1.76-.28-.55-.19-1.02-.45-1.41-.79-.4-.34-.69-.75-.89-1.24l2.46-1.04c.17.33.4.58.69.74.29.16.6.24.9.24s.57-.05.75-.16c.18-.11.27-.26.27-.45,0-.21-.09-.37-.28-.48-.19-.12-.45-.22-.8-.31l-.83-.21c-.9-.23-1.59-.61-2.07-1.15-.48-.53-.72-1.15-.72-1.86,0-.99.34-1.75,1.02-2.29s1.62-.81,2.83-.81c.68,0,1.28.09,1.8.27.52.18.96.43,1.31.76.35.33.61.71.76,1.15l-2.39.98c-.09-.26-.27-.45-.55-.59-.28-.13-.58-.2-.91-.2-.28,0-.5.06-.65.18-.15.12-.23.29-.23.49,0,.15.09.29.28.39.19.11.46.21.82.3l1.02.25c.6.15,1.11.39,1.52.7.41.31.72.68.92,1.1.21.42.31.86.31,1.34,0,.6-.18,1.13-.53,1.57-.35.44-.84.79-1.47,1.03-.63.24-1.35.37-2.18.37Z"/>
        <path class="cls-1" d="M406.77,191.24c-.63,0-1.22-.09-1.76-.28-.55-.19-1.02-.45-1.41-.79-.4-.34-.69-.75-.89-1.24l2.46-1.04c.17.33.4.58.69.74.29.16.6.24.9.24s.57-.05.75-.16c.18-.11.27-.26.27-.45,0-.21-.09-.37-.28-.48-.19-.12-.45-.22-.8-.31l-.83-.21c-.9-.23-1.59-.61-2.07-1.15-.48-.53-.72-1.15-.72-1.86,0-.99.34-1.75,1.02-2.29s1.62-.81,2.83-.81c.68,0,1.28.09,1.8.27.52.18.96.43,1.31.76.35.33.61.71.76,1.15l-2.39.98c-.09-.26-.27-.45-.55-.59-.28-.13-.58-.2-.91-.2-.28,0-.5.06-.65.18-.15.12-.23.29-.23.49,0,.15.09.29.28.39.19.11.46.21.82.3l1.02.25c.6.15,1.11.39,1.52.7.41.31.72.68.92,1.1.21.42.31.86.31,1.34,0,.6-.18,1.13-.53,1.57-.35.44-.84.79-1.47,1.03-.63.24-1.35.37-2.18.37Z"/>
      </g>
    </g>
  </g>
</svg>