<?xml version="1.0" encoding="UTF-8"?>
<svg id="Layer_2" data-name="Layer 2" xmlns="http://www.w3.org/2000/svg" viewBox="0 0 727.02 829.69">
  <defs>
    <style>
      .cls-1, .cls-2 {
        fill: #231f20;
      }

      .cls-3 {
        fill: #fff;
      }

      .cls-2 {
        stroke: #231f20;
        stroke-miterlimit: 10;
      }
    </style>
  </defs>
  <g id="Layer_2-2" data-name="Layer 2">
    <g>
      <path class="cls-1" d="M420.93,173.94s-.85,10.16,2.12,12.27c0,0,18.2,2.33,22.85,0,0,0,3.39-7.19,1.69-11.21,0,0-8.25-8.67-26.66-1.06Z"/>
      <circle class="cls-3" cx="440.67" cy="175.7" r="2.34"/>
      <circle class="cls-3" cx="442.12" cy="179.8" r=".67"/>
      <path class="cls-1" d="M305.89,172.72s-.05,12.21,14,11.73c14.05-.48,13.28-10.95,13.28-10.95,0,0-12.79-11.92-27.28-.78Z"/>
      <circle class="cls-3" cx="325.28" cy="173.51" r="2.14"/>
      <circle class="cls-3" cx="324.2" cy="176.01" r=".58"/>
      <path class="cls-1" d="M401.4,152.62l8.48-11.22s46.59,4.57,58.46,2.61,18.79,25.32,18.79,25.32h-12.4s-11.35-17.09-26.88-16.18c-15.53.91-41.76-.91-41.76-.91"/>
      <path class="cls-1" d="M468.48,183.56s-17.01-16.45-22.66-17.5-11.39-4.83-27.18,1.3c-15.79,6.13-1.04-5.48.65-5.61s16.26-4.31,26.53.52c10.27,4.83,22.66,21.28,22.66,21.28Z"/>
      <path class="cls-1" d="M401.36,186.21s14.28-20.31,34.59-17.61c20.31,2.7,33.48,20.15,33.48,20.15l-16.03-8.09s-19.68-19.99-52.05,5.55Z"/>
      <path class="cls-1" d="M343.07,154.05s15.27-2.87,15.27-5.48-21.4-16.31-24.14-15.27-11.61,3.39-11.61,3.39c0,0-30.67-2.09-44.11,8.22-13.44,10.31-10.31,38.64-10.31,38.64,0,0,8.09-37.46,28.06-33.81s46.85,4.31,46.85,4.31Z"/>
      <path class="cls-1" d="M406.62,161.23s-10.57,6.52-1.7,8.09,18.48-3.61,18.48-3.61l5.27-4.48h-22.05Z"/>
      <path class="cls-1" d="M407.41,190.59s24.13,8.74,27.2,9.92,23.3,0,24.34-3.13c0,0-19.84,15.53-51.55-6.79Z"/>
      <path class="cls-1" d="M287.02,172.58s19.77-19.12,33.34-14.55c13.57,4.57,32.43,1.37,37.65,4.7s15.79,7.63,5.81,24.79-11.09,16.9-11.09,16.9c0,0,8.38-22.85,3.91-24.79-16.31-7.11-21.47-15.27-22.51-15.59-19.63-6.13-47.11,8.55-47.11,8.55Z"/>
      <path class="cls-1" d="M235.67,167.62s15.92-76.73,21.92-86.13,20.36-34.97,46.72-50.89c0,0-35.76,16.7-68.64,137.02Z"/>
      <path class="cls-1" d="M439.74,24.34c38.49,38.45,42.14,33.32,47.1,44.8s17.66,22.53,20.79,38.97,6.52,69.35,5.22,70.82,1.3-1.47,1.3-1.47c0,0,2.09-73.01-16.18-98.32-18.27-25.32-58.23-54.81-58.23-54.81Z"/>
      <path class="cls-1" d="M309.8,26.43s61.07-42.67,97.61-19.57c0,0-36.8-17.23-97.61,19.57Z"/>
      <path class="cls-1" d="M352.08,208.47s-26.49,29.88-35.49,35.63-42.93,33.67-20.23,54.81c0,0-17.67-24.79,16.74-47.89,34.41-23.1,25.41-18.27,25.41-18.27,0,0,7.23-2.22,9.45.96.13.18.24.38.33.61,1.7,4.05,26.75-44.89,3.78-25.84Z"/>
      <path class="cls-1" d="M279.17,187.63s14.53,6.18,25.75,7.66c11.22,1.48,19.59-1.3,19.59-1.3l-32.98-10.43s-16.53-3.32-12.35,4.08Z"/>
      <path class="cls-1" d="M351.9,185.02s-23.94-28.78-47.2-15.02c-23.26,13.76-21.13,8.63-21.13,8.63,0,0,16.16-.78,17.13-1.94s14.95-12.55,33.36-2.4c18.41,10.15,17.83,10.73,17.83,10.73Z"/>
      <path class="cls-1" d="M333.72,199.64s-11.64,5.57-45.06-2.61c0,0,31.48,4.18,45.06,2.61Z"/>
      <path class="cls-1" d="M236.46,180.15s-6.79-8.83-9.57-4.5-4.18,30.6-1.22,39.13-2.35,26.27,4.57,30.62,5-2.96,3.61-6.61-7.48-20.53-4.35-32.88,1.22-24.71,6.96-25.75Z"/>
      <path class="cls-1" d="M243.42,198.42s-10.96,18.79-8.87,26.45,1.39,16.36,8.87,6.61-6.83-1.4,0-33.06Z"/>
      <path class="cls-1" d="M243.59,242.96s-10.96,3.65-8,7.31,7.31,4,8,1.91,0-8.35,0-8.35"/>
      <path class="cls-1" d="M225.15,253.47c-.47-5.96-4.6,23.08,18.75,13.86v-4.18s-17.36,8.13-18.75-9.68Z"/>
      <path class="cls-1" d="M363.95,260.28s-6.79-11.85-21.79-7.62-2.98-18.48-2.98-18.48c0,0-8.89,5.7-8.89,8.79s-1.57,13.14,13.44,12.61c15.01-.52,1.3.39,20.23,4.7Z"/>
      <path class="cls-1" d="M391.49,259.49s11.09,2.09,12.14-1.44-4.05-5.6-10.7-6.58-12.53,6.71-15.01,7.63,13.57.39,13.57.39Z"/>
      <path class="cls-1" d="M407.41,224s24.92,33.48,25.77,36.9,11.37,20.91,12.63,25.87-38.02-54.42-38.41-61.99"/>
      <path class="cls-1" d="M407.41,255.06s16.57-1.9,2.14-20.88c-.23-.3-.46-.6-.71-.91,0,0,11.25,16.91-1.44,21.79Z"/>
      <path class="cls-1" d="M324.51,298.9s11.3,2.7,18.26,2.87,6.09,3.83,28.19,5.39,22.62-1.91,29.4-2.09,24.34,5.57,26.27,6.44,15.15.87-3.99-7.13c-19.14-8-26.27.17-36.71.17s-24.88-2.26-27.58-2.26-28.1-9.4-28.1-9.4l-3.8-10.79s-24.03,4.18-22.12,13.22,20.19,3.57,20.19,3.57Z"/>
      <path class="cls-1" d="M371.3,318.65s-37.58-7.31-36.89-16.7-15.83-4-15.83-4c0,0,29.58,21.4,52.72,20.71Z"/>
      <path class="cls-1" d="M383.48,317.26s15.64-1.91,27.92-11.66h2.71s-8.59,11.13-30.62,11.66Z"/>
      <path class="cls-1" d="M344.94,321.96s-6.87,19.66-2.17,27.14,4.33-16.01,4.33-16.01l1.31,10.96s5.15-7.83,2.19-15.66,7.13,5.57,5.92,10.79-7.01-.17-9.42,10.44,4.72-4.52,4.72-4.52l1.39,5.22s-1.88-1.74,3.41-7.48-2.16-19.49,0-20.88,3.73,9.22,3.73,9.22c0,0-4.52,21.75-2,19.66s4.26-5.57,4.26-10.61-2.26-15.83,0-16.53,1.35,5.92,1.35,5.92c0,0-3.44,27.49-1,22.45s3.13-17.75,3.13-17.75c0,0-3.1,20.71,2.45,17.57s2.77-12.35,2.77-12.35c0,0,3.31,10.44.7,12.88s10.96,3.13,8.35-5.39c-2.61-8.53-2.7-10.79-2.7-10.79,0,0,6.87,11.14,5.83,12.35s5.92-5.74,1.39-9.4,5.22,5.57,2.26,9.57,4.35,6.79,4.87-3.83,6.79-11.66-1.3-17.57-2.87,7.83-2.87,7.83c0,0-6.26-2.78-4.35-7.48s-2.78,3.83-1.39,6.09-6.61-2.78-4.44-6.61-3.74,6.09-2.35,8.53-3.13-7.83-1.74-9.22-4,6.44-2.26,8-5.02-7.48-2.77-9.4-2.85,6.26-.56,8.18-4.32-7.66-2.41-9.05-20.62-2.26-20.62-2.26Z"/>
      <path class="cls-1" d="M487.14,258.97s-7.44,27.66-1.44,39.93c0,0,8.87-35.86,8.61-46.25l-7.18,6.32Z"/>
      <path class="cls-1" d="M479.66,300.29s-7.44,27.66-1.44,39.93c0,0,8.87-35.86,8.61-46.25l-7.18,6.32Z"/>
      <path class="cls-1" d="M501.88,202.64s7.57,34.67,1.57,52.42c-6,17.75-1.04-8.01-1.57-52.42Z"/>
      <path class="cls-1" d="M480.74,271.5s-8.86,31.84-1.56,42.54c7.3,10.7,1.56-42.54,1.56-42.54Z"/>
      <path class="cls-1" d="M471.09,282.11s-8.63,39.5,5.21,55.81l-5.21-55.81Z"/>
      <path class="cls-1" d="M425.69,360.3s-6.28,24.73,3.8,34.94l-3.8-34.94Z"/>
      <path class="cls-1" d="M410.64,380.85s-4.13,14.3,2.5,20.21l-2.5-20.21Z"/>
      <path class="cls-1" d="M500.45,273.06s4.83,31.58,0,18.79,0-18.79,0-18.79Z"/>
      <path class="cls-1" d="M491.18,291.33s-1.55,20.36,3.14,20.1l-3.14-20.1Z"/>
      <path class="cls-1" d="M486.7,287.44s-1.55,20.36,3.14,20.1l-3.14-20.1Z"/>
      <path class="cls-1" d="M494.57,278.8s-1.55,20.36,3.14,20.1l-3.14-20.1Z"/>
      <path class="cls-1" d="M319.28,363.11s-9.1,18.27-4.66,19.8l4.66-19.8Z"/>
      <path class="cls-1" d="M327.34,384.44s-5.76,8.49.27,10.8l-.27-10.8Z"/>
      <path class="cls-1" d="M373.73,395.66s5.76,8.49-.27,10.8l.27-10.8Z"/>
      <path class="cls-1" d="M369.7,373.76s-4.86,32.15-9.52,30.79l9.52-30.79Z"/>
      <path class="cls-1" d="M337.96,372.44s-13.02,22.99-3.37,26.55l3.37-26.55Z"/>
      <path class="cls-1" d="M485.96,303.86s-.51,23.23,2.88,24.01,0-1.3,0-1.3l-2.88-22.71Z"/>
      <path class="cls-1" d="M321.23,350.3s-7.44,27.66-1.44,39.93c0,0,8.87-35.86,8.61-46.25l-7.18,6.32Z"/>
      <path class="cls-1" d="M349.56,386.37s-1.55,20.36,3.14,20.1l-3.14-20.1Z"/>
      <path class="cls-1" d="M398.03,365.29s7.6,37.57-4.89,38.23l4.89-38.23Z"/>
      <path class="cls-1" d="M339.5,383.1s-.51,23.23,2.88,24.01,0-1.3,0-1.3l-2.88-22.71Z"/>
      <path class="cls-1" d="M481.18,308.82s-.51,23.23,2.88,24.01,0-1.3,0-1.3l-2.88-22.71Z"/>
      <path class="cls-1" d="M476.33,303.86s-.51,23.23,2.88,24.01,0-1.3,0-1.3l-2.88-22.71Z"/>
      <path class="cls-1" d="M444.27,325l5.94,15.14h-5.94l4.11,3.65h-4.11l2.97,4.18-4.34,1.57,2.91,6.79h-6.08l3.43,3.65-3.22,4.44-.2,7.57-6.56-8.09,4.63,12.01s-7.7-3.39-7.96-9.92-1.17.52-1.17.52c0,0,3.91,7.57,5.93,10.44s-7.99-4.7-7.99-4.7c0,0,6.36,15.66,11.19,14.88s0-1.3,0-1.3c0,0,5.73-5.49,3.85-10.44s13.51,3.91,8.55-2.35-3.13-10.18-3.13-10.18c0,0,9.13,12.01,6.52,5.22s-3.91-11.99-3.91-11.99c0,0,12.53,15.38,8.09,6.25-4.44-9.13-3.13-14.62-3.13-14.62,0,0,5.22,12.03,8.74,8.37s-4.44-9.15-4.44-9.15c0,0,11.88,5.22,10.83,1.3s-4.96-6.26-4.96-6.26l-20.55-16.96Z"/>
      <path class="cls-1" d="M287.42,303.36l-6.04,15.1,5.94.04-4.14,3.63,4.11.03-3,4.16,4.33,1.6-2.96,6.77,6.08.04-3.45,3.63,3.19,4.46.15,7.57,6.61-8.05-4.71,11.97s7.72-3.34,8.03-9.86c.31-6.52,1.17.53,1.17.53,0,0-3.96,7.54-6.01,10.4s8.02-4.64,8.02-4.64c0,0-6.46,15.62-11.29,14.8s0-1.3,0-1.3c0,0-5.7-5.53-3.78-10.47s-13.53,3.82-8.53-2.41,3.2-10.16,3.2-10.16c0,0-9.22,11.94-6.56,5.18s4-11.96,4-11.96c0,0-12.63,15.3-8.13,6.19s3.23-14.59,3.23-14.59c0,0-5.3,12-8.8,8.31s4.5-9.12,4.5-9.12c0,0-11.91,5.14-10.84,1.23s5-6.23,5-6.23l20.67-16.82Z"/>
      <path class="cls-1" d="M458.95,310.02s7.22,29.86,18.03,34.04-18.03-35.23-18.03-35.23v1.2Z"/>
      <path class="cls-1" d="M453.6,318.67s12.09,26.43,19.49,28.52l-19.49-28.52Z"/>
      <path class="cls-1" d="M507.1,208.34s6.52-20.74,12.53-22.64c0,0,18.01,4.63,7.57,33.6s-7.31,36.45-7.31,36.45c0,0-8.75-3.04-1.11-25.75,7.64-22.71,6.85-48.02-11.68-21.66Z"/>
      <path class="cls-1" d="M498.31,251.39s-3.86,43.17,21.59,21.68c3.91-3.31-1.11-1.57-1.11-1.57,0,0-20.4,14.07-20.47-20.11Z"/>
      <path class="cls-1" d="M260.29,262.45s-5.92,19.66-2.78,36.45c0,0,2.09-21.66,4.18-21.66,0,0-5.39,36.6.7,38.22,0,0,.5-26.04,5.47-29.17,0,0-6.4,25.4-3.9,33.23,0,0,8.22-33.23,14.55-27.49,0,0-3.76-8.56-8.28-2.26,0,0-.7-14.09,1.57-13.05,0,0-6.79.17-7.13,4.18,0,0-5.39-13.92-4.35-18.44Z"/>
      <path class="cls-1" d="M361.72,282.11s8.72-17.72-3.38-21.21-17.14,6.77-28.1,9.21c-10.96,2.44-2.75-5.22-2.75-5.22,0,0-6.65,4.35-6.3,6.61s-3.16-6.26-.01-8c0,0-7.99,6.09-6.42,9.57,0,0-4.41-7.13-.2-10.61,0,0-11.11,10.79-9.8,14.44,0,0-2.7-13.92,2.35-16.62,0,0-22.45,20.1-6.79,34.63,0,0-.7-11.48,3.13-10.92,0,0-1.22,8.16,1.3,9.5l2.35-7.71,1.22,4.35,4.18-8,3.85,4,2.94-6.09-.7,7.04,2.26-4.95v4.95l3.66-7.04.68,7.04,2.41-5.64s5.83,3.03,4.72,7.44l9.74,5.12,19.65-11.86Z"/>
      <path class="cls-1" d="M372.35,292.2s-18.95-17.05,5.31-27.49,42.89,13.75,42.89,13.75c0,0,25.93,19.84,26.62,27.14s-8.53-8.11-8.53-8.11c0,0,3.57,19.42-.83,8.11s-5.26,3.31-7.7-6.7-4.01,8.97-6.35-4-1.13,6.48-1.13,6.48c0,0-8.35-10.87-6.09-15.76s1.39,15.76,1.39,15.76l-4.8-15.76-.94,11.39-4.78-16.11.78,16.59-4.43-14.33v11.75s-19.93-7.58-10.53-16.1-7.83,11.38.35,15.17-11.48-1.33-8.35-9.99-.87,0-.87,0c0,0-.7,12.62,1.57,12.42,0,0-11.14-9.43-7.31-17.6v15.17s-5.77-10.82-5.15-14.3c0,0-5.82,9.4-1.12,12.53Z"/>
      <path class="cls-1" d="M360.18,288.85s-21.2-3.26-33.75.74c0,0,18.77,17.05,53.74,16.01s31.25-6.7,31.25-6.7c0,0-29.22-15.11-36.59-5.42s-1.38,0-1.38,0l-13.28-4.63Z"/>
      <path class="cls-1" d="M244.37,226.78s-7.8,53.07,1.27,72.47,0,.43,0,.43c0,0-1.88-35.58,1.07-40.02,0,0,3.04,54.46,10.27,65.07,0,0-8.35-51.94-3.65-57.16s1.04-18.79,1.04-18.79c0,0-4.26,13.4-3.22,15.22s-6.61-37.67-6.61-37.67"/>
      <path class="cls-1" d="M309.66,316s21.66,24.14,27.53,25.71c0,0-12.53-35.63-16.7-39.02s-1.22,0-1.22,0c0,0,9.83,24.49,3.04,18.23s-12.66-4.92-12.66-4.92Z"/>
      <path class="cls-1" d="M361.72,432.79s43.43-22.85,50.7-28.64c.3-.24.54-.46.72-.63,4.28-4.48-73.67,25.1-109.69-21.36l-23.32-16.87s14.62,41.4,5.57,47.15l76.02,20.36Z"/>
      <path class="cls-1" d="M389.4,458.72s-86.13-22.1-88.91-40.02l-25.58-12.23s46.44,48.87,114.49,53.12c2.78.17,0-.87,0-.87Z"/>
      <path class="cls-1" d="M269.17,355.02s-1.65,69.42,40.5,103.53c0,0-58.41-52.72-40.5-103.53Z"/>
      <path class="cls-1" d="M300.66,523.09s10.18-28.36-17.44-45.24c-27.62-16.88,4.49-27.84,4.49-27.84,0,0,29,29.58,28.63,35.67s55.14,48.72,60.88,72.03c5.74,23.32-42.72-17.57-42.72-17.57l-33.84-17.05Z"/>
      <path class="cls-1" d="M247.77,449.15s-.16.3-.41.87c-2.2,4.91-11.53,29.59,13.11,49.24,27.49,21.92,24.53,8.2,24.53,8.2l-37.23-58.31Z"/>
      <path class="cls-1" d="M236.98,419.39s-26.1,17.92-35.84,47.15-13.4,73.43-26.27,83.34c-12.88,9.92,55.33-55.16,56.37-75.86,1.04-20.71,5.74-54.63,5.74-54.63Z"/>
      <path class="cls-1" d="M206.01,438.18c.17-.76-55.68,36.19-73.25,61.59-17.57,25.4-12.88,88.74-12.88,88.74,0,0,78.99-118.49,86.13-150.33Z"/>
      <path class="cls-1" d="M46.59,707.09s1.83-49.98-1.7-62.51c-3.52-12.53-19.31-46.72-18.14-51.81,0,0-4.44,4.18-11.88,6.92,0,0,34.71,49.46,31.71,107.4Z"/>
      <path class="cls-1" d="M7.05,604.65s19.05,35.1,29.88,42.28,8.62,34.14,8.62,34.14c0,0-35.9-61.93-38.51-76.42Z"/>
      <path class="cls-1" d="M110.79,646.67s-45.28,58.46-41.63,77.51,2.74,34.97,12.79,41.63-11.88-68.9,43.32-94.74-22.45,4.44-22.45,4.44c0,0,15.79-40.84,7.96-28.84Z"/>
      <path class="cls-1" d="M54.29,558.98s7.18,144.85,4.18,148.11c0,0,6.39,25.19,9.4,23.23,3-1.96,1.57-171.73-13.57-171.34Z"/>
      <path class="cls-1" d="M95.65,765.55s-6-28.32-4.31-47.5,122.4-10.96,122.4-10.96c0,0-102.83,5.22-117.05,9.66l-1.04,48.81Z"/>
      <path class="cls-1" d="M132.84,474.29s-38.76,17.62-39.67,24.92,43.45-18.66,48.28-23.62c4.83-4.96,38.76-23.62,49.98-24.27l-58.59,22.97Z"/>
      <path class="cls-1" d="M0,563.29s18.44-52.28,64.46-64.99L0,563.29Z"/>
      <path class="cls-1" d="M58.46,507.43s122.4-58.72,134.41-67.47-119.79,48.28-134.41,67.47Z"/>
      <path class="cls-1" d="M351.64,649.93s13.92,31.14,4,48.72c0,0,8.7-5.39,13.57,2.96,0,0-14.44-40.19-6.96-51.68h-10.61Z"/>
      <path class="cls-1" d="M353.21,705.35s1.04,13.32,9.57,10.53c0,0,6.09-1.41,6.44-10.54,0,0,8.35,9.15-8,14.19-16.36,5.05-8-14.19-8-14.19Z"/>
      <path class="cls-1" d="M354.95,558.98s-5.39,14.57,6.26,17.53c0,0-4.52,33.06-1.57,48.72,2.96,15.66,6.26-48.54,6.26-48.54,0,0,8.35-5.05,8.7-10.27,0,0-16.01,20.27-19.66-7.44Z"/>
      <path class="cls-1" d="M444.38,499.26s18.62-16.61,18.27-18.83,8.87-15.4-19.66-20.82c0,0-2.78,13.66-8,16.31s-23.84,22.82-37.76,22.65-7.48,9.57-.87,8.87c6.61-.7,51.85-28.01,48.02-8.18Z"/>
      <path class="cls-1" d="M390.63,538.4s40-40.89,42.09-47.33h8.87l-50.96,47.33Z"/>
      <path class="cls-1" d="M376.87,514.74s-11.31,11.48-11.31,18.44,24.36-11.14,24.36-11.14l9.4-8.71s-17.4-3.82-12.18-13.74l-10.27,15.14Z"/>
      <path class="cls-1" d="M436.2,528.14s-6.22-19.88,4.52-27.64c10.74-7.76-20.18-.37-4.52,27.64Z"/>
      <path class="cls-1" d="M441.6,504.65s-10.61,7.66,5.57,10.09c0,0-18.27-2.26-5.57-10.09Z"/>
      <path class="cls-1" d="M290.4,491.08s-6.26,5.1-6.09,9.42,1.74,7.63,11.14,11.2c0,0,8.7-2.65,7.48-11.2,0,0-3.13,7.53-6.96,6.97-3.83-.56-9.92-3.69-7.83-7.87s2.26-8.53,2.26-8.53Z"/>
      <path class="cls-1" d="M98.77,761.39c9.97,4.61,20.69,6.79,31.46,8.57,5.35.88,10.72,1.7,16.05,2.73s10.93,2.56,16.35,4.07,11.04,2.87,16.75,3.07c5.36.18,10.74-.57,15.94-1.85,10.61-2.61,20.51-7.36,30.66-11.26,12.3-4.73,25.12-7.75,37.97-10.56,3.14-.69,1.81-5.51-1.33-4.82-11.28,2.47-22.56,5.06-33.47,8.9-10.2,3.59-19.96,8.39-30.31,11.58-4.92,1.52-9.97,2.68-15.12,2.97-5.43.31-10.68-.47-15.93-1.8s-10.78-3.1-16.26-4.3-10.51-2-15.79-2.86c-11.68-1.89-23.63-3.73-34.45-8.74-1.22-.57-2.69-.35-3.42.9-.63,1.08-.33,2.85.9,3.42h0Z"/>
      <path class="cls-1" d="M271.13,817.71c-3.94-26.59-5.4-53.54-4.44-80.4.28-7.67.75-15.33,1.42-22.97.12-1.35-1.23-2.5-2.5-2.5-1.45,0-2.38,1.15-2.5,2.5-2.38,27.16-2.27,54.54.36,81.68.75,7.7,1.7,15.37,2.83,23.02.2,1.34,1.89,2.07,3.08,1.75,1.43-.39,1.94-1.73,1.75-3.08h0Z"/>
      <path class="cls-1" d="M658.91,723.36s-7.31-90.78-85.26-95.67c-77.95-4.9-10.79,10.07,24.36,43.82,35.15,33.75,60.9,51.85,60.9,51.85Z"/>
      <path class="cls-1" d="M570.87,712.86s40.71,29.29,62.99,56.44c22.27,27.14-2.78-45.29-27.84-48.92s4.52-20.11-35.15-7.52Z"/>
      <path class="cls-1" d="M632.81,735.45s24.36,24.1,18.79,45.68c0,0,21.58-37.02-5.92-50.7-27.49-13.68-12.88,5.02-12.88,5.02Z"/>
      <path class="cls-1" d="M687.8,656.55s-17.05,42.05-11.48,63.83c0,0,19.14-34.6,11.48-63.83Z"/>
      <path class="cls-1" d="M713.9,664.55s10.44,75.17-14.96,84.91c0,0,49.49-61.59,17.09-84.91-32.4-23.32-2.12,0-2.12,0Z"/>
      <path class="cls-1" d="M644.29,820.1s-24.36-5.57,4.88-30.97c29.23-25.4,9.05-42.11,22.97-56.72,0,0,.44,47.33-12.48,58.81-12.92,11.48,2.39,18.44,2.39,18.44,0,0,3.82,13.92-17.75,10.44Z"/>
      <path class="cls-1" d="M333.03,817.22c2.19-19.59,4.39-39.27,3.79-59.02-.59-19.55-4.68-38.71-6.8-58.1-1.07-9.74-1.45-19.5-1.1-29.29s1.29-19.62,2.41-29.38c2.15-18.85,4.95-37.67,5.26-56.67.29-17.8-1.53-35.97-7.92-52.7-.82-2.14-1.71-4.25-2.66-6.34-.56-1.23-2.34-1.53-3.42-.9-1.26.74-1.46,2.19-.9,3.42,7.3,16.06,9.77,33.84,9.92,51.35.15,18.68-2.35,37.21-4.56,55.72-2.32,19.41-4.24,38.94-2.63,58.49s5.82,38.21,7.08,57.51-.52,39.13-2.65,58.55c-.27,2.45-.54,4.91-.82,7.36-.15,1.34,1.26,2.5,2.5,2.5,1.48,0,2.35-1.15,2.5-2.5h0Z"/>
      <path class="cls-1" d="M383.59,602.24c-1.05,15.09-1.72,30.19-2.21,45.31-.49,14.89-.95,29.79-1.13,44.69-.09,7.34.03,14.69.83,21.99s2.31,14.39,3.5,21.58,1.83,14.41,1.96,21.67-.43,14.62-1.1,21.92c-1.4,15.28-2.5,31.66,5.58,45.44,1.63,2.77,5.95.26,4.32-2.52-6.9-11.77-6.39-25.91-5.25-39.03.63-7.29,1.39-14.56,1.46-21.89s-.39-14.35-1.34-21.46-2.52-14.36-3.6-21.58-1.37-14.46-1.39-21.71c-.03-14.7.55-29.42,1-44.11.51-16.78,1.2-33.55,2.37-50.29.09-1.35-1.22-2.5-2.5-2.5-1.43,0-2.41,1.15-2.5,2.5h0Z"/>
      <path class="cls-2" d="M672.14,811.75s30.78-22.97,40.84-63.68c10.06-40.71,7.88,14.62-40.84,20.53-48.72,5.92-4.18,43.15-2.09,43.15h2.09Z"/>
      <path class="cls-2" d="M476.98,504.65s47.54-42.63,28.79-82.82c0,0,28.48,54.98-18.63,106.31-47.11,51.33-10.16-23.49-10.16-23.49Z"/>
      <path class="cls-2" d="M481.37,354.02s-11.58,57.37-49.68,110.61c0,0,64.95-75.59,49.68-110.61Z"/>
      <path class="cls-2" d="M324.85,483.54s-11.55-46.43-31.18-61.03c-19.63-14.6-.91-.68-.91-.68h-12.64l44.72,61.71Z"/>
      <path class="cls-1" d="M286.72,488.19c-3.2-5.01-7-9.46-11.14-13.71-2.08-2.14-3.81-4.36-5.26-6.97s-2.65-5.11-3.83-7.73c-2.41-5.37-4.35-10.96-5.87-16.65s-2.47-11.97-3.44-18.04c-1.02-6.39-2.52-12.84-6.84-17.87-.88-1.02-2.63-.9-3.54,0-1.02,1.02-.88,2.51,0,3.54,3.57,4.16,4.62,9.93,5.48,15.18.97,5.92,1.78,11.82,3.28,17.63s3.49,11.52,5.87,17.05c2.25,5.24,4.7,10.69,8.43,15.05,2.16,2.53,4.63,4.76,6.8,7.29s4,5.04,5.73,7.76,6.06.2,4.32-2.52h0Z"/>
      <path class="cls-1" d="M518.78,433.03s37.91,32.81,18.73,90.58c-19.18,57.77,24.31-13.15,17.35-39.64-6.96-26.48,81.19,123.15,79.92,149.95s32.83,22.62,24.13,0c-8.7-22.62-109.96-158.64-104.05-174.32,5.92-15.68-36.09-26.57-36.09-26.57Z"/>
      <path class="cls-1" d="M556.6,444.97s135.37,54.63,152.07,77.95l-152.07-77.95Z"/>
      <path class="cls-1" d="M562.87,458.54s.64.37,1.83,1.06c14.81,8.65,114.31,68.19,117.7,107.16,0,0,46.11-22.27-16.53-57.07"/>
      <path class="cls-1" d="M683.62,582.77s-21.58,69.4-18.44,122.57c3.13,53.17-2.44,36.44-2.44,36.44l20.88-159.01Z"/>
      <path class="cls-1" d="M383.63,603.01s8.01-15.46,5.33-26.65c0,0,.66,39.02-1.01,42.11l-4.32-15.46Z"/>
      <path class="cls-1" d="M390.99,812.83l8.32,16.86s-9.87.37-13.4-18.4,4.05,1.84,4.56,1.69l.52-.15Z"/>
      <path class="cls-1" d="M262.85,719.93l1.95-13.9s6.24,3.91.53,16.98c-5.7,13.07-1.72-2.83-2.1-2.96l-.38-.13Z"/>
      <path class="cls-1" d="M328.87,812.59s-2.76,6.46-1.99,12.2c0,0,9.5-1.71,10.88,1.38,0,0-6.24-11.21-3.98-18.5l-4.91,4.91Z"/>
      <path class="cls-1" d="M265.72,810.38s-2.35,6.46-1.69,12.2c0,0,8.09-1.71,9.27,1.38,0,0-5.31-11.21-3.39-18.5l-4.19,4.91Z"/>
    </g>
  </g>
</svg>