<?xml version="1.0" encoding="UTF-8"?>
<svg id="Layer_2" data-name="Layer 2" xmlns="http://www.w3.org/2000/svg" viewBox="0 0 151.51 155.36">
  <defs>
    <style>
      .cls-1 {
        fill: #4d76bb;
      }

      .cls-2 {
        fill: #29a34b;
      }

      .cls-3 {
        fill: #efb61d;
      }

      .cls-4 {
        fill: #e63e2d;
      }
    </style>
  </defs>
  <g id="Layer_2-2" data-name="Layer 2">
    <path class="cls-4" d="M106.75,41.75l21.09-21.2S108.4-3.08,72.51.34C28.41,4.55,11.12,37,8.02,41.75l24.63,20.43s9.07-25.51,35.28-30.97c20.15-4.2,38.15,10.1,38.15,10.1l.66.44Z"/>
    <path class="cls-1" d="M76.88,63.12v29.87h42.07s-2.21,16.12-15.02,23.8l24.24,19.33s30.92-26.67,21.59-72.99h-72.88Z"/>
    <path class="cls-2" d="M32.87,92.33l-24.85,19.77s11.49,29.15,47.71,39.87c23.52,6.96,49.47,3.98,72.44-15.85l-24.24-19.33s-23.13,15.52-44.23,4.36c-18.77-9.93-26.83-28.82-26.83-28.82Z"/>
    <path class="cls-3" d="M9.67,39.07s-21.76,30.63,0,76.45l23.45-22.65s-5.99-13.36-.47-30.69l-22.98-23.11Z"/>
  </g>
</svg>