<?xml version="1.0" encoding="UTF-8"?>
<svg id="Layer_2" data-name="Layer 2" xmlns="http://www.w3.org/2000/svg" viewBox="0 0 639.87 832.99">
  <defs>
    <style>
      .cls-1 {
        fill: #231f20;
      }

      .cls-2 {
        fill: #fff;
      }
    </style>
  </defs>
  <g id="Layer_2-2" data-name="Layer 2">
    <g>
      <path class="cls-1" d="M263.79,201.02s-2.03,12.57,9.19,15.01,12.17-11.9,10.95-13.65-9.61-5.27-20.29-2.16.14.81.14.81Z"/>
      <path class="cls-1" d="M364.04,206.09s-2.29,14.29,7.04,15.1,15.97-7.73,12.18-14.48-19.22-.62-19.22-.62Z"/>
      <circle class="cls-2" cx="377.42" cy="208.36" r="1.66"/>
      <circle class="cls-2" cx="376.71" cy="210.93" r=".59"/>
      <circle class="cls-2" cx="277.4" cy="204.73" r="2.03"/>
      <circle class="cls-2" cx="276.53" cy="207.86" r=".73"/>
      <path class="cls-1" d="M346.83,194.56s23.19-15.24,44.17-18.77c0,0,22.09,9.28,22.09,12.15s-13.03-5.96-23.19-5.3-23.63,13.69-43.07,11.93Z"/>
      <path class="cls-1" d="M290.07,191.91s17.23,1.55,10.38-5.08-35.78-11.93-35.78-11.93l-13.47-2.43s-14.13,3.26-19.88,12.78c0,0,15.46-8.36,32.69-4.39s24.96,11.2,24.96,11.2l1.1-.16Z"/>
      <path class="cls-1" d="M344.69,221.24s8.29-15.5,31.75-19.48c0,0,21.43-.6,30.36,11.58,0,0,2.3,3.38,4.19,4.06s-11.64-8.52-18.27-8.66-21.51-8.01-48.03,12.5Z"/>
      <path class="cls-1" d="M302.58,217.65s-9.73-20.55-31.9-21.22-23.52,10-30.01,12.98c0,0,13.79-9.06,29.33-8.52s32.58,16.76,32.58,16.76Z"/>
      <path class="cls-1" d="M382.71,220.38s12.58-4.6,13.53-5.95-7.45-7.72-7.45-7.72c0,0,14.62,4.47,14.08,6.9s-15.59,7.24-20.16,6.77Z"/>
      <path class="cls-1" d="M248.38,207.86s3.51,7.76,25.82,10.46c0,0-27.17-6.24-22.58-13.6,0,0-5.63.46-3.24,3.14Z"/>
      <path class="cls-1" d="M317.57,314.49s2.65,2.65,1.55,5.52,1.55-5.63,2.87-5.52h-4.42Z"/>
      <path class="cls-1" d="M344.95,313.16s15.13-1.66,18.22-7.95c0,0,1.55,10.38-9.11,11.04s-9.11-3.09-9.11-3.09Z"/>
      <path class="cls-1" d="M270.96,302.23s6.96,9.94,15.02,9.61,9.28-2.98,9.28-2.98c0,0-9.61-5.74-24.29-6.63Z"/>
      <path class="cls-1" d="M323.36,9.48s-127.53-41.08-160.51,172.79c-29.42,190.8,4.04,196.98-72.87,203.55-4.58.39-1.47.71-1.47.71,0,0-2.36,14.6,37.69,12.83,0,0-10.01,5.89-21.5,5.89s61.45,41.82,82.11,9.42,10.06,4.71,2.99,10.31,27.98-12.66,26.8-27.09,22.38,20.02,35.93,24.44-69.89-174.97-12.96-278.87c11.78-21.5,53.89-73.91,69.79-77.15s13.99-56.83,13.99-56.83Z"/>
      <path class="cls-1" d="M325.41,8.89s35.77-27.98,76.71,15.31,82.16,136.93,75.98,247.66,10.6,111.31,26.8,107.48-58.31,37.69-41.52-49.18c0,0-12.37,73.03,45.64,73.62,56.05.57-41.57,20.93-48.77,8.76-.25-.43-.39-.89-.41-1.4-.59-15.02-39.7,17.96-69.76-22.09-30.07-40.05,30.89-71.26,31.48-91.29s14.58-108.07-8.47-149.6-56.9-78.33-87.67-78.04,0-61.25,0-61.25Z"/>
      <path class="cls-1" d="M301.48,310.07s1.47,8.69,3.9,10.23c0,0-2.58-8.02-1.95-9.53s-1.95-.7-1.95-.7Z"/>
      <path class="cls-1" d="M296.25,309.26s2.13,9.28,4.27,10.31.29-.44.29-.44c0,0-5.52-8.76-4.56-9.87Z"/>
      <path class="cls-1" d="M330.04,315.08s1.77,6.99,0,8.98c0,0,3.24-5.37,0-8.98Z"/>
      <path class="cls-1" d="M311.2,316.33s-.74,4.78,1.1,7.28c0,0-1.62-6.17-1.1-7.28Z"/>
      <path class="cls-1" d="M346.83,281.25s-6.4-2.76-15.35.55-10.61,7.62-16.46,6.63,28.27-.11,31.8-7.18Z"/>
      <path class="cls-1" d="M308.18,282.9s-.01-.21-.11-.55c-.48-1.66-2.99-6.48-16.01-5.75-15.68.88,4.08-18.44,4.08-18.44,0,0-20.21,9.5-26.72,23.41s-4.42,24.55-2.32,27.68c0,0-1.21-26.58,14.02-32.87s-.11-.55-.11-.55c0,0,17.97,9.64,27.15,6.86"/>
      <path class="cls-1" d="M343.74,250.22s10.05,16.34,12.81,20.65-7.51,10.27-7.51,10.27c0,0,7.18-8.17,3.31-12.04s-10.27-9.5-8.61-19.77"/>
      <path class="cls-1" d="M282.01,309.26s14.39,19.58,23.37,24.29,20.02,7.95,32.83,1.03,21.35-21.64,21.35-21.64c0,0-26.5,11.78-35.63,11.12s-17.59-3.75-41.93-14.8Z"/>
      <path class="cls-2" d="M309.95,326.41s6.4,3.75,14.25,3.2,11.82-3.98,11.82-3.98c0,0-14.58,3.31-26.06,0"/>
      <path class="cls-1" d="M254.66,219.89s16.49,11.19,37.69,3.75c0,0-6.4,6.18-37.69-3.75Z"/>
      <path class="cls-1" d="M369.58,232.33s26.1,3.75,28.73-6.85c0,0-5.98,5.74-28.73,6.85Z"/>
      <path class="cls-1" d="M226.24,248.89s-6.4,39.75,31.36,37.33c0,0-36.44,14.58-31.36-37.33Z"/>
      <path class="cls-1" d="M388.79,292.18s30.92-11.26,29.15-41.74c0,0,4.64,41.74-29.15,41.74Z"/>
      <path class="cls-1" d="M361.41,303.67s4.2,2.29,2.43,7.11c0,0,6.4-5.34,3.09-8.54s-5.52,1.44-5.52,1.44Z"/>
      <path class="cls-1" d="M318.12,308.82s13.25-2.06,22.16-.74,21.13-2.15,21.13-2.15c0,0-4.27,10.46-37.77,7.74s-41.63-7.44-41.63-7.44c0,0,29.63-3.39,36.11,2.58Z"/>
      <path class="cls-1" d="M355.44,355.2s-17.08,23.56-30.63,23.12-.74,0-.74,0c0,0,21.79,3.82,31.36-23.12Z"/>
      <path class="cls-1" d="M372.52,295.27s-.88,28.86-12.96,40.34c0,0,18.7-21.94,12.96-40.34Z"/>
      <path class="cls-1" d="M425.97,452.38l25.62-13.55-10.9-22.41-50.62-29.42-39.83,237.64s-10.57,129.57-28.49,154.31c-17.92,24.74,38.49,16.12,38.49,16.12l108.72-320.61-42.99-22.09Z"/>
      <path class="cls-1" d="M197.16,455.62l-29.74-15.02,4.12-17.67,56.25-32.69,9.72,32.69s65.15,333.2,62.72,362.65l-38.21-11.48-101.37-300.52,38.28-18.26-1.77.29Z"/>
      <path class="cls-1" d="M315.91,514.14s-53.45-52.84-56.54-87.16-7.29-2.29-7.29-2.29c0,0,26.06,68.02,63.83,90.99"/>
      <path class="cls-1" d="M382.17,392.23s-46.38,104.25-64.6,118.16c0,0,61.07-87.68,64.6-118.16Z"/>
      <path class="cls-1" d="M315.91,527.76s39.09,23.85,36.15,43.58c0,0-9.45-45.64-37.7-55.66l1.56,12.07Z"/>
      <path class="cls-1" d="M300.23,526s-7.68,41.52-25.19,52.12,0-1.47,0-1.47c0,0,25.9-36.52,27.02-45.35s19.93,22.97,19.65,53.6c0,0,2.08-41.23-21.48-58.9Z"/>
      <path class="cls-1" d="M294.51,680.3s-6.06-96.88-14.3-102.18l6.4-10.6,7.9,112.79Z"/>
      <path class="cls-1" d="M364.64,446.19s-4.3,53.6-14.78,65.96c0,0,7.64-5.01,11.54-23.26s-4.39,50.06-4.39,50.06c0,0,24.63-61.25,7.62-92.76Z"/>
      <path class="cls-1" d="M107.93,463.4s-8.19,8.93,41.29,192.58c.17.65.39,1.28.52,1.94,8.69,41.96,11.78,62.13,11.78,62.13l17.67,7.66s42.7-149.92-71.26-264.31Z"/>
      <path class="cls-1" d="M529.33,526s-76.86,70.09-73.62,136.93l13.25-2.94,60.37-133.99Z"/>
      <path class="cls-1" d="M8.11,523.43s-6.77,47.04,12.07,51.16c0,0,85.1,38.58,91.29,49.33,0,0-91.58-48.74-90.4-73.18s-12.96-27.31-12.96-27.31Z"/>
      <path class="cls-1" d="M29.01,446.19s63.31,29.15,111.61,259.73l4.12,3.24S92.03,446.78,29.01,446.19Z"/>
      <path class="cls-1" d="M572.33,456.21s-31.21,37.4-38.28,150.77c0,0-23.26,53.6-17.08,85.4,6.18,31.8-7.36,70.38-11.19,74.8s3.83-4.42,3.83-4.42c0,0,22.38-63.9,22.09-101.01s33.28-192.29,40.64-205.55Z"/>
      <path class="cls-1" d="M606.78,604.62s-40.93-4.38-79.21,67.9c0,0,52.42-52.58,79.21-67.9Z"/>
      <path class="cls-1" d="M623.86,584.89s7.07,18.55-25.03,44.76-42.7,32.69-48,54.48c0,0,37.4-50.89,58.9-52.98,21.5-2.09,14.13-46.26,14.13-46.26Z"/>
      <path class="cls-1" d="M625.08,629.36s-1.22,28.56-46.86,49.47-40.64,38.97-40.64,38.97c0,0,49.47-48.98,81.87-58.4s5.63-31.51,5.63-31.51v1.47Z"/>
      <path class="cls-1" d="M562.31,523.43s7.66-18.63,28.86-13.04c21.2,5.6,17.08,24.44,17.08,24.44,0,0-26.8-34.29-44.17-11.4-17.37,22.89-1.77,0-1.77,0Z"/>
      <path class="cls-1" d="M564.37,556.33s-18.26,74.21-12.37,70.67,33.57-72.44,65.67-50.21c0,0-1.77-31.36-10.9-31.66-9.13-.29-24.44-10.01-42.4,11.19Z"/>
      <path class="cls-1" d="M317.57,55.22s39.72,117.31,87.16,111.77c0,0-62.54-11.81-57.9-104.93s-29.26-6.83-29.26-6.83Z"/>
      <path class="cls-1" d="M323.79,52.07s-44.67,89.6-98.03,85.36c0,0,70.34-9.02,65.12-80.14s32.91-5.22,32.91-5.22Z"/>
      <path class="cls-1" d="M326.04,54.15s28.88,114.81-.71,123.46c0,0,30.59-28.27-13.03-109.08-43.62-80.81,13.74-14.38,13.74-14.38Z"/>
      <path class="cls-1" d="M468.96,444.13s.62-.29,1.64-.83c5.93-3.18,25.16-14.95,9.56-26.95,0,0,85.69,33.67,88.63,39.85s-1.62,0-1.62,0c0,0-48.15-25.03-73.18-18.55s-26.5,6.77-26.5,6.77"/>
      <path class="cls-1" d="M37.85,442.07s65.3-27.98,69.5-28.86,42.11,12.66,62.13,7.07-43.29,8.44-6.18,38.67c37.1,30.23-6.77,23.75-26.5,6.67s-6.18-49.47-98.94-23.56Z"/>
      <path class="cls-1" d="M24.6,449.14s-29.15,13.84,4.42,64.79c0,0-40.93-22.09-4.42-64.79Z"/>
      <path class="cls-1" d="M16.35,577.68s-19.14,28.42,7.07,46.23c26.21,17.82,70.97,17.82,70.97,17.82,0,0-102.18-10.01-78.04-64.05Z"/>
      <path class="cls-1" d="M89.38,619.05s-3.24,15.02,15.02,33.87l25.14,4.47s-20.13-1.52-40.16-38.33Z"/>
      <path class="cls-1" d="M17.53,579.59s76.56,27.09,104.83,63.61c0,0-76.27-54.18-104.83-63.61Z"/>
      <path class="cls-1" d="M19.23,658.81s-23.5,13.25-12.3,12.07,60.67-15.9,83.64-12.07c0,0-46.53,2.09-67.44,5.76-20.91,3.67-3.9-5.76-3.9-5.76Z"/>
      <path class="cls-1" d="M113.53,672.94c17.08.88,24.74,29.74,24.74,29.74,0,0-26.5,18.55-35.34-1.77-8.83-20.32,8.54-27.98,8.54-27.98h2.06Z"/>
      <path class="cls-1" d="M3.9,679.13s-10.53,57.42,3.02,76.56l63.02-27.98-57.72,19.14s-9.01-10.31-8.33-67.73Z"/>
      <path class="cls-1" d="M355.44,366.85s39.09-27.85,44.39-41.21l-44.39,41.21Z"/>
      <path class="cls-1" d="M222.71,292.18s38.72,74.21,78.77,79.07c0,0-54.04-13.69-78.77-79.07Z"/>
      <path class="cls-1" d="M421.7,248.89s-9.99,71.57-36.8,102.78,65.81-39.82,65.81-39.82c0,0-22.23-71.23-20.17-78.87s-8.83,15.92-8.83,15.92Z"/>
      <path class="cls-1" d="M241.68,333.41s19.24,48.29,59.8,50.06c0,0-34.66,24.74-14.13,48,20.53,23.26-17.46-.74-37.48-39.24s-8.19-58.82-8.19-58.82Z"/>
      <path class="cls-1" d="M381.65,203.84s5.96-1.4,6.26-3.98c0,0,.37,3.46-1.84,3.98s-4.42,0-4.42,0Z"/>
      <path class="cls-1" d="M388.42,205.16s6.18,1.33,8.25-4.27c0,0-2.5,4.12-8.25,4.27Z"/>
      <path class="cls-1" d="M391.22,206.71s10.38-1.47,10.67-3.83c0,0-1.91,5.51-4.2,5.33s-6.48-1.5-6.48-1.5Z"/>
      <path class="cls-1" d="M399.91,209.51s4.79,1.03,6.4-1.14c0,0,2.13,2.39-6.4,1.14Z"/>
      <path class="cls-1" d="M272.62,197.65s-8.25-2.36-6.85-6.18c0,0-1.1,4.2,2.8,5.52s-7.58,1.4-7.58,1.4c0,0-3.17-1.03-3.17-3.46,0,0-.86,3.89,1.11,4.04s-2.59.89-2.59.89c0,0-6.63,2.19-9.28-.89,0,0-1.84,3.1,8.02,1.92,0,0-5.08,5.02-16.56,3.17,0,0-.74,4.79,16.56-2.1s17.52-4.31,17.52-4.31Z"/>
      <path class="cls-1" d="M243.69,764.38s-19.44-61.18-38.65-55.21-28.27,20.32-28.27,20.32l66.92,34.9Z"/>
      <path class="cls-1" d="M144.74,741.63s-.28-.18-.76-.51c-2.78-1.92-12.17-8.95-10.29-15.18,0,0-11.48,9.72-28.71,1.77,0,0-27.61,3.75-32.91-4.86-5.3-8.61,1.1-12.43,1.1-12.43,0,0-11.48,5.3-1.99,15.6,0,0,44.54,8.97,40.27,12.95s-57.72,39.09-57.72,39.09l33.13-17.89s19.88-18.61,32.47-15.93c12.59,2.68,25.4-2.62,25.4-2.62Z"/>
      <path class="cls-1" d="M52,789.33s14.34,11.48,34.88-4.64c0,0,20.17,4.2,35.48-15.68,0,0-7.21,15.68-30.85,18.99,0,0-35.75,21.2-39.52,1.33Z"/>
      <path class="cls-1" d="M165.73,762.61l-36.19,3.98s12.11,3.09,36.19-3.98Z"/>
      <path class="cls-1" d="M164.4,787.13s-10.82,9.06-32.25,10.71c0,0-16.2,12.04-31.73,14.91,0,0-16.05,12.37-30.48,9.28,0,0,1.69,9.28,34.82-7.07,0,0,26.58-9.49,28.71-13.47l15.24-1.77-9.28,6.17,23.85-9.36s8.61-11.39,1.1-9.4Z"/>
      <path class="cls-1" d="M462.34,803.4s17.52-27.09,43.44-36.22c25.91-9.13-48.29,31.32-54.33,29.35-6.04-1.97-8.1-37.45.88-52.91,0,0-20.02,53.6-36.37,53.74-16.34.15-.74-.83-.74-.83l-56.54-2.56,55.8,6.04,47.85,3.39Z"/>
      <path class="cls-1" d="M633.73,686.63s-21.35,6.48-30.77,25.62l2.5,2.06s21.35-28.42,29.01-27.68"/>
      <path class="cls-1" d="M600.6,676.77s-58.75,37.84-64.79,48.59l7.36.74s41.37-38.43,57.42-49.33Z"/>
      <path class="cls-1" d="M566.29,743.03s9.72-2.32,10.01-6.46c0,0,32.52-1.62,32.69-14.3,0,0,5.6,12.7-23.71,14.3,0,0-9.28,7.64-18.99,6.46Z"/>
      <polygon class="cls-1" points="519.32 763.35 549.65 738.9 549.65 743.15 519.32 763.35"/>
      <path class="cls-1" d="M568.2,760.7s13.55,9.72,31.8,8.54c0,0,30.44,13.69,38.84-3.18.17-.33.33-.68.33-.68,0,0,2.8,5.78-2.8,8.13s-10.16,7.36-36.66-2.21c0,0-35.19-7.36-39.46-5.6s7.95-5.01,7.95-5.01Z"/>
      <path class="cls-1" d="M635.46,708.13s-14.57,14.58-26.04,16.49c0,0,16.8,4.27,26.66-6.18l-.62-10.31Z"/>
      <path class="cls-1" d="M578.51,792.5s3.24,7.36,14.13,9.42c0,0-13.55-7.51-11.48-9.42h-2.65Z"/>
      <path class="cls-1" d="M565.11,804.13s11.19,13.69,29.45,4.71c18.26-8.98,8.39-12.32,8.39-12.32,0,0,8.69,11.87-4.56,13.05-13.25,1.18-21.35,8.83-33.28-5.45Z"/>
      <path class="cls-1" d="M616.79,753.78s-4.12,6.04,3.83,9.57c0,0-4.73-2.21-2.95-8.54"/>
      <path class="cls-1" d="M604.87,779.98s8.76,9.28,20.21,10.6c0,0-14.91-5.15-14.32-8.69s-5.89-1.91-5.89-1.91Z"/>
      <path class="cls-1" d="M587.85,715.35s-5.07,9.13,7.15,7.95c0,0-15.02,4.42-11.78-7.95h4.63Z"/>
      <polygon class="cls-1" points="517.7 776.93 554.95 761.43 568.2 761.43 517.7 776.93"/>
      <path class="cls-1" d="M507.84,787.79l53.01-4.42s24.59,5.3,35.63,7.21c0,0-28.46-3.83-37.13-3.61-8.67.22-51.51.81-51.51.81Z"/>
      <path class="cls-1" d="M67.3,775.86s7.07,11.48-4.86,13.99c0,0,14.58-3.39,4.86-13.99Z"/>
      <path class="cls-1" d="M75.98,807.37s7.36,6.18,2.21,8.83c0,0,4.56-7.66-2.21-8.83Z"/>
      <path class="cls-1" d="M89.82,713.14s-7.66,6.04-16.2,6.63c0,0,14.28-1.33,16.2-6.63Z"/>
      <path class="cls-1" d="M109.35,824.64s-.38,6.73-7.75,8.35c0,0,10.63-2.85,7.75-8.35Z"/>
    </g>
  </g>
</svg>