<?xml version="1.0" encoding="UTF-8"?>
<svg id="Layer_2" data-name="Layer 2" xmlns="http://www.w3.org/2000/svg" viewBox="0 0 744.64 801.51">
  <defs>
    <style>
      .cls-1 {
        fill: #231f20;
      }

      .cls-2 {
        fill: #fff;
      }
    </style>
  </defs>
  <g id="Layer_2-2" data-name="Layer 2">
    <g>
      <g>
        <path class="cls-1" d="M327.75,459.14s-49.87-43.05-64.05-104.62c-13.77-59.78-7.73-59.93-7.73-59.93,0,0,0-21.6-4.23-26.65-3.03-3.62-12.92-159.02,71-154.31s43.72,13.84,108.58,3.83c64.87-10.01,61.11,146.28,61.11,146.28,0,0-8.32,96.66,21.13,129.35l-9.72,61.55s108.37,107.19,184.05,135.17-5.89-25.62-5.89-25.62c0,0,12.66-21.5,1.47-29.15,0,0,19.44-28.86,34.16-17.08s-7.95,18.85-7.95,18.85c0,0,33.57-3.83,8.83-27.09-24.74-23.26-84.22-19.87-79.51-50.57s29.45-8.62,29.45-8.62c0,0,24.15,10.31,26.8,50.65s22.67-13.55,7.66-40.34c-15.02-26.8-56.25-56.25-60.37-115.14s56.83,70.67,55.95,98.06,3.83-98.36-48.59-127.51c-52.42-29.15-39.46-197.6-113.67-229.4-74.21-31.8-80.65-133.4-191.39-61.84-110.74,71.56,0,5.37,0,5.37,0,0-41.54-13.17-91.31,58.46s-37.4,139.02-93.06,192.64c-55.66,53.62,0,48.32,0,48.32,0,0,28.27,57.42,15.02,86.28,0,0,24.15-12.46,24.44-38.62.29-26.16,17.96,68.36-14.72,84.56s13.4-14.87,20.47-14.28c7.07.59-6.63,5.74-17.52,24.59s-38.87,50.65,1.47,62.43c40.34,11.78,11.48-.59,11.48-.59,0,0-24.15-3.24-16.2-19.14,7.95-15.9,18.85,13.55,31.8,17.08s80.02-30.04,80.02-30.04l30.99-42.91Z"/>
        <path class="cls-1" d="M434.18,256.42s2.1,8.18.4,11.79c-1.69,3.61.13.64.13.64,0,0-3.52,7.06-21.1,3.77,0,0-4.76-5.29-4.36-13.23,0,0,10-7.14,24.92-2.97Z"/>
        <ellipse class="cls-2" cx="418.01" cy="261.69" rx="3.24" ry="1.25"/>
        <path class="cls-1" d="M456.19,263.44s-19.48-26.71-50.03-6.88c0,0-6.7,3.98-10.6,8.17s-7.21,6.7-7.95,6.77,2.87,2.87,5.52.59,11.67-13.25,25.51-13.91c13.84-.66,23.04,1.58,37.55,5.26Z"/>
        <path class="cls-1" d="M386.33,266.34s-.49-.67-.38-.89c1.24-2.62,11.27-19.13,28.12-18.86,18.26.29,21.88-3.61,35.89,9.64,1.54,1.46,2.01,2.51,2.01,2.51,0,0,1.38.14-.65,2.35s-11.17-10.23-19.99-9.79-16.82-1.51-21.45,1.58-17.9,13.97-23.54,13.45Z"/>
        <path class="cls-1" d="M386.92,245.71s-11.02,4.12-14.33,3.02,15.75-18.33,15.75-18.33c0,0,23.12-12.44,43.8-7.95,20.69,4.49,40.49,15.31,44.76,20.39s0,.37,0,.37c0,0-12.87-1.71-37.55-10.38-15.09-5.3-42.63,6.99-42.63,6.99l-9.81,5.89Z"/>
        <path class="cls-1" d="M384.59,351.5s-12.66,6.33-14.13,5.23,7.66-8.54,10.97-8.02,12.66,1.4,15.02-4.27,3.53-3.98,2.87-13.4c0,0,2.94,7.73.74,12.52s-8.17,7.21-9.28,7.29.37.15.37.15l-6.55.52Z"/>
        <path class="cls-1" d="M378.11,365.49s-9.28,6.4-15.68,5.96-9.94-2.97-9.94-2.97l25.62-2.99Z"/>
        <path class="cls-1" d="M426.92,372.06v12.82s11.1-11.5,13.14-15.36l-13.14,2.54Z"/>
        <path class="cls-1" d="M339.91,385.37s-.67,7.66.44,12.15c.89,3.6-1.73,7.66-1.73,7.66,0,0-24.22-14.1-19.58-19.14,1.69-1.84,14.14-4.09,20.88-.66Z"/>
        <path class="cls-1" d="M368.5,396.3s0-.29.01-.77c.09-2.65.86-11.18,6.83-10.71,7.07.55,10.23,10.05,10.23,10.05,0,0-2.28-11.25,2.36-11.86s8.61-1.83,11.6,5.68c0,0-2.32-10.38,2.1-10.38s8.5-2.41,9.61,4.7c0,0,.88-8.29,3.31-7.6s-27.17,7.55-40.31,7.6c-13.14.05-5.74,13.3-5.74,13.3Z"/>
        <path class="cls-1" d="M340.12,393.21s.03-.34.07-.88c.14-2.15.37-7.49-.95-7.84h9.06s9.94-.73,17.01,1.35,2.66,9.37,2.66,9.37c0,0-3.43-5.98-6.75-7.51-1.44-.66-4.82-2.65-6.94.33s-1.79,9.5-1.79,9.5c0,0-.89-9.54-5.19-10.49-5.41-1.19-7.18,6.18-7.18,6.18Z"/>
        <path class="cls-1" d="M432,383s-16.05,30.86-40.34,41.61-44.47,3.53-52.42-4.56-20.21-29.6-20.21-29.6c0,0,12.33,17.53,35.25,20.47,37.97,4.86,37.67-8.27,77.72-27.91Z"/>
        <path class="cls-2" d="M385.24,414.15s-18.21,10.05-25.62,4.71c-2.92-2.1,0-.74,0-.74l25.62-3.98Z"/>
        <path class="cls-1" d="M368.12,406.51s1.16,3.09,7.4,2.98-13.53.33-13.53.33c0,0,6.52-.22,6.13-3.31Z"/>
        <path class="cls-1" d="M352.49,405.69s.36,2.39,4.31,3.42c5.25,1.38-7.4-.94-7.4-.94,0,0,1.87.2,3.03-2.36"/>
        <path class="cls-1" d="M387.33,399.12s.6,5.14,4.97,4.86c0,0-2.48,2.76-6.18,2.93,0,0,1.82-.17,1.21-7.79Z"/>
        <path class="cls-1" d="M400.14,391.58s.05.13.14.35c.49,1.1,2.22,4.39,5.27,3.65,0,0-3.53,3.87-5.41,3.87l.05-7.73"/>
        <path class="cls-1" d="M426.92,374.54s1.39,9.34.39,11.22-13.67,7.1-13.72,6.55,3.99-16.96,3.99-16.96l9-3.24.33,2.42Z"/>
        <path class="cls-1" d="M470.28,350.1s6.48,12.96-1.47,32.1c-7.95,19.14-16.34,34.6-15.61,39.02,0,0,.24-31.4,9.76-47.01s7.32-24.11,7.32-24.11Z"/>
        <path class="cls-1" d="M413.01,331.85l-10.16-5.6-.88,11.48s-.15-5.6,4.86-4.71,27.98,22.82,37.69,25.03,5.01,14.72,5.01,14.72c0,0-1.33,18.47-3.53,18.8s11.73-11.16,6.44-32.67c-.94-3.83-39.42-27.07-39.42-27.07Z"/>
        <path class="cls-1" d="M317.5,276.36s1.12,5.81-1.03,8.9-20.63,4.03-20.63,4.03c0,0-4.9-6.09-3.95-12.93.95-6.84,13.67-6.84,25.53-.47"/>
        <ellipse class="cls-2" cx="299.57" cy="274.99" rx="3.45" ry="1.33" transform="translate(-46.59 61.6) rotate(-10.9)"/>
        <path class="cls-1" d="M324.22,252.34l-13.55-10.9s-33.72-2.8-42.7,0-14.72,10.9-14.72,10.9l-.59,9.35s18.7-15.83,35.78-14.21c17.08,1.62,35.78,4.86,35.78,4.86Z"/>
        <path class="cls-1" d="M330.36,280.29s-19.33-19.58-36.29-16.52-21.97,6.81-26.51,16.52c0,0,8.14-10.18,21.92-11.12s19.42-2.66,40.87,11.12Z"/>
        <path class="cls-1" d="M262.1,284.54s4.93-4.58,20.97-13.98c12.84-7.52,46.86,9.73,46.86,9.73,0,0-25.47-8.11-32.77-5.29s-16.58,15.96-35.06,9.54Z"/>
        <path class="cls-1" d="M287.22,288.14s-11.76-2.99-12.12-4.16-4.71,2.79-4.71,2.79c0,0,4.77,1.13,16.83,1.37Z"/>
        <path class="cls-1" d="M321.42,331.04l-21.06,36.29s-9.42,14.58,4.27,30.18.74,0,.74,0l14.58,23.71s-13.84-22.97-13.99-26.5-11.63-11.63,15.46-63.68Z"/>
        <path class="cls-1" d="M275.96,364.83s6.44,28.27,20.8,36.22c14.36,7.95,28.2,44.17,29.52,47.85,0,0-17.82-35.93-29.52-43.88-11.71-7.95-20.8-40.2-20.8-40.2Z"/>
        <path class="cls-2" d="M327.75,57.54s-26.06-7.36-38.28,8.69c0,0,25.03-12.37,38.28-8.69Z"/>
        <path class="cls-2" d="M318.04,98.77s-15.9-19.88-35.19-19.88c-19.29,0-19.73,9.13-19.73,9.13,0,0,22.67-17.96,54.92,10.75Z"/>
        <path class="cls-2" d="M376.05,50.18s11.04-16.64,54.04-7.21c0,0-42.26-5.45-54.04,7.21Z"/>
        <path class="cls-2" d="M342.18,34.13s4.71,7.07,1.62,19.73c0,0-5.3-10.31-1.62-19.73Z"/>
        <path class="cls-2" d="M359.41,56.8s10.75-27.09,45.94-26.36c0,0-43.44-2.94-45.94,26.36Z"/>
        <path class="cls-2" d="M268.56,108.04s-32.39,8.83-31.66,36.81c0,0-13.84-26.21,31.66-36.07v-.74Z"/>
        <path class="cls-2" d="M467.04,100.53s53.26,56.25,43.05,132.22c-10.21,75.98,7.75,88.49,7.75,88.49,0,0-33.58-73.03-20.66-140.17,12.91-67.14-30.13-81.28-30.13-81.28v.74Z"/>
        <path class="cls-2" d="M509.74,133.37s28.56,33.28,47.12,111.02c18.55,77.74-1.47,100.54,33.87,138.62,0,0-52.71-59.74-43.88-136.72s-37.1-112.91-37.1-112.91Z"/>
        <path class="cls-2" d="M613.55,321.24s20.76,43.58,12.37,105.42,56.1,79.95,56.1,79.95c0,0-76.42-12.81-64.49-81.72,11.93-68.91.88-74.36-3.98-103.66Z"/>
        <path class="cls-2" d="M230.13,199.62s11.93,62.28-1.77,134.72,24.29,117.5,24.29,117.5c0,0-43.73-28.71-32.69-142.67l11.04-113.96-.88,4.42Z"/>
        <path class="cls-1" d="M438.74,368.48s-66.26,2.64-73.44,8.16c0,0-34.9-5.06-44.83,6.36,0,0,34.39,1.9,45.96,1.36s50.89-8.8,72.31-15.88Z"/>
        <path class="cls-1" d="M369.32,253.5s-16.24,12.67-5.64,25.78c10.6,13.1,7.21,13.55,7.21,13.55,0,0-8.16-21.84-1.54-25.73s4.27-23.32-.04-13.59Z"/>
        <path class="cls-1" d="M396.88,283.99s28.49,9.64,46.53-4.49c18.04-14.13.44-7.88,18.85-19.73,0,0-10.16,2.3-17.01,14.22-6.85,11.92-35.19,12.36-48.37,10Z"/>
        <path class="cls-1" d="M318.48,290.4s-13.14,11.82-30.04,10.93-13.69-4.2-13.69-4.2c0,0,.88,7.73,19.21,6.29s24.52-13.03,24.52-13.03Z"/>
        <path class="cls-1" d="M450.91,140.12s26.42,26.45,27.89,35.29c0,0,18.97-6.13-5.7-39.41-24.66-33.28-22.2,4.12-22.2,4.12Z"/>
        <path class="cls-1" d="M326.28,121.88c23.26,1.47-8.31-3.24-16.97,7.36-8.65,10.6-37.22,31.21-36.63,38.28.59,7.07-2.94-31.51,26.21-41.08,29.15-9.57,27.39-4.56,27.39-4.56Z"/>
        <path class="cls-1" d="M436.71,426.96s-2.36,44.76-30.18,55.07c0,0,21.94-18.7,30.18-55.07Z"/>
        <path class="cls-1" d="M508.86,404.88s-56.1,63.75-97.33,77.15c0,0-10.45,5.3-28.12,4.12,0,0,32.98,2.36,45.94,10.31,12.96,7.95,68.76-38.72,68.76-38.72l10.75-52.86Z"/>
        <path class="cls-1" d="M479.93,248.92s-7.4,8.68-15.24,8.57c0,0,5.41,5.6,15.24-8.57Z"/>
        <path class="cls-1" d="M465.24,261.69s13.36-3.56,19.1-3.1l-19.1,3.1Z"/>
        <path class="cls-1" d="M464.13,265s.19-.03.54-.09c2.68-.4,14.54-1.92,17.57,2.18l-17.92-2.13"/>
        <path class="cls-1" d="M336,462.3s14.13,20.32,42.11,21.5c0,0-23.17,8.9-42.11-21.5Z"/>
        <path class="cls-1" d="M354.67,584.31s19.21-2.06,25.99,7.36c0,0,4.66,13.25-35.95,20.91s0-2.06,0-2.06c0,0-11.39-24.03,9.96-26.21Z"/>
        <path class="cls-1" d="M337.18,475.26s9.9,23.56,22.91,26.5c0,0-19.67-2.65-22.91-26.5Z"/>
        <path class="cls-1" d="M331.58,509.61s12.37,61.03,2.06,88.28c0,0-1.47-79.55-2.06-88.28Z"/>
        <path class="cls-1" d="M461.45,620.14l60.96-4.71,46.82-94.82-41.23,96.29s-7.36,12.96-66.55,3.24Z"/>
        <path class="cls-1" d="M515.93,435.97s10.01,32.69,42.99,51.24-84.22,98.65-84.22,98.65c0,0-1.77-83.34-12.07-74.94l53.3-74.94Z"/>
        <path class="cls-1" d="M328.73,466.72s-12.46,135.46-38.08,173.74c0,0,16.49-144.59,36.81-173.74h1.27Z"/>
        <path class="cls-1" d="M200.54,583.33l34.89,12.96s-10.74,5.89-34.89-12.96Z"/>
        <path class="cls-1" d="M262.38,558.89l34.11-54.18s-17.03,46.82-34.11,54.18Z"/>
        <path class="cls-1" d="M494.13,652.83s-123.22,110.43-124.77,147.24h12.28s112.49-147.24,112.49-147.24Z"/>
        <path class="cls-1" d="M551.52,745.29s106.34-135.75,149.04-133.4c0,0-160.49,143.12-162.55,164.02s0,1.47,0,1.47l13.51-32.1Z"/>
        <path class="cls-1" d="M691.44,664.9s-134.87,87.17-146.94,117.5c0,0,104.83-75.68,146.94-117.5Z"/>
        <path class="cls-1" d="M687.9,710.84s-62.13,21.2-55.07,25.33,36.52-6.48,48.88-7.95-30.3,1.47-21.63-.59c8.67-2.06,27.81-16.79,27.81-16.79Z"/>
        <path class="cls-1" d="M700.56,734.69s-88.05,19.14-97.18,45.06c0,0,53.3-55.07,97.18-45.06Z"/>
        <path class="cls-1" d="M81.57,781.22s12.07-50.65,0-71.56c-12.07-20.91,42.7-148.71,42.7-148.71,0,0-45.94,82.45-46.53,111.61-.59,29.15-2.65,35.34,0,40.64s4.42,60.96,3.83,68.02Z"/>
        <path class="cls-1" d="M44.47,692.29s-19.14,21.2-5.01,35.34c14.13,14.13,31.51,32.69,34.45,38.28s-40.34-45.64-47.12-42.26,2.65-22.23,17.67-31.36Z"/>
        <path class="cls-1" d="M70.09,628.09s-19.44,19.73-14.43,36.81c5.01,17.08-11.48,16.73,3.83,33.84s14.57,34.74,14.57,34.74c0,0-.14-30.88-7.21-37.95-7.07-7.07-12.66-44.47,3.24-67.44Z"/>
        <path class="cls-1" d="M54.48,800.07s-27.09-56.12-27.09-62.96c0,0-9.72,20.26,27.09,62.96Z"/>
        <path class="cls-1" d="M17.67,768.59s-1.77,12.87-5.89,17.02l-11.78,14.46h16.49s1.18-31.48,1.18-31.48Z"/>
        <path class="cls-1" d="M285.64,643.4s-24.83,130.97-26.8,155.34c-.74,9.13-16.2-27.53,1.18-122.65,17.37-95.12,20.91-115.14,20.91-115.14,0,0,13.55,13.84,4.71,80.98s0,1.47,0,1.47Z"/>
        <path class="cls-1" d="M439.66,539.45s-132.94,215.06-148.47,259.02c-.2.56-.29,1.13-.54,1.59-1.21,2.28,1.18,1.18,1.18,1.18l70.16-1.18s68.54-176.98,117.72-163.14c49.18,13.84,1.47-.59,1.47-.59,0,0-66.59-40.11-41.52-96.88Z"/>
        <path class="cls-1" d="M223.51,602.18s12.96,171.98,10.01,197.89h24.19s10.56-221.15,26.17-239.12l-60.37,41.23Z"/>
        <path class="cls-1" d="M557.45,726.45s61.25-143.12,126.63-132.81c0,0-72.74-18.85-126.63,132.81Z"/>
        <path class="cls-1" d="M576,524.58s75.39,51.22,110.43,64.63c0,0-90.99-40.48-126.04,37.56l15.61-102.18Z"/>
        <path class="cls-1" d="M736.2,640.46s-26.21,49.47-42.99,60.07c0,0,48.59-23.56,50.06-38.58s-7.07-22.97-7.07-22.97v1.47Z"/>
        <path class="cls-1" d="M739.44,692.29s-4.12,26.21-38.87,34.16c0,0,40.64,5.3,38.87-34.16Z"/>
        <path class="cls-1" d="M741.2,752.66s-94.93,27.15-84.22,45.35c.18.31,1.47,0,1.47,0l75.39.59s-18.26-19.44-30.33-11.48c0,0,39.75-9.72,37.69-34.45Z"/>
        <path class="cls-1" d="M378.26,599.82s1.47,27.39-13.69,35.93l-9.87.74,22.67-36.66h.88Z"/>
        <path class="cls-1" d="M372.07,645.76s-53.01,7.07-77.01-6.92l4.42-10.9s3.98,16.05,72.59,17.82Z"/>
        <path class="cls-1" d="M329.3,351.8s.12-.02.38.01c1.24.14,5.62,1.31,15.22,10,11.63,10.53,8.02,3.75,11.12,3.68s-26.43-7.21-26.72-13.69Z"/>
        <path class="cls-1" d="M285.31,507.32s-77.74,34.9-149.3,47.71c0,0-5.3,35.78-15.9,44.61s165.2-92.32,165.2-92.32Z"/>
        <path class="cls-1" d="M345.23,316.97s-21.2,37.84,14.58,38.58c0,0-29.89-.88-14.58-38.58Z"/>
        <path class="cls-2" d="M347.63,94.05s24.07-62.5,134.61-20.32c110.54,42.18,106.12,123.68,111.64,138.7,5.52,15.02-42.4-126.11-109.55-130.75-67.14-4.64-92.98-31.36-136.71,12.37Z"/>
        <path class="cls-2" d="M531.39,339.21s10.16,149.3,110.21,198.77c0,0-151.29-148.42-110.21-198.77Z"/>
        <path class="cls-2" d="M209.15,219.06s-20.54,66.48-48.59,83.48-12.59,15.68-12.59,15.68c0,0,41.52-9.12,42.63-34.71,1.1-25.59,18.55-64.46,18.55-64.46Z"/>
        <path class="cls-2" d="M223.51,459.14s-.53.8-1.35,2.23c-5.07,8.77-21.16,41.1,8.86,53.65,0,0-59.37-4.12-8.04-55.07"/>
        <path class="cls-1" d="M482.25,244.57s-19.21-45.28-7.45-78.85c0,0-8.57,57.27-16.08,62.48l23.53,16.37Z"/>
        <path class="cls-1" d="M291.76,270.08s-13.04-.77-15.58-2.98c0,0,3.47,4.02,9.08,4.77,0,0-11.29,2.06-13.5-.69,0,0,5.41,4.87,8.83,4.76s-13.25.64-15.13-2.44c0,0-3.2,5.97,9.61,6.75s-10.6,4.3-13.58.05,0,.61,0,.61c0,0,.43,3.53,6.07,2.76s24.2-13.58,24.2-13.58Z"/>
        <path class="cls-1" d="M425.5,257.28s11.42-6.34,12.75-9.43c0,0-1.39,5.12-6.12,8.23,0,0,11.07-3.03,11.87-6.46,0,0-2.77,6.73-5.91,8.11s12.49,2.83,10.83-5.9c0,0,7.46,1.61-3.99,7.39-2.81,1.42,11.63-.68,12.27-5.83.08-.66.08,1.49.26.55,0,0,1.14,3.37-4.28,5.12s-27.69-1.77-27.69-1.77Z"/>
        <path class="cls-1" d="M715.47,600.59s28.49,13.69,17.56,39.87c-10.93,26.17-17.56,31.47-17.56,31.47,0,0,29.48-49.47,0-71.34Z"/>
        <path class="cls-1" d="M741.28,669.06s.04.24.1.69c.64,4.69,3.27,32.29-21.36,47.35-26.98,16.5-47.29,7.84-47.29,7.84,0,0,55.26,14.8,68.54-55.88Z"/>
        <path class="cls-1" d="M738.66,709.49s18.22,27.82-8.94,44.27-45.94,10.05-59.85,24.07c0,0,83.93-21.3,68.8-68.35Z"/>
        <path class="cls-1" d="M116.91,568.9s-52.42,52.16-51.83,78.64c.59,26.48-8.83,33.76,6.77,50.59,0,0-23.85-51.2,45.06-129.23Z"/>
        <path class="cls-1" d="M52.8,662.84s-25.1,34.75-12.45,48c12.65,13.25,29.14,37.1,30.32,41.82s0-1.47,0-1.47c0,0-39.58-54.48-17.88-88.34Z"/>
      </g>
      <path class="cls-1" d="M451.33,261.1s-13.93,11.64-25.82,12.39c0,0,23.28-2.51,28.13-10.04,2.56-3.97-2.31-2.35-2.31-2.35Z"/>
    </g>
  </g>
</svg>