<?xml version="1.0" encoding="UTF-8"?>
<svg id="Layer_2" data-name="Layer 2" xmlns="http://www.w3.org/2000/svg" viewBox="0 0 77.95 116.2">
  <defs>
    <style>
      .cls-1 {
        fill: #4e50a2;
      }

      .cls-2 {
        fill: #58595b;
        opacity: .25;
      }

      .cls-3 {
        fill: #fff;
      }

      .cls-4 {
        fill: #acadb0;
      }

      .cls-5 {
        fill: #262262;
      }

      .cls-6 {
        fill: #6d6e71;
      }

      .cls-7 {
        fill: #c2b59b;
      }
    </style>
  </defs>
  <g id="Layer_1-2" data-name="Layer 1">
    <g>
      <path class="cls-1" d="M5.13,116.2c-1.63,0-2.89-.36-3.79-1.08-.9-.72-1.34-1.75-1.34-3.07,0-1.45.48-2.54,1.45-3.27.97-.73,2.33-1.1,4.09-1.1h3.45v2.66h-2.2c-1.18,0-1.99.14-2.44.42-.45.28-.68.68-.68,1.18,0,.4.18.71.54.94.36.23.87.34,1.52.34.6,0,1.13-.14,1.59-.42.46-.28.83-.64,1.1-1.08.27-.44.41-.9.41-1.37h.87c0,1.85-.35,3.28-1.04,4.32-.7,1.03-1.87,1.55-3.52,1.55ZM8.93,115.87l-.11-2.74v-4.13c0-.82-.09-1.51-.26-2.09s-.44-1.03-.81-1.35c-.37-.32-.87-.47-1.51-.47-.58,0-1.1.13-1.57.38-.47.25-.87.64-1.19,1.17l-3.15-1.09c.25-.58.62-1.14,1.11-1.7.49-.55,1.13-1,1.91-1.36.79-.35,1.75-.53,2.89-.53,1.38,0,2.52.26,3.43.79.91.52,1.59,1.26,2.04,2.21.44.95.65,2.08.64,3.38l-.08,7.52h-3.34Z"/>
      <path class="cls-1" d="M15.2,115.87v-13.57h3.58v13.57h-3.58ZM17.72,108.73c0-1.47.28-2.68.86-3.64.57-.96,1.3-1.67,2.2-2.14s1.83-.71,2.81-.71v3.47c-.83,0-1.61.1-2.35.3s-1.33.53-1.78.98c-.45.45-.68,1.03-.68,1.74h-1.06Z"/>
      <path class="cls-1" d="M24.32,105.34v-3.04h9.17v3.04h-9.17ZM31.08,116.2c-1.5,0-2.64-.37-3.41-1.11-.77-.74-1.15-1.8-1.15-3.17v-13.84h3.58v13.05c0,.58.13,1.02.38,1.32.25.3.62.45,1.11.45.18,0,.38-.04.6-.12s.44-.2.68-.37l1.25,2.69c-.43.33-.92.59-1.45.8s-1.06.31-1.59.31Z"/>
      <path class="cls-1" d="M38.41,100.1c-.54,0-1.02-.2-1.44-.61s-.62-.89-.62-1.45.21-1.05.62-1.45.9-.61,1.44-.61,1.05.2,1.45.61c.41.41.61.89.61,1.45s-.2,1.04-.61,1.45c-.41.41-.89.61-1.45.61ZM36.61,115.87v-13.57h3.58v13.57h-3.58Z"/>
      <path class="cls-1" d="M50.05,116.2c-1.41,0-2.67-.3-3.77-.91-1.1-.61-1.96-1.45-2.58-2.52-.62-1.08-.92-2.3-.92-3.68s.31-2.62.92-3.69c.62-1.07,1.47-1.9,2.55-2.51,1.09-.61,2.33-.91,3.75-.91s2.6.34,3.72,1.01,1.94,1.64,2.44,2.9l-3.37,1.19c-.25-.52-.65-.95-1.18-1.26-.53-.32-1.13-.47-1.78-.47s-1.26.16-1.76.47c-.51.32-.91.76-1.19,1.32s-.43,1.21-.43,1.95.14,1.39.43,1.94c.29.55.7.99,1.22,1.32.52.33,1.12.49,1.79.49s1.24-.17,1.78-.51c.53-.34.93-.8,1.18-1.36l3.39,1.19c-.52,1.29-1.34,2.28-2.46,2.99-1.11.7-2.36,1.06-3.73,1.06Z"/>
      <path class="cls-1" d="M58.33,115.87v-19h3.58v19h-3.58Z"/>
      <path class="cls-1" d="M71.14,116.2c-1.34,0-2.52-.3-3.56-.91-1.03-.61-1.84-1.44-2.43-2.51-.59-1.07-.88-2.3-.88-3.69s.3-2.62.91-3.69c.61-1.07,1.44-1.9,2.5-2.51,1.06-.61,2.28-.91,3.65-.91,1.19,0,2.29.31,3.3.94,1,.63,1.81,1.54,2.42,2.74.61,1.2.91,2.67.91,4.38h-10.29l.33-.33c0,.67.17,1.25.5,1.75.33.5.77.88,1.3,1.14.53.26,1.11.39,1.72.39.74,0,1.35-.16,1.82-.47.47-.32.83-.73,1.09-1.23l3.2,1.25c-.38.76-.87,1.42-1.48,1.97s-1.33.97-2.16,1.26c-.83.29-1.78.43-2.85.43ZM68.18,107.7l-.33-.32h6.54l-.3.32c0-.65-.15-1.17-.46-1.56-.31-.39-.68-.68-1.13-.86-.44-.18-.87-.27-1.29-.27s-.86.09-1.33.27c-.47.18-.87.47-1.21.86-.33.39-.5.91-.5,1.56Z"/>
    </g>
    <polygon class="cls-3" points="22.81 5.27 22.81 72.37 68.55 72.37 68.55 16.25 57.07 5.27 22.81 5.27"/>
    <path class="cls-3" d="M9.49,5.68s7.42-12.77,13.54,0v66.92s-7.53-12.83-13.54.71V5.68Z"/>
    <path class="cls-3" d="M62.93,77.37v-2.83H14.52s-5.32-1.85-5.32-3.18c0,0-.27,5.03,4.61,6h49.11Z"/>
    <path class="cls-6" d="M63.14,76.22H15.55s-4.15-.35-6-3.53c-1.85-3.18,4.2-6.32,6.89-6.18,2.88.15,6.62,1.86,7.15,4.77l-.09,1.32,39.64-.09v3.71Z"/>
    <rect class="cls-5" x="26.03" y="10.95" width="30.64" height="5.14"/>
    <path class="cls-2" d="M17.47.01s5.03,2.13,5.12,5.66l.44,67.01s-1.06-5.3-5.56-5.47V.01Z"/>
    <path class="cls-4" d="M9.49,59.1s7.15-5.47,10.42-2.3v-2.83s-4.86-3.27-10.42,2.56v2.56Z"/>
    <path class="cls-4" d="M9.49,52.04s7.02-5.47,10.22-2.3v-2.83s-4.76-3.27-10.22,2.56v2.56Z"/>
    <path class="cls-4" d="M9.49,44.97s7.15-5.47,10.42-2.3v-2.83s-4.86-3.27-10.42,2.56v2.56Z"/>
    <path class="cls-4" d="M9.49,13.56s7.02-5.47,10.22-2.3v-2.83s-4.76-3.27-10.22,2.56v2.56Z"/>
    <path class="cls-7" d="M9.49,35.36v-18.19s4.33-5.84,10.22-2.57v17.93s-2.25-3.62-10.22,2.83Z"/>
    <rect class="cls-4" x="26.03" y="20.45" width="18.37" height="18.37"/>
    <polygon class="cls-3" points="44.49 38.89 38.48 29.27 34.27 34.68 25.8 26.91 25.8 38.95 44.49 38.89"/>
    <path class="cls-5" d="M44.49,38.89s-4.21-7.99-3.78-5.53c.18,1.02-.92-.47-2.18,0s-3.15-.17-3.15-.17l-1.2,1.23-4.47-3.93s-1.61-1-1.72-.3-.75,1.17-.95.82-1,.24-1,.59,0-.35,0-.35v7.57l18.45.08Z"/>
    <path class="cls-7" d="M38.13,20.45s-.57,2.39,1.73,4.22,4.55,1.31,4.55,1.31v-5.53h-6.27Z"/>
    <rect class="cls-4" x="46.01" y="20.45" width="17.66" height="2.47"/>
    <rect class="cls-4" x="46.01" y="27.47" width="17.66" height="2.47"/>
    <rect class="cls-4" x="46.01" y="35.12" width="17.66" height="2.47"/>
    <rect class="cls-4" x="26.31" y="41.96" width="37.35" height="2.47"/>
    <rect class="cls-4" x="26.31" y="50.8" width="37.35" height="2.47"/>
    <rect class="cls-4" x="26.31" y="59.65" width="37.35" height="2.47"/>
    <rect class="cls-4" x="26.31" y="67.77" width="37.35" height="2.47"/>
  </g>
</svg>