<?xml version="1.0" encoding="UTF-8"?>
<svg id="Layer_2" data-name="Layer 2" xmlns="http://www.w3.org/2000/svg" viewBox="0 0 845.37 593.81">
  <defs>
    <style>
      .cls-1 {
        fill: #4e50a2;
      }

      .cls-2 {
        fill: #fff;
      }

      .cls-3 {
        fill: #cecccd;
      }
    </style>
  </defs>
  <g id="Layer_2-2" data-name="Layer 2">
    <g>
      <path class="cls-1" d="M546.52,450.5c0-1.31-.15-1.9-.11-3.2-.06-3.92.61-9.71.61-9.71H58.31L0,562.59l10.16,28.27,667.44,2.94c-.75-.26-1.49-.52-2.22-.78-71.75-7.49-128.86-68.79-128.86-142.53Z"/>
      <path class="cls-3" d="M690.37,283.71c7.68,0,15.21.61,22.56,1.78V27.17H78.18v388.8h469.89c5.34-73.93,67-132.26,142.29-132.26Z"/>
      <circle class="cls-1" cx="199.51" cy="170.75" r="45.94"/>
      <circle class="cls-1" cx="702.7" cy="441.25" r="142.67"/>
      <path class="cls-1" d="M547.14,426.38c0-8.74.79-17.3,2.3-25.61H93.06V37.1h596.75v246.6c12.53,0,24.68,1.62,36.25,4.65V0H59.08v432h488.18c-.07-1.86-.12-3.73-.12-5.62Z"/>
      <path class="cls-2" d="M671.02,373.49v135.53c0,5.62,6.39,8.86,10.92,5.53l84.4-61.89c5.4-3.96,5.59-11.96.38-16.18l-84.53-68.33c-4.49-3.63-11.17-.43-11.17,5.34Z"/>
      <rect class="cls-2" x="430.01" y="148.42" width="195.46" height="127.88"/>
      <path class="cls-1" d="M423.6,143.78v136.69c0,1.79,1.45,3.24,3.24,3.24h200.27c1.79,0,3.24-1.45,3.24-3.24v-136.69c0-1.79-1.45-3.24-3.24-3.24h-200.27c-1.79,0-3.24,1.45-3.24,3.24ZM615.88,273.36h-178.5c-1.79,0-3.24-1.45-3.24-3.24v-114.04c0-1.79,1.45-3.24,3.24-3.24h178.5c1.79,0,3.24,1.45,3.24,3.24v114.04c0,1.79-1.45,3.24-3.24,3.24Z"/>
      <path class="cls-1" d="M88.2,265.23s12.81-37.1,48.59-36.66h41.96s20.76,34.45,20.76,34.45l23.85-34.46h37.55s55.21,3.54,54.77,53.89l29.6-18.55s14.13-8.83,23.85.44l108.22-70.67,4.42,7.95-104,71.56s5.94,17.67-20.12,31.36l-53.45,36.22s-26.06,10.16-28.71-19.88l-1.77-23.41-10.6-10.16-.88,116.17h-122.8l.88-119.71-14.13-.88-1.33,120.59h-36.66v-138.26Z"/>
      <path class="cls-2" d="M69.35,457.02l-21.2,54.33,477.94,2.65s-4.86-28.71,0-56.98H69.35Z"/>
      <rect class="cls-2" x="355.14" y="553.31" width="81.72" height="23.41"/>
    </g>
  </g>
</svg>