<?xml version="1.0" encoding="UTF-8"?>
<svg id="Layer_2" xmlns="http://www.w3.org/2000/svg" viewBox="0 0 272.93 272.9">
  <defs>
    <style>
      .cls-1 {
        fill: #fff;
      }
    </style>
  </defs>
  <g id="Layer_1-2" data-name="Layer_1">
    <g>
      <path class="cls-1" d="M126.29,115.56c-5.33-2.17-19.62,2.11-22.52,9.68-3.21,8.4-14.62,9.92-14.62,9.92,0,0-10.47-4.78-8.89,0,1.58,4.78,6.12,7.91,8.69,9.44,10.44,6.22,24.3,8.89,33.78,3.56,9.48-5.33,13.43-16.99,14.82-20.94,1.38-3.95-1.09-4.94-1.09-4.94l-10.17-6.72Z"/>
      <path class="cls-1" d="M140.71,115.32l40.5-41.3,32.66-62.16s2.37-6.06-3.69-10.27-12.91,1.32-12.91,1.32l-42.41,51.1-23.64,54.35,9.49,6.97Z"/>
      <path class="cls-1" d="M261.81,36.19c-12.64-.23-37.93,0-37.93,0l-6.72,13.59h38.32s3.95.79,3.95,4.35l-.79,129.98s0,5.53-6.72,5.53H19.97s-6.32,0-6.32-5.14l.77-130.37s1.38-3.95,4.02-3.56l118.03-1.05,3.66-11.59s.66-1.71-1.71-1.71H10.54s-7.9-1.05-10.54,9.22v178.71s0,8.96,9.22,9.75c9.22.79,253.77,0,253.77,0,0,0,9.09,2.77,9.88-8.69V47.02s1.58-10.6-11.06-10.83ZM136.47,218.57c-4.64,0-8.4-3.76-8.4-8.4s3.76-8.4,8.4-8.4,8.4,3.76,8.4,8.4-3.76,8.4-8.4,8.4Z"/>
      <path class="cls-1" d="M198.59,258.91s-17.38,1.32-27.13,0c-9.75-1.32-8.17-7.64-8.17-7.64v-5.79h-54.26c3.16,14.75-21.07,13.96-26.6,13.71-5.53-.25-21.07-.01-24.76,6.04-3.69,6.06,2.37,7.64,2.37,7.64h148.55s14.75.79,8.95-5.79c-5.79-6.58-18.96-8.16-18.96-8.16Z"/>
    </g>
  </g>
</svg>