<?xml version="1.0" encoding="UTF-8"?>
<svg id="Layer_2" data-name="Layer 2" xmlns="http://www.w3.org/2000/svg" viewBox="0 0 431.65 242.66">
  <defs>
    <style>
      .cls-1 {
        fill: #fff;
      }
    </style>
  </defs>
  <g id="Layer_1-2" data-name="Layer 1">
    <g>
      <path class="cls-1" d="M347.9,98.55c-30.87-33.32-75.86-54.3-126.23-54.3-93.79,0-169.83,72.76-169.83,162.53,0,5.93-.42,11.48.06,17.18.03.6.09,1.18.18,1.77.02.13.02.27.04.4h.02c1.63,9.38,10.22,16.54,20.61,16.54s18.76-6.97,20.55-16.17h.01s0-.04,0-.06c.22-1.15.35-2.32.35-3.53,0-1.67-.24-3.29-.66-4.84.04-2.23.11-4.47.11-6.73,0-68.99,56.71-124.92,126.67-124.92,34.74,0,66.53,13.78,89.74,36.1l38.37-23.97Z"/>
      <path class="cls-1" d="M365.69,136.17l-37.06,30.49c5.78,14.18,12.92,25.94,12.92,42.11,0,2.89,0,5.91.25,8.75-.15.95-.25,1.91-.25,2.9,0,10.91,9.36,19.75,20.91,19.75,10.25,0,18.77-6.97,20.55-16.17h.01c.01-.1.02-.21.04-.32.13-.72.21-1.45.25-2.19.65-5.67,1.1-11.45,1.1-17.27,0-21.49-10.89-49.29-18.73-68.06Z"/>
    </g>
    <path class="cls-1" d="M381.17,101.45l-181.39,95.7s-11.56,16.42,0,31.9,29.39,7.98,29.39,7.98l152-135.58Z"/>
    <rect class="cls-1" x="0" y="213.57" width="34.95" height="13.14" rx="6.57" ry="6.57"/>
    <rect class="cls-1" x="54.16" y="70.49" width="34.95" height="13.14" rx="6.57" ry="6.57" transform="translate(75.47 -28.08) rotate(45)"/>
    <rect class="cls-1" x="199.59" y="10.91" width="34.95" height="13.14" rx="6.57" ry="6.57" transform="translate(234.54 -199.59) rotate(90)"/>
    <rect class="cls-1" x="349.79" y="72.51" width="34.95" height="13.14" rx="6.57" ry="6.57" transform="translate(672.95 -139.3) rotate(132.31)"/>
    <rect class="cls-1" x="396.7" y="213.57" width="34.95" height="13.14" rx="6.57" ry="6.57" transform="translate(828.35 440.28) rotate(180)"/>
  </g>
</svg>