<?xml version="1.0" encoding="UTF-8"?>
<svg id="Layer_2" data-name="Layer 2" xmlns="http://www.w3.org/2000/svg" viewBox="0 0 249.61 228.44">
  <defs>
    <style>
      .cls-1 {
        fill: #4e50a2;
      }

      .cls-2 {
        fill: #fff;
      }

      .cls-3 {
        fill: #5e4e58;
      }

      .cls-4 {
        fill: #2c1121;
      }

      .cls-5 {
        fill: #bcbec0;
      }

      .cls-6 {
        fill: #c2b59b;
      }
    </style>
  </defs>
  <g id="Layer_1-2" data-name="Layer 1">
    <g>
      <path class="cls-1" d="M16.77,228.44c-3.27,0-6.17-.74-8.68-2.22-2.52-1.48-4.5-3.53-5.93-6.13-1.44-2.61-2.16-5.61-2.16-9.02s.74-6.41,2.22-9.02c1.48-2.61,3.51-4.65,6.1-6.13,2.58-1.48,5.56-2.22,8.92-2.22,2.92,0,5.6.77,8.06,2.29,2.45,1.53,4.42,3.76,5.9,6.7,1.48,2.94,2.22,6.51,2.22,10.7H8.29l.8-.8c0,1.64.41,3.06,1.23,4.28.82,1.21,1.88,2.14,3.18,2.79,1.31.64,2.71.96,4.21.96,1.81,0,3.29-.39,4.44-1.17,1.15-.77,2.03-1.78,2.65-3.01l7.82,3.04c-.93,1.86-2.13,3.46-3.61,4.81s-3.24,2.37-5.27,3.08c-2.03.71-4.35,1.06-6.96,1.06ZM9.55,207.69l-.8-.8h15.98l-.73.8c0-1.6-.38-2.86-1.13-3.81-.75-.95-1.67-1.65-2.75-2.09-1.08-.44-2.13-.66-3.15-.66s-2.1.22-3.25.66c-1.15.44-2.13,1.13-2.95,2.09-.82.95-1.23,2.22-1.23,3.81Z"/>
      <path class="cls-1" d="M34.21,227.64l13.59-18.96,9.48-14.19h10.34l-13.19,18.49-9.74,14.65h-10.47ZM58.01,227.64l-9.61-14.65-13.33-18.49h10.34l9.48,14.19,13.53,18.96h-10.41Z"/>
      <path class="cls-1" d="M86.65,228.44c-3.27,0-6.17-.74-8.68-2.22-2.52-1.48-4.5-3.53-5.93-6.13-1.44-2.61-2.16-5.61-2.16-9.02s.74-6.41,2.22-9.02c1.48-2.61,3.51-4.65,6.1-6.13,2.58-1.48,5.56-2.22,8.92-2.22,2.92,0,5.6.77,8.06,2.29,2.45,1.53,4.42,3.76,5.9,6.7,1.48,2.94,2.22,6.51,2.22,10.7h-25.13l.8-.8c0,1.64.41,3.06,1.23,4.28.82,1.21,1.88,2.14,3.18,2.79,1.31.64,2.71.96,4.21.96,1.81,0,3.29-.39,4.44-1.17,1.15-.77,2.03-1.78,2.65-3.01l7.82,3.04c-.93,1.86-2.13,3.46-3.61,4.81s-3.24,2.37-5.27,3.08c-2.03.71-4.35,1.06-6.96,1.06ZM79.43,207.69l-.8-.8h15.98l-.73.8c0-1.6-.38-2.86-1.13-3.81-.75-.95-1.67-1.65-2.75-2.09-1.08-.44-2.13-.66-3.15-.66s-2.1.22-3.25.66c-1.15.44-2.13,1.13-2.95,2.09-.82.95-1.23,2.22-1.23,3.81Z"/>
      <path class="cls-1" d="M108.4,227.64v-33.15h8.75v33.15h-8.75ZM114.56,210.21c0-3.58.7-6.54,2.09-8.88,1.39-2.34,3.18-4.09,5.37-5.24,2.19-1.15,4.48-1.72,6.86-1.72v8.48c-2.03,0-3.94.25-5.74.73-1.79.49-3.24,1.28-4.34,2.38-1.1,1.1-1.66,2.52-1.66,4.24h-2.59Z"/>
      <path class="cls-1" d="M149.5,228.44c-3.45,0-6.52-.74-9.22-2.22-2.7-1.48-4.8-3.54-6.3-6.17-1.5-2.63-2.26-5.63-2.26-8.98s.75-6.41,2.26-9.02c1.5-2.61,3.58-4.65,6.23-6.13,2.65-1.48,5.7-2.22,9.15-2.22s6.34.82,9.08,2.45c2.74,1.63,4.73,4,5.97,7.09l-8.22,2.91c-.62-1.28-1.58-2.31-2.88-3.08-1.31-.78-2.75-1.17-4.34-1.17s-3.07.39-4.31,1.17c-1.24.77-2.21,1.85-2.92,3.22s-1.06,2.96-1.06,4.77.35,3.39,1.06,4.74c.71,1.35,1.7,2.42,2.98,3.22,1.28.8,2.74,1.2,4.38,1.2s3.04-.42,4.34-1.26c1.3-.84,2.26-1.94,2.88-3.31l8.29,2.91c-1.28,3.14-3.28,5.57-6,7.29-2.72,1.73-5.76,2.59-9.12,2.59Z"/>
      <path class="cls-1" d="M174.63,189.12c-1.32,0-2.5-.5-3.51-1.49-1.02-.99-1.52-2.17-1.52-3.54s.51-2.55,1.52-3.54c1.02-1,2.19-1.49,3.51-1.49s2.55.5,3.55,1.49c1,.99,1.49,2.17,1.49,3.54s-.5,2.55-1.49,3.54c-.99.99-2.18,1.49-3.55,1.49ZM170.25,227.64v-33.15h8.75v33.15h-8.75Z"/>
      <path class="cls-1" d="M199.49,228.44c-2.12,0-4.11-.32-5.97-.96-1.86-.65-3.49-1.58-4.91-2.79-1.41-1.21-2.52-2.7-3.32-4.47l7.49-3.45c.66,1.06,1.57,1.98,2.72,2.75,1.15.78,2.47,1.17,3.98,1.17s2.58-.21,3.38-.63c.79-.42,1.19-1.03,1.19-1.82s-.32-1.38-.96-1.75c-.64-.38-1.52-.7-2.62-.96l-3.05-.8c-3.18-.84-5.69-2.18-7.53-4.01-1.83-1.83-2.75-3.94-2.75-6.33,0-3.4,1.1-6.04,3.28-7.89,2.19-1.86,5.29-2.78,9.31-2.78,2.08,0,4.01.31,5.8.93,1.79.63,3.33,1.48,4.61,2.59,1.28,1.1,2.17,2.38,2.65,3.84l-7.22,3.32c-.31-.88-1.06-1.6-2.26-2.15-1.19-.56-2.39-.83-3.58-.83s-2.11.25-2.75.77c-.64.51-.96,1.2-.96,2.08,0,.58.31,1.05.93,1.42.62.38,1.5.7,2.65.96l4.31,1.07c2.17.53,3.9,1.38,5.21,2.55,1.3,1.18,2.26,2.48,2.85,3.92.6,1.44.9,2.84.9,4.21,0,1.99-.58,3.74-1.75,5.27-1.18,1.53-2.76,2.71-4.77,3.55-2.01.84-4.3,1.26-6.86,1.26Z"/>
      <path class="cls-1" d="M232.97,228.44c-3.27,0-6.17-.74-8.68-2.22-2.52-1.48-4.5-3.53-5.93-6.13-1.44-2.61-2.16-5.61-2.16-9.02s.74-6.41,2.22-9.02c1.48-2.61,3.51-4.65,6.1-6.13,2.58-1.48,5.56-2.22,8.91-2.22,2.92,0,5.61.77,8.06,2.29,2.45,1.53,4.42,3.76,5.9,6.7,1.48,2.94,2.22,6.51,2.22,10.7h-25.13l.8-.8c0,1.64.4,3.06,1.22,4.28s1.88,2.14,3.18,2.79c1.31.64,2.71.96,4.21.96,1.81,0,3.29-.39,4.45-1.17,1.15-.77,2.03-1.78,2.65-3.01l7.82,3.04c-.93,1.86-2.13,3.46-3.61,4.81-1.48,1.35-3.24,2.37-5.27,3.08-2.03.71-4.35,1.06-6.96,1.06ZM225.74,207.69l-.8-.8h15.98l-.73.8c0-1.6-.38-2.86-1.13-3.81-.76-.95-1.67-1.65-2.75-2.09-1.08-.44-2.14-.66-3.15-.66s-2.1.22-3.25.66c-1.15.44-2.13,1.13-2.95,2.09-.81.95-1.22,2.22-1.22,3.81Z"/>
    </g>
    <rect class="cls-5" x="38.83" width="156.63" height="156.63" rx="2.63" ry="2.63"/>
    <rect class="cls-6" x="74.39" y="35.85" width="84.94" height="84.94"/>
    <rect class="cls-1" x="43.25" y="4.66" width="27.4" height="27.4"/>
    <rect class="cls-1" x="103.45" y="4.66" width="27.4" height="27.4"/>
    <rect class="cls-1" x="163.65" y="4.66" width="27.4" height="27.4"/>
    <rect class="cls-1" x="163.65" y="64.62" width="27.4" height="27.4"/>
    <rect class="cls-2" x="73.35" y="4.66" width="27.4" height="27.4"/>
    <rect class="cls-2" x="133.55" y="4.66" width="27.4" height="27.4"/>
    <rect class="cls-1" x="42.96" y="124.57" width="27.4" height="27.4"/>
    <rect class="cls-1" x="103.16" y="124.57" width="27.4" height="27.4"/>
    <rect class="cls-1" x="163.36" y="124.57" width="27.4" height="27.4"/>
    <rect class="cls-2" x="73.06" y="124.57" width="27.4" height="27.4"/>
    <rect class="cls-2" x="133.26" y="124.57" width="27.4" height="27.4"/>
    <rect class="cls-2" x="163.36" y="93.38" width="27.4" height="27.4"/>
    <rect class="cls-2" x="163.65" y="35.85" width="27.4" height="27.4"/>
    <rect class="cls-1" x="43.39" y="64.62" width="27.4" height="27.4"/>
    <rect class="cls-2" x="43.1" y="93.38" width="27.4" height="27.4"/>
    <rect class="cls-2" x="43.39" y="35.85" width="27.4" height="27.4"/>
    <path class="cls-1" d="M90.39,114.48v-23.12s5.97-14.03,18.18-12.99l17.92-.06s17.41,3.88,17.4,13.23v22.93h-53.51Z"/>
    <path class="cls-4" d="M123.65,91.34s6.82-4.09,3.7-14.22l-9.35,3.9,5.65,10.33Z"/>
    <path class="cls-4" d="M110.59,91.34s-6.82-4.09-3.7-14.22l9.35,3.9-5.65,10.33Z"/>
    <circle class="cls-2" cx="117.04" cy="62.08" r="17.48"/>
    <polygon class="cls-2" points="117.12 81.62 113.94 87.27 117.12 92.07 120.1 87.14 117.12 81.62"/>
    <polygon class="cls-2" points="115.72 91.75 117.31 94.61 118.81 91.75 121.73 114.48 112.57 114.48 115.72 91.75"/>
    <path class="cls-3" d="M88.13,129.08l-4.55-.13c-.21-8.81-4.3-19.76-5.95-23.83,4.02-1.67,6.85-5.63,6.85-10.26,0-6.13-4.97-11.1-11.1-11.1s-11.1,4.97-11.1,11.1c0,4.75,2.99,8.81,7.19,10.39-3.67,8.4-5.24,24.35-5.24,24.35h-5.33c-4.55,1.43-5.33,8.44-5.33,8.44h38.96c0-5.71-4.42-8.96-4.42-8.96Z"/>
  </g>
</svg>