<?xml version="1.0" encoding="UTF-8"?>
<svg id="Layer_2" xmlns="http://www.w3.org/2000/svg" viewBox="0 0 354 352.96">
  <defs>
    <style>
      .cls-1 {
        fill: #fff;
      }
    </style>
  </defs>
  <g id="Layer_1-2" data-name="Layer_1">
    <g>
      <path class="cls-1" d="M245.76,185.22h10.96l1.04-33.39h10.43l.52,33.39h16.17V63.65c-41.74,15.13-39.13,29.22-39.13,29.22v92.35Z"/>
      <path class="cls-1" d="M301.55,185.22h16.17l.52-33.39h10.44l1.04,33.39h10.96v-92.35s2.61-14.09-39.13-29.22v121.57Z"/>
      <path class="cls-1" d="M257.23,189h-10.96v11.09s2.22,3.39,5.09,3.65c2.87.26,5.35-3.78,5.35-3.78l.52-10.96Z"/>
      <path class="cls-1" d="M330.28,200.09s2.22,3.39,5.09,3.65c2.87.26,5.35-3.78,5.35-3.78l.52-10.96h-10.96v11.09Z"/>
      <polygon class="cls-1" points="294.54 76.17 297.41 69.26 294.54 62.35 292.19 62.35 289.06 69.65 292.19 76.17 294.54 76.17"/>
      <path class="cls-1" d="M293.49,57.13c10.81,0,19.57-8.76,19.57-19.57s-8.76-19.57-19.57-19.57-19.56,8.76-19.56,19.57,8.76,19.57,19.56,19.57Z"/>
      <polygon class="cls-1" points="291.93 168 293.49 168 298.71 124.43 295.06 78.52 291.93 78.52 287.76 124.43 291.93 168"/>
      <path class="cls-1" d="M316.71,244.17v-55.17h-46.96l4.17,90.13c3.65,0,13.83,8.87,13.83,8.87l5.48-3.13s-12-16.7,0-30.78,23.48-9.91,23.48-9.91Z"/>
      <circle class="cls-1" cx="43.93" cy="277.57" r="15.13"/>
      <circle class="cls-1" cx="89.76" cy="307.83" r="15.13"/>
      <circle class="cls-1" cx="133.58" cy="272.87" r="15.13"/>
      <circle class="cls-1" cx="181.58" cy="307.83" r="15.13"/>
      <circle class="cls-1" cx="225.41" cy="270.26" r="15.13" transform="translate(-40.38 39.6) rotate(-9.22)"/>
      <circle class="cls-1" cx="269.76" cy="306.91" r="15.13"/>
      <circle class="cls-1" cx="313.06" cy="270.26" r="15.13"/>
      <path class="cls-1" d="M66.54,298.96l-13.57-4.17c-9.13,5.48-19.57,0-19.57,0-26.09,8.35-28.7,16.17-28.7,16.17v33.13h36c4.7-18.26,29.74-22.7,29.74-22.7-8.35-12.26-3.91-22.43-3.91-22.43Z"/>
      <path class="cls-1" d="M325.3,293.74s-10.43,5.48-19.56,0l-13.57,4.17s4.44,10.17-3.91,22.43c0,0,25.04,4.43,29.74,22.7h36v-33.13s-2.61-7.83-28.7-16.17Z"/>
      <path class="cls-1" d="M125.23,342.78l-26.35-13.04c-8.09,4.17-17.48,0-17.48,0,0,0-21.91,10.43-25.56,12.26-3.65,1.83-5.71,10.96-5.71,10.96h78.49c-.78-8.35-3.39-10.17-3.39-10.17Z"/>
      <path class="cls-1" d="M216.28,342.78l-26.35-13.04c-8.09,4.17-17.48,0-17.48,0,0,0-21.91,10.43-25.57,12.26-3.65,1.83-5.71,10.96-5.71,10.96h78.49c-.78-8.35-3.39-10.17-3.39-10.17Z"/>
      <path class="cls-1" d="M306.8,342.78l-26.35-13.04c-8.09,4.17-17.48,0-17.48,0,0,0-21.91,10.43-25.57,12.26-3.65,1.83-5.71,10.96-5.71,10.96h78.49c-.78-8.35-3.39-10.17-3.39-10.17Z"/>
      <path class="cls-1" d="M155.76,299.22l-12.52-4.43c-9.39,5.22-17.22,0-17.22,0l-12.78,4.17c2.09,14.61-5.22,23.09-5.22,23.09,7.83-1.96,25.83,13.17,25.83,13.17,10.96-9.13,25.83-13.17,25.83-13.17-4.7-7.7-3.91-22.83-3.91-22.83Z"/>
      <path class="cls-1" d="M244.45,299.22l-12.52-4.43c-9.39,5.22-17.22,0-17.22,0l-12.78,4.17c2.09,14.61-5.22,23.09-5.22,23.09,7.83-1.96,25.83,13.17,25.83,13.17,10.96-9.13,25.83-13.17,25.83-13.17-4.7-7.7-3.91-22.83-3.91-22.83Z"/>
      <path class="cls-1" d="M169.04,225.39v-17.74h62.61V0H0v207.65h143.18l25.86,17.74ZM126.13,158.44l-1.57,14.59h-20.83l-1.64-13.52c-6.89-1.26-13.31-3.85-19-7.48l-14.45,10.34-13.66-15.74,11.14-11.93c-3.14-5.16-5.43-10.9-6.68-17.01l-14.49-1.56v-20.83l15.14-1.84c1.51-5.79,3.97-11.2,7.2-16.05l-11.12-12.25,14.05-15.39,14.85,10.94c5.11-2.96,10.76-5.09,16.77-6.22l1.64-15.25h20.83l1.98,16.33c5.74,1.62,11.08,4.17,15.86,7.49l13.7-10.64,14.26,15.19-11.63,13.48c2.65,4.77,4.59,9.99,5.68,15.51l15.72,1.69v20.83l-16.6,2.01c-1.09,3.96-2.62,7.74-4.54,11.28l11.43,12.58-14.05,15.39-13.41-9.87c-4.97,3.54-10.57,6.24-16.6,7.92Z"/>
    </g>
  </g>
</svg>