<?xml version="1.0" encoding="UTF-8"?>
<svg id="Layer_2" data-name="Layer 2" xmlns="http://www.w3.org/2000/svg" viewBox="0 0 275.75 232.58">
  <defs>
    <style>
      .cls-1 {
        fill: #4e50a2;
      }
    </style>
  </defs>
  <g id="Layer_1-2" data-name="Layer 1">
    <g>
      <path class="cls-1" d="M4.88,194.48c-1.28,0-2.42-.48-3.4-1.45-.99-.96-1.48-2.11-1.48-3.44s.49-2.48,1.48-3.44c.99-.96,2.12-1.45,3.4-1.45s2.48.48,3.44,1.45c.96.96,1.45,2.11,1.45,3.44s-.48,2.47-1.45,3.44c-.96.96-2.11,1.45-3.44,1.45ZM.64,231.81v-32.12h8.48v32.12H.64Z"/>
      <path class="cls-1" d="M16.96,231.81v-32.12h7.97l.52,5.91v26.21h-8.48ZM38.23,215.36c0-2.19-.25-3.88-.74-5.08-.49-1.2-1.19-2.07-2.09-2.6-.9-.54-1.95-.8-3.15-.8-2.19-.04-3.87.62-5.04,1.99-1.18,1.37-1.77,3.41-1.77,6.1h-2.83c0-3.43.5-6.33,1.51-8.71,1.01-2.38,2.42-4.2,4.24-5.46,1.82-1.26,3.95-1.9,6.39-1.9s4.69.52,6.49,1.54c1.8,1.03,3.17,2.62,4.11,4.79.94,2.16,1.39,4.96,1.35,8.38v1.74h-8.48ZM38.23,231.81v-16.45h8.48v16.45h-8.48Z"/>
      <path class="cls-1" d="M50.69,206.88v-7.2h21.72v7.2h-21.72ZM66.69,232.58c-3.56,0-6.24-.88-8.06-2.64-1.82-1.75-2.73-4.26-2.73-7.52v-32.77h8.48v30.9c0,1.37.3,2.41.9,3.12.6.71,1.48,1.06,2.63,1.06.43,0,.9-.1,1.41-.29s1.05-.48,1.61-.87l2.95,6.36c-1.03.77-2.18,1.4-3.44,1.9-1.26.49-2.52.74-3.76.74Z"/>
      <path class="cls-1" d="M93.22,232.58c-3.17,0-5.98-.72-8.42-2.15-2.44-1.44-4.36-3.42-5.75-5.95-1.39-2.53-2.09-5.44-2.09-8.74s.72-6.21,2.15-8.74c1.43-2.53,3.4-4.51,5.91-5.95,2.5-1.43,5.39-2.15,8.64-2.15,2.83,0,5.43.74,7.81,2.22,2.38,1.48,4.28,3.64,5.72,6.49,1.44,2.85,2.15,6.31,2.15,10.38h-24.35l.77-.77c0,1.59.39,2.97,1.19,4.14.79,1.18,1.82,2.08,3.08,2.7,1.27.62,2.62.93,4.08.93,1.76,0,3.19-.37,4.31-1.12,1.11-.75,1.97-1.72,2.57-2.92l7.58,2.95c-.9,1.8-2.07,3.35-3.5,4.66-1.44,1.31-3.14,2.3-5.11,2.99-1.97.68-4.22,1.03-6.74,1.03ZM86.22,212.47l-.77-.77h15.48l-.71.77c0-1.54-.37-2.77-1.09-3.69-.73-.92-1.62-1.6-2.67-2.03-1.05-.43-2.07-.64-3.05-.64s-2.04.21-3.15.64c-1.12.43-2.07,1.1-2.86,2.03-.79.92-1.19,2.15-1.19,3.69Z"/>
      <path class="cls-1" d="M114.3,231.81v-32.12h8.48v32.12h-8.48ZM120.27,214.91c0-3.47.67-6.34,2.03-8.61,1.35-2.27,3.08-3.96,5.2-5.07,2.12-1.11,4.34-1.67,6.65-1.67v8.22c-1.97,0-3.82.24-5.56.71-1.74.47-3.14,1.24-4.21,2.31-1.07,1.07-1.61,2.44-1.61,4.11h-2.51Z"/>
      <path class="cls-1" d="M148.61,231.81l-13.17-32.12h8.74l12.21,32.12h-7.78ZM149.31,231.81l12.21-32.12h8.74l-13.17,32.12h-7.78Z"/>
      <path class="cls-1" d="M179.12,194.48c-1.28,0-2.42-.48-3.4-1.45-.99-.96-1.48-2.11-1.48-3.44s.49-2.48,1.48-3.44c.99-.96,2.12-1.45,3.4-1.45s2.48.48,3.44,1.45c.96.96,1.45,2.11,1.45,3.44s-.48,2.47-1.45,3.44c-.96.96-2.11,1.45-3.44,1.45ZM174.88,231.81v-32.12h8.48v32.12h-8.48Z"/>
      <path class="cls-1" d="M205.72,232.58c-3.17,0-5.98-.72-8.42-2.15-2.44-1.44-4.36-3.42-5.75-5.95-1.39-2.53-2.09-5.44-2.09-8.74s.72-6.21,2.15-8.74c1.43-2.53,3.4-4.51,5.91-5.95,2.5-1.43,5.39-2.15,8.64-2.15,2.83,0,5.43.74,7.81,2.22,2.38,1.48,4.28,3.64,5.72,6.49,1.44,2.85,2.15,6.31,2.15,10.38h-24.35l.77-.77c0,1.59.39,2.97,1.19,4.14.79,1.18,1.82,2.08,3.08,2.7,1.27.62,2.62.93,4.08.93,1.76,0,3.19-.37,4.31-1.12,1.11-.75,1.97-1.72,2.57-2.92l7.58,2.95c-.9,1.8-2.07,3.35-3.5,4.66s-3.14,2.3-5.11,2.99c-1.97.68-4.22,1.03-6.74,1.03ZM198.72,212.47l-.77-.77h15.48l-.71.77c0-1.54-.37-2.77-1.09-3.69-.73-.92-1.62-1.6-2.67-2.03-1.05-.43-2.07-.64-3.05-.64s-2.04.21-3.15.64c-1.12.43-2.07,1.1-2.86,2.03-.79.92-1.19,2.15-1.19,3.69Z"/>
      <path class="cls-1" d="M233.29,231.81l-10.92-32.12h8.61l10.22,32.12h-7.9ZM234.12,231.81l10.28-32.12h7.39l-10.15,32.12h-7.52ZM255.45,231.81l-10.02-32.12h7.32l10.22,32.12h-7.52ZM255.45,231.81l10.67-32.12h8.61l-10.92,32.12h-8.35Z"/>
    </g>
    <path class="cls-1" d="M145.75,74.87L20.86,2.76c-2.2-1.27-4.96.32-4.96,2.86v144.22c0,2.54,2.75,4.13,4.96,2.86l124.9-72.11c2.2-1.27,2.2-4.45,0-5.72Z"/>
    <path class="cls-1" d="M201.76,106.7l-1.49-37.2,19.88-1.93c5.7-.71,10.34-2.36,13.9-4.92,3.56-2.56,5.34-6.77,5.34-12.61,0-4.56-1.64-8.34-4.92-11.34-3.28-3-7.56-4.49-12.83-4.49-3.56,0-6.59.97-9.08,2.88-2.5,1.93-4.31,4.31-5.46,7.17l-34.42-9.19c2.85-10.83,8.55-19.38,17.1-25.66,8.56-6.27,19.17-9.41,31.86-9.41,10.55,0,19.89,2.14,28.02,6.41,8.12,4.28,14.51,10.16,19.14,17.65,4.63,7.48,6.95,16.14,6.95,25.98,0,7.13-1.53,13.51-4.6,19.14-3.07,5.63-7.41,10.26-13.05,13.9-5.63,3.63-12.22,6.09-19.78,7.37l-.64,16.25h-35.92ZM219.72,155.46c-5.98,0-11.15-2.18-15.5-6.53-4.35-4.35-6.53-9.51-6.53-15.51s2.17-11.15,6.53-15.5c4.35-4.35,9.51-6.53,15.5-6.53s11.16,2.18,15.51,6.53c4.35,4.35,6.53,9.51,6.53,15.5s-2.18,11.16-6.53,15.51c-4.35,4.35-9.51,6.53-15.51,6.53Z"/>
  </g>
</svg>