<?xml version="1.0" encoding="UTF-8"?>
<svg id="Layer_2" data-name="Layer 2" xmlns="http://www.w3.org/2000/svg" viewBox="0 0 182.37 196.77">
  <defs>
    <style>
      .cls-1 {
        fill: #fff;
      }
    </style>
  </defs>
  <g id="Layer_1-2" data-name="Layer 1">
    <g>
      <path class="cls-1" d="M18.32,90.8c-14.22.78-18,5.22-18,5.22-1.96,21,5.74,33,5.74,33l18-4.96c-6.65-9.65-5.74-33.26-5.74-33.26Z"/>
      <path class="cls-1" d="M24.11,124.28l-1.26.34c1.2,3.58,2.7,6.27,2.7,6.27l-15.58,4.11c1.17,1.7,3.13,2.74,3.13,2.74l15.78-4.17c-1.17-.52-4.77-9.3-4.77-9.3Z"/>
      <path class="cls-1" d="M81.06,159.67s-.52-10.17-6-12.78l-.78-6.78s-.74-2.7-5.74-2.35l-33.39,2.61s-3.59.4-2.09,4.17c0,0,16.17,42,27.39,51.65,0,0,0,1.3,6.52,0,6.52-1.3,23.22-6.26,23.22-6.26,0,0,3.91-8.35-3.39-15.65,0,0,0-10.96-5.74-14.61Z"/>
      <path class="cls-1" d="M113.41,31.32c-36,37.57-82.43,52.17-82.43,52.17-6.13,1.57-6.7,7.22-6.7,7.22.7,25.22,7.35,33.15,9.83,38.26,1.78,3.69,5.74,3.57,5.74,3.57,51.65-10.43,100.17,6.26,100.17,6.26-28.7-53.22-26.61-107.48-26.61-107.48Z"/>
      <path class="cls-1" d="M176.61,69.03C166.63,27.09,147.16-3.66,133.11.35c-14.04,4.01-17.34,41.25-7.36,83.19,9.98,41.94,29.45,72.68,43.49,68.68s17.34-41.25,7.36-83.19ZM132.04,70.88l-1.2-5.48s6.47-.78,6.47,2.74-5.27,2.74-5.27,2.74ZM167.64,145.45c-8.37,2.39-20.06-14.77-29.09-40.81,3.37-1.77,12.3-8.08,9.53-24.27-2.8-16.36-15.73-18.91-20.16-19.31-4.28-28.9-1.84-51.47,6.81-53.94,10.64-3.03,26.62,25.47,35.71,63.67,9.09,38.2,7.83,71.62-2.8,74.66ZM147.14,84.44c0,7.83-7.19,15.65-7.19,15.65-5.75-12.78,7.19-15.65,7.19-15.65Z"/>
    </g>
  </g>
</svg>