<?xml version="1.0" encoding="UTF-8"?>
<svg id="Layer_2" data-name="Layer 2" xmlns="http://www.w3.org/2000/svg" viewBox="0 0 663.01 816">
  <defs>
    <style>
      .cls-1 {
        fill: #4e50a2;
      }

      .cls-2 {
        fill: #5aba4d;
      }

      .cls-3 {
        fill: #f7941d;
      }

      .cls-4 {
        fill: #a7a9ac;
      }

      .cls-5 {
        fill: #6d6e71;
      }

      .cls-6 {
        fill: #dc186a;
      }
    </style>
  </defs>
  <g id="Layer_1-2" data-name="Layer 1">
    <g>
      <path class="cls-1" d="M616.37,0H46.64C20.88,0,0,20.88,0,46.64v722.73c0,25.76,20.88,46.63,46.64,46.63h569.74c25.76,0,46.64-20.88,46.64-46.63V46.64c0-25.76-20.88-46.64-46.64-46.64ZM644.23,757.6c0,20.55-16.66,37.22-37.22,37.22H57.44c-20.55,0-37.22-16.66-37.22-37.22V53.91c0-20.55,16.66-37.22,37.22-37.22h549.57c20.55,0,37.22,16.66,37.22,37.22v703.69Z"/>
      <path class="cls-6" d="M207,366.72l129.8-15.24c-8.42-71.69-73.35-122.98-145.04-114.57l15.24,129.8Z"/>
      <path class="cls-1" d="M183.53,245.27c-70.62,9.39-120.88,73.77-112.54,144.78,8.42,71.69,73.35,122.98,145.04,114.56,71.69-8.42,122.98-73.35,114.57-145.04l-131.83,15.48-15.24-129.78Z"/>
      <rect class="cls-4" x="369.13" y="301.37" width="218.63" height="37.57" rx="18.78" ry="18.78"/>
      <rect class="cls-4" x="369.13" y="366.72" width="218.63" height="37.57" rx="18.78" ry="18.78"/>
      <rect class="cls-4" x="74.87" y="579.59" width="218.63" height="37.57" rx="18.78" ry="18.78"/>
      <rect class="cls-4" x="74.87" y="645.33" width="218.63" height="37.57" rx="18.78" ry="18.78"/>
      <rect class="cls-4" x="74.87" y="703.07" width="218.63" height="37.57" rx="18.78" ry="18.78"/>
      <path class="cls-5" d="M341.55,592.43h55.15c5.56,0,10.07,4.51,10.07,10.07v143.74c0,1.32-1.07,2.4-2.4,2.4h-70.47c-1.32,0-2.4-1.07-2.4-2.4v-143.76c0-5.55,4.5-10.05,10.05-10.05Z"/>
      <path class="cls-2" d="M427.86,547.95h55.15c5.56,0,10.07,4.51,10.07,10.07v188.22c0,1.32-1.07,2.4-2.4,2.4h-70.47c-1.32,0-2.4-1.07-2.4-2.4v-188.24c0-5.55,4.5-10.05,10.05-10.05Z"/>
      <path class="cls-3" d="M516.09,503.11h55.15c5.56,0,10.07,4.51,10.07,10.07v233.06c0,1.32-1.07,2.4-2.4,2.4h-70.47c-1.32,0-2.4-1.07-2.4-2.4v-233.08c0-5.55,4.5-10.05,10.05-10.05Z"/>
      <g>
        <path class="cls-1" d="M69.74,162.08v-66.95h12.63v66.95h-12.63Z"/>
        <path class="cls-1" d="M100.34,106.51c-1.91,0-3.6-.72-5.07-2.15-1.47-1.43-2.2-3.14-2.2-5.12s.73-3.68,2.2-5.12c1.47-1.43,3.16-2.15,5.07-2.15s3.68.72,5.12,2.15c1.43,1.43,2.15,3.14,2.15,5.12s-.72,3.68-2.15,5.12c-1.43,1.43-3.14,2.15-5.12,2.15ZM94.03,162.08v-47.82h12.63v47.82h-12.63Z"/>
        <path class="cls-1" d="M118.33,162.08v-66.95h12.63v58.06l-.67,8.9h-11.96ZM145.39,163.23c-4.02,0-7.41-1.02-10.19-3.06s-4.89-4.94-6.36-8.7c-1.47-3.76-2.2-8.19-2.2-13.29s.73-9.61,2.2-13.34c1.47-3.73,3.59-6.61,6.36-8.66,2.77-2.04,6.17-3.06,10.19-3.06,4.4,0,8.21,1.02,11.43,3.06,3.22,2.04,5.72,4.93,7.51,8.66,1.78,3.73,2.68,8.18,2.68,13.34s-.89,9.53-2.68,13.29c-1.79,3.76-4.29,6.66-7.51,8.7-3.22,2.04-7.03,3.06-11.43,3.06ZM142.14,151.66c2.29,0,4.32-.57,6.07-1.72,1.75-1.15,3.14-2.74,4.16-4.78,1.02-2.04,1.53-4.37,1.53-6.98s-.49-4.94-1.48-6.98c-.99-2.04-2.36-3.62-4.11-4.74-1.75-1.12-3.78-1.67-6.07-1.67-2.17,0-4.11.57-5.83,1.72-1.72,1.15-3.06,2.73-4.02,4.74s-1.43,4.32-1.43,6.94.48,4.94,1.43,6.98c.96,2.04,2.28,3.64,3.97,4.78,1.69,1.15,3.62,1.72,5.79,1.72Z"/>
        <path class="cls-1" d="M175.33,162.08v-47.82h12.63v47.82h-12.63ZM184.23,136.93c0-5.16,1-9.44,3.01-12.82,2.01-3.38,4.59-5.9,7.75-7.56,3.16-1.66,6.46-2.49,9.9-2.49v12.24c-2.93,0-5.69.35-8.27,1.05-2.58.7-4.67,1.85-6.26,3.44-1.6,1.6-2.39,3.64-2.39,6.12h-3.73Z"/>
        <path class="cls-1" d="M227.08,163.23c-5.74,0-10.19-1.27-13.34-3.83-3.16-2.55-4.73-6.15-4.73-10.81,0-5.1,1.71-8.94,5.12-11.53,3.41-2.58,8.21-3.87,14.39-3.87h12.15v9.37h-7.75c-4.15,0-7.02.49-8.61,1.48-1.6.99-2.39,2.38-2.39,4.16,0,1.4.64,2.5,1.91,3.3,1.28.8,3.06,1.2,5.36,1.2,2.1,0,3.97-.49,5.6-1.48s2.92-2.26,3.87-3.83c.96-1.56,1.43-3.17,1.43-4.83h3.06c0,6.5-1.23,11.57-3.68,15.21-2.46,3.64-6.58,5.45-12.39,5.45ZM240.47,162.08l-.38-9.66v-14.54c0-2.87-.3-5.32-.91-7.36-.61-2.04-1.56-3.62-2.87-4.74-1.31-1.12-3.08-1.67-5.31-1.67-2.04,0-3.89.45-5.55,1.34-1.66.89-3.06,2.26-4.21,4.11l-11.1-3.83c.89-2.04,2.2-4.03,3.92-5.98,1.72-1.94,3.97-3.54,6.74-4.78,2.77-1.24,6.17-1.86,10.19-1.86,4.84,0,8.88.92,12.1,2.77,3.22,1.85,5.61,4.45,7.17,7.8,1.56,3.35,2.31,7.32,2.25,11.91l-.29,26.49h-11.76Z"/>
        <path class="cls-1" d="M262.56,162.08v-47.82h12.63v47.82h-12.63ZM271.45,136.93c0-5.16,1-9.44,3.01-12.82,2.01-3.38,4.59-5.9,7.75-7.56,3.16-1.66,6.46-2.49,9.9-2.49v12.24c-2.93,0-5.69.35-8.27,1.05-2.58.7-4.67,1.85-6.26,3.44-1.6,1.6-2.39,3.64-2.39,6.12h-3.73Z"/>
        <path class="cls-1" d="M315.64,162.08l-21.9-47.82h13.87l15.97,38.83,4.11,8.99h-12.05ZM308.37,182.36c-1.72,0-3.62-.33-5.69-1-2.07-.67-3.91-1.45-5.5-2.34l4.69-10.24c1.08.57,2.09,1.04,3.01,1.39.92.35,1.74.53,2.44.53,1.34,0,2.52-.37,3.54-1.1,1.02-.73,1.85-1.8,2.49-3.2l5.64-13.3,15.21-38.83h13.87l-21.71,51.94c-1.34,3.19-2.74,6.01-4.21,8.46-1.47,2.45-3.27,4.35-5.4,5.69-2.14,1.34-4.93,2.01-8.37,2.01Z"/>
        <path class="cls-1" d="M375.8,138.75v-24.49h12.63v24.49h-12.63ZM388.43,138.75c0,3.19.37,5.69,1.1,7.51.73,1.82,1.78,3.12,3.16,3.92,1.37.8,2.92,1.2,4.64,1.2,3.32.06,5.83-.94,7.56-3.01,1.72-2.07,2.58-5.09,2.58-9.04h4.3c0,5.1-.76,9.42-2.3,12.96-1.53,3.54-3.63,6.25-6.31,8.13-2.68,1.88-5.83,2.82-9.47,2.82-3.83,0-7.08-.77-9.76-2.29-2.68-1.53-4.7-3.91-6.07-7.13-1.37-3.22-2.06-7.38-2.06-12.48v-2.58h12.63ZM408.23,162.08l-.76-8.8v-39.02h12.63v47.82h-11.86Z"/>
        <path class="cls-1" d="M430.99,162.08v-47.82h11.86l.76,8.8v39.03h-12.63ZM462.65,137.6c0-3.25-.37-5.77-1.1-7.56-.73-1.78-1.77-3.07-3.11-3.87-1.34-.8-2.9-1.19-4.69-1.19-3.25-.06-5.76.92-7.51,2.96-1.75,2.04-2.63,5.07-2.63,9.09h-4.21c0-5.1.75-9.42,2.25-12.96,1.5-3.54,3.6-6.25,6.31-8.13,2.71-1.88,5.88-2.82,9.52-2.82s6.98.76,9.66,2.29c2.68,1.53,4.72,3.91,6.12,7.13,1.4,3.22,2.07,7.38,2.01,12.48v2.58h-12.63ZM462.65,162.08v-24.49h12.63v24.49h-12.63Z"/>
        <path class="cls-1" d="M492.4,106.51c-1.91,0-3.6-.72-5.07-2.15-1.47-1.43-2.2-3.14-2.2-5.12s.73-3.68,2.2-5.12c1.47-1.43,3.16-2.15,5.07-2.15s3.68.72,5.12,2.15c1.43,1.43,2.15,3.14,2.15,5.12s-.72,3.68-2.15,5.12c-1.43,1.43-3.14,2.15-5.12,2.15ZM486.08,162.08v-47.82h12.63v47.82h-12.63Z"/>
        <path class="cls-1" d="M506.26,124.97v-10.71h32.33v10.71h-32.33ZM530.08,163.23c-5.29,0-9.29-1.31-12-3.92-2.71-2.62-4.07-6.35-4.07-11.19v-48.78h12.63v46.01c0,2.04.44,3.59,1.34,4.64.89,1.05,2.2,1.58,3.92,1.58.64,0,1.34-.14,2.1-.43.76-.29,1.56-.72,2.39-1.29l4.4,9.47c-1.53,1.15-3.24,2.09-5.12,2.82-1.88.73-3.75,1.1-5.6,1.1Z"/>
        <path class="cls-1" d="M566.71,163.23c-3.06,0-5.93-.46-8.61-1.39s-5.04-2.26-7.08-4.02c-2.04-1.75-3.63-3.9-4.78-6.46l10.81-4.97c.96,1.53,2.26,2.85,3.92,3.97,1.66,1.12,3.57,1.67,5.74,1.67s3.73-.3,4.88-.91c1.15-.61,1.72-1.48,1.72-2.63s-.46-1.99-1.39-2.53c-.93-.54-2.19-1-3.78-1.39l-4.4-1.15c-4.59-1.21-8.21-3.14-10.86-5.79-2.65-2.65-3.97-5.69-3.97-9.13,0-4.91,1.58-8.7,4.74-11.38,3.16-2.68,7.64-4.02,13.44-4.02,3,0,5.79.45,8.37,1.34,2.58.89,4.8,2.14,6.65,3.73,1.85,1.6,3.12,3.44,3.83,5.55l-10.43,4.78c-.45-1.28-1.53-2.31-3.25-3.11-1.72-.8-3.44-1.2-5.17-1.2s-3.05.37-3.97,1.1c-.93.73-1.39,1.74-1.39,3.01,0,.83.44,1.52,1.34,2.05.89.54,2.17,1.01,3.83,1.39l6.22,1.53c3.12.76,5.63,1.99,7.51,3.68,1.88,1.69,3.25,3.57,4.11,5.64.86,2.07,1.29,4.1,1.29,6.07,0,2.87-.85,5.4-2.53,7.6-1.69,2.2-3.99,3.91-6.89,5.12-2.9,1.21-6.2,1.82-9.9,1.82Z"/>
      </g>
    </g>
  </g>
</svg>