<?xml version="1.0" encoding="UTF-8"?>
<svg id="Layer_2" data-name="Layer 2" xmlns="http://www.w3.org/2000/svg" viewBox="0 0 339.42 330.14">
  <defs>
    <style>
      .cls-1 {
        fill: #fff;
      }
    </style>
  </defs>
  <g id="Layer_1-2" data-name="Layer 1">
    <g>
      <path class="cls-1" d="M318.38,0H91.62c-11.62,0-21.03,9.42-21.03,21.04v61.85c0,9.42,7.64,17.06,17.06,17.06h0c9.42,0,17.06-7.64,17.06-17.06v-14.08c0-.8-.07-1.58-.18-2.35v-30.38c.63-4.08,4.8-4.22,5.92-4.19h189.11c4.15.34,4.34,2.39,5.01,4.6v258c-.34,3.64-3.44,3.94-5.01,3.88H110.45c-1.12.03-5.47.27-5.92-4.29v-31.18c.11-.77.18-1.55.18-2.35v-14.08c0-9.42-7.64-17.06-17.06-17.06h0c-9.42,0-17.06,7.64-17.06,17.06v14.08c0,.21.02.42.03.63h-.03v47.93c0,11.62,9.42,21.04,21.03,21.04h226.76c11.62,0,21.04-9.42,21.04-21.04V21.04c0-11.62-9.42-21.04-21.04-21.04Z"/>
      <path class="cls-1" d="M.93,134.74c-2.1,18.42,0,62.83,0,62.83,0,0-1.08,15.71,21.12,15.17,22.21-.54,97.49-1.62,97.49-1.62v44.14s-.88,7.45,7.04,12.19c9.67,5.79,18.42-5.96,18.42-5.96l85.04-83.95s15.17-10.83,0-23.29c-15.17-12.46-89.91-90.45-89.91-90.45,0,0-15.44-10.02-20.8,8.67v47.12H16.64s-13.95-.27-15.71,15.17ZM24.77,145.98l98.03-.54c24.37,1.08,21.12-11.37,21.12-11.37v-23.29l54.7,53.49-55.25,57v-25.46c-2.71-14.62-14.08-13.54-14.08-13.54H24.77v-36.29Z"/>
    </g>
  </g>
</svg>