<?xml version="1.0" encoding="UTF-8"?>
<svg id="Layer_2" xmlns="http://www.w3.org/2000/svg" viewBox="0 0 314.91 229.32">
  <defs>
    <style>
      .cls-1 {
        fill: #fff;
      }
    </style>
  </defs>
  <g id="Layer_1-2" data-name="Layer_1">
    <path class="cls-1" d="M299.53,0H15.37C6.88,0,0,6.88,0,15.37v198.58c0,8.49,6.88,15.37,15.37,15.37h284.16c8.49,0,15.37-6.88,15.37-15.37V15.37c0-8.49-6.88-15.37-15.37-15.37ZM251.34,29.08l-86.41,64.81c-10.8,4.99-12.46,0-12.46,0L63.56,29.08h187.78ZM27,50.7l73.12,54.84L27,186.96V50.7ZM36.97,197.75l73.95-78.92s8.31-4.14,14.96,0l25.76,17.43s7.48,4.15,15.79.83l20.77-18.27s6.65-5.8,14.96,0l74.78,78.92H36.97ZM287.9,182.8l-73.12-81.43,73.12-54.84v136.27Z"/>
  </g>
</svg>