<?xml version="1.0" encoding="UTF-8"?>
<svg id="Layer_2" data-name="Layer 2" xmlns="http://www.w3.org/2000/svg" viewBox="0 0 663.01 816">
  <defs>
    <style>
      .cls-1 {
        fill: #4e50a2;
      }

      .cls-2 {
        fill: #5aba4d;
      }

      .cls-3 {
        fill: #f7941d;
      }

      .cls-4 {
        fill: #a7a9ac;
      }

      .cls-5 {
        fill: #6d6e71;
      }

      .cls-6 {
        fill: #dc186a;
      }
    </style>
  </defs>
  <g id="Layer_1-2" data-name="Layer 1">
    <g>
      <path class="cls-1" d="M616.37,0H46.64C20.88,0,0,20.88,0,46.64v722.73c0,25.76,20.88,46.63,46.64,46.63h569.74c25.76,0,46.64-20.88,46.64-46.63V46.64c0-25.76-20.88-46.64-46.64-46.64ZM644.23,757.6c0,20.55-16.66,37.22-37.22,37.22H57.44c-20.55,0-37.22-16.66-37.22-37.22V53.91c0-20.55,16.66-37.22,37.22-37.22h549.57c20.55,0,37.22,16.66,37.22,37.22v703.69Z"/>
      <path class="cls-6" d="M207,366.72l129.8-15.24c-8.42-71.69-73.35-122.98-145.04-114.57l15.24,129.8Z"/>
      <path class="cls-1" d="M183.53,245.27c-70.62,9.39-120.88,73.77-112.54,144.78,8.42,71.69,73.35,122.98,145.04,114.56,71.69-8.42,122.98-73.35,114.57-145.04l-131.83,15.48-15.24-129.78Z"/>
      <rect class="cls-4" x="369.13" y="301.37" width="218.63" height="37.57" rx="18.78" ry="18.78"/>
      <rect class="cls-4" x="369.13" y="366.72" width="218.63" height="37.57" rx="18.78" ry="18.78"/>
      <rect class="cls-4" x="74.87" y="579.59" width="218.63" height="37.57" rx="18.78" ry="18.78"/>
      <rect class="cls-4" x="74.87" y="645.33" width="218.63" height="37.57" rx="18.78" ry="18.78"/>
      <rect class="cls-4" x="74.87" y="703.07" width="218.63" height="37.57" rx="18.78" ry="18.78"/>
      <path class="cls-5" d="M341.55,592.43h55.15c5.56,0,10.07,4.51,10.07,10.07v143.74c0,1.32-1.07,2.4-2.4,2.4h-70.47c-1.32,0-2.4-1.07-2.4-2.4v-143.76c0-5.55,4.5-10.05,10.05-10.05Z"/>
      <path class="cls-2" d="M427.86,547.95h55.15c5.56,0,10.07,4.51,10.07,10.07v188.22c0,1.32-1.07,2.4-2.4,2.4h-70.47c-1.32,0-2.4-1.07-2.4-2.4v-188.24c0-5.55,4.5-10.05,10.05-10.05Z"/>
      <path class="cls-3" d="M516.09,503.11h55.15c5.56,0,10.07,4.51,10.07,10.07v233.06c0,1.32-1.07,2.4-2.4,2.4h-70.47c-1.32,0-2.4-1.07-2.4-2.4v-233.08c0-5.55,4.5-10.05,10.05-10.05Z"/>
      <g>
        <path class="cls-1" d="M197.51,111.43v-36h8.93l.43,4.68c1.1-1.82,2.52-3.2,4.25-4.14,1.73-.94,3.65-1.4,5.76-1.4,2.93,0,5.39.62,7.38,1.87,1.99,1.25,3.44,3.17,4.36,5.76,1.06-2.45,2.54-4.33,4.46-5.65,1.92-1.32,4.15-1.98,6.7-1.98,4.22,0,7.44,1.33,9.65,4s3.31,6.76,3.31,12.28v20.59h-9.5v-18.43c0-2.45-.26-4.34-.79-5.69-.53-1.34-1.25-2.31-2.16-2.92-.91-.6-1.99-.9-3.24-.9-2.3-.05-4.08.7-5.33,2.23-1.25,1.54-1.87,3.82-1.87,6.84v18.86h-9.5v-18.43c0-2.45-.25-4.34-.76-5.69-.5-1.34-1.22-2.31-2.16-2.92-.94-.6-2.03-.9-3.28-.9-2.3-.05-4.07.7-5.29,2.23-1.22,1.54-1.84,3.82-1.84,6.84v18.86h-9.5Z"/>
        <path class="cls-1" d="M276.56,112.29c-3.55,0-6.7-.8-9.43-2.41-2.74-1.61-4.88-3.83-6.44-6.66-1.56-2.83-2.34-6.1-2.34-9.79s.8-6.96,2.41-9.79c1.61-2.83,3.82-5.05,6.62-6.66,2.81-1.61,6.04-2.41,9.68-2.41,3.17,0,6.08.83,8.75,2.48,2.66,1.66,4.8,4.08,6.41,7.27,1.61,3.19,2.41,7.07,2.41,11.63h-27.29l.86-.86c0,1.78.44,3.32,1.33,4.64.89,1.32,2.04,2.33,3.46,3.02,1.42.7,2.94,1.04,4.57,1.04,1.97,0,3.58-.42,4.82-1.26,1.25-.84,2.21-1.93,2.88-3.28l8.5,3.31c-1.01,2.02-2.32,3.76-3.92,5.22-1.61,1.46-3.52,2.58-5.72,3.35-2.21.77-4.73,1.15-7.56,1.15ZM268.72,89.76l-.86-.86h17.35l-.79.86c0-1.73-.41-3.11-1.22-4.14-.82-1.03-1.81-1.79-2.99-2.27-1.18-.48-2.32-.72-3.42-.72s-2.28.24-3.53.72c-1.25.48-2.32,1.24-3.2,2.27-.89,1.03-1.33,2.41-1.33,4.14Z"/>
        <path class="cls-1" d="M300.18,111.43v-36h8.93l.43,4.68c1.1-1.82,2.52-3.2,4.25-4.14,1.73-.94,3.65-1.4,5.76-1.4,2.93,0,5.39.62,7.38,1.87,1.99,1.25,3.44,3.17,4.36,5.76,1.06-2.45,2.54-4.33,4.46-5.65,1.92-1.32,4.15-1.98,6.7-1.98,4.22,0,7.44,1.33,9.65,4s3.31,6.76,3.31,12.28v20.59h-9.5v-18.43c0-2.45-.26-4.34-.79-5.69-.53-1.34-1.25-2.31-2.16-2.92-.91-.6-1.99-.9-3.24-.9-2.3-.05-4.08.7-5.33,2.23-1.25,1.54-1.87,3.82-1.87,6.84v18.86h-9.5v-18.43c0-2.45-.25-4.34-.76-5.69-.5-1.34-1.22-2.31-2.16-2.92-.94-.6-2.03-.9-3.28-.9-2.3-.05-4.07.7-5.29,2.23-1.22,1.54-1.84,3.82-1.84,6.84v18.86h-9.5Z"/>
        <path class="cls-1" d="M362.96,111.43v-50.4h9.5v43.7l-.5,6.7h-9ZM383.34,112.29c-3.02,0-5.58-.77-7.67-2.3-2.09-1.54-3.68-3.72-4.79-6.55-1.11-2.83-1.66-6.17-1.66-10.01s.55-7.24,1.66-10.04c1.1-2.81,2.7-4.98,4.79-6.52,2.09-1.54,4.64-2.3,7.67-2.3,3.31,0,6.18.77,8.6,2.3,2.42,1.54,4.31,3.71,5.65,6.52,1.34,2.81,2.02,6.16,2.02,10.04s-.67,7.18-2.02,10.01c-1.34,2.83-3.23,5.02-5.65,6.55-2.42,1.54-5.29,2.3-8.6,2.3ZM380.89,103.58c1.73,0,3.25-.43,4.57-1.3,1.32-.86,2.36-2.06,3.13-3.6.77-1.54,1.15-3.29,1.15-5.26s-.37-3.72-1.12-5.26c-.75-1.54-1.78-2.72-3.1-3.56-1.32-.84-2.84-1.26-4.57-1.26-1.63,0-3.1.43-4.39,1.3-1.3.86-2.3,2.05-3.02,3.56-.72,1.51-1.08,3.25-1.08,5.22s.36,3.72,1.08,5.26c.72,1.54,1.71,2.74,2.99,3.6,1.27.86,2.72,1.3,4.36,1.3Z"/>
        <path class="cls-1" d="M422.14,112.29c-3.55,0-6.7-.8-9.43-2.41-2.74-1.61-4.88-3.83-6.44-6.66-1.56-2.83-2.34-6.1-2.34-9.79s.8-6.96,2.41-9.79c1.61-2.83,3.82-5.05,6.62-6.66,2.81-1.61,6.04-2.41,9.68-2.41,3.17,0,6.08.83,8.75,2.48,2.66,1.66,4.8,4.08,6.41,7.27,1.61,3.19,2.41,7.07,2.41,11.63h-27.29l.86-.86c0,1.78.44,3.32,1.33,4.64.89,1.32,2.04,2.33,3.46,3.02,1.42.7,2.94,1.04,4.57,1.04,1.97,0,3.58-.42,4.82-1.26,1.25-.84,2.21-1.93,2.88-3.28l8.5,3.31c-1.01,2.02-2.32,3.76-3.92,5.22-1.61,1.46-3.52,2.58-5.72,3.35-2.21.77-4.73,1.15-7.56,1.15ZM414.3,89.76l-.86-.86h17.35l-.79.86c0-1.73-.41-3.11-1.22-4.14-.82-1.03-1.81-1.79-2.99-2.27-1.18-.48-2.32-.72-3.42-.72s-2.28.24-3.53.72c-1.25.48-2.32,1.24-3.2,2.27-.89,1.03-1.33,2.41-1.33,4.14Z"/>
        <path class="cls-1" d="M445.76,111.43v-36h9.5v36h-9.5ZM452.45,92.49c0-3.89.76-7.1,2.27-9.65,1.51-2.54,3.46-4.44,5.83-5.69,2.38-1.25,4.86-1.87,7.45-1.87v9.22c-2.21,0-4.28.26-6.23.79-1.94.53-3.52,1.39-4.72,2.59s-1.8,2.74-1.8,4.61h-2.81Z"/>
      </g>
      <g>
        <path class="cls-1" d="M143.45,181.28c-3.55,0-6.7-.8-9.43-2.41-2.74-1.61-4.88-3.83-6.44-6.66-1.56-2.83-2.34-6.09-2.34-9.79s.8-6.96,2.41-9.79c1.61-2.83,3.82-5.05,6.62-6.66,2.81-1.61,6.04-2.41,9.68-2.41,3.17,0,6.08.83,8.75,2.48s4.8,4.08,6.41,7.27c1.61,3.19,2.41,7.07,2.41,11.63h-27.29l.86-.86c0,1.78.44,3.32,1.33,4.64.89,1.32,2.04,2.33,3.46,3.02,1.42.7,2.94,1.04,4.57,1.04,1.97,0,3.58-.42,4.82-1.26,1.25-.84,2.21-1.93,2.88-3.28l8.5,3.31c-1.01,2.02-2.32,3.76-3.92,5.22-1.61,1.46-3.52,2.58-5.72,3.35-2.21.77-4.73,1.15-7.56,1.15ZM135.6,158.74l-.86-.86h17.35l-.79.86c0-1.73-.41-3.11-1.22-4.14-.82-1.03-1.81-1.79-2.99-2.27-1.18-.48-2.32-.72-3.42-.72s-2.28.24-3.53.72c-1.25.48-2.32,1.24-3.2,2.27-.89,1.03-1.33,2.41-1.33,4.14Z"/>
        <path class="cls-1" d="M167.06,180.41v-36h8.93l.58,6.62v29.38h-9.5ZM190.89,161.98c0-2.45-.28-4.34-.83-5.69-.55-1.34-1.33-2.31-2.34-2.92-1.01-.6-2.18-.9-3.53-.9-2.45-.05-4.33.7-5.65,2.23-1.32,1.54-1.98,3.82-1.98,6.84h-3.17c0-3.84.56-7.09,1.69-9.76,1.13-2.66,2.71-4.7,4.75-6.12,2.04-1.42,4.43-2.12,7.16-2.12s5.26.58,7.27,1.73c2.02,1.15,3.55,2.94,4.61,5.36s1.56,5.56,1.51,9.4v1.94h-9.5ZM190.89,180.41v-18.43h9.5v18.43h-9.5Z"/>
        <path class="cls-1" d="M222.28,179.4c-3.31,0-6.18-.72-8.6-2.16-2.42-1.44-4.31-3.46-5.65-6.05s-2.02-5.66-2.02-9.22c0-3.74.67-7,2.02-9.76,1.34-2.76,3.23-4.9,5.65-6.41,2.42-1.51,5.29-2.27,8.6-2.27,2.88,0,5.38.76,7.49,2.27,2.11,1.51,3.74,3.66,4.9,6.44,1.15,2.78,1.73,6.1,1.73,9.94,0,3.46-.58,6.48-1.73,9.07-1.15,2.59-2.79,4.6-4.9,6.01-2.11,1.42-4.61,2.12-7.49,2.12ZM224.16,195.75c-2.74,0-5.16-.19-7.27-.58-2.11-.38-3.89-.89-5.33-1.51-1.44-.62-2.62-1.25-3.53-1.87l3.74-7.63c.67.38,1.56.83,2.66,1.33,1.1.5,2.42.94,3.96,1.3,1.54.36,3.31.54,5.33.54s3.61-.37,5.08-1.12c1.46-.74,2.62-1.9,3.46-3.46.84-1.56,1.26-3.54,1.26-5.94v-32.4h9.5v32.11c0,4.03-.77,7.5-2.3,10.4-1.54,2.9-3.71,5.1-6.52,6.59-2.81,1.49-6.16,2.23-10.04,2.23ZM225.02,171.41c1.63,0,3.06-.42,4.28-1.26,1.22-.84,2.17-1.99,2.84-3.46.67-1.46,1.01-3.13,1.01-5s-.35-3.6-1.04-5.04c-.7-1.44-1.66-2.57-2.88-3.38-1.22-.82-2.65-1.22-4.28-1.22s-3.17.41-4.46,1.22c-1.3.82-2.3,1.94-3.02,3.38-.72,1.44-1.11,3.12-1.15,5.04.05,1.87.43,3.54,1.15,5,.72,1.46,1.74,2.62,3.06,3.46,1.32.84,2.82,1.26,4.5,1.26Z"/>
        <path class="cls-1" d="M262.89,181.28c-4.32,0-7.67-.96-10.04-2.88-2.38-1.92-3.56-4.63-3.56-8.14,0-3.84,1.28-6.73,3.85-8.68,2.57-1.94,6.18-2.92,10.84-2.92h9.14v7.06h-5.83c-3.12,0-5.28.37-6.48,1.12-1.2.74-1.8,1.79-1.8,3.13,0,1.06.48,1.88,1.44,2.48.96.6,2.3.9,4.03.9,1.58,0,2.99-.37,4.21-1.12,1.22-.74,2.2-1.7,2.92-2.88.72-1.18,1.08-2.39,1.08-3.64h2.3c0,4.9-.92,8.71-2.77,11.45-1.85,2.74-4.96,4.1-9.32,4.1ZM272.97,180.41l-.29-7.27v-10.94c0-2.16-.23-4.01-.68-5.54-.46-1.54-1.18-2.72-2.16-3.56-.98-.84-2.32-1.26-4-1.26-1.54,0-2.93.34-4.18,1.01-1.25.67-2.3,1.71-3.17,3.1l-8.35-2.88c.67-1.54,1.66-3.04,2.95-4.5,1.3-1.46,2.99-2.66,5.08-3.6,2.09-.94,4.64-1.4,7.67-1.4,3.65,0,6.68.7,9.11,2.09,2.42,1.39,4.22,3.35,5.4,5.87,1.18,2.52,1.74,5.51,1.69,8.96l-.22,19.94h-8.86Z"/>
        <path class="cls-1" d="M303.93,179.4c-3.31,0-6.18-.72-8.6-2.16-2.42-1.44-4.31-3.46-5.65-6.05s-2.02-5.66-2.02-9.22c0-3.74.67-7,2.02-9.76,1.34-2.76,3.23-4.9,5.65-6.41,2.42-1.51,5.29-2.27,8.6-2.27,2.88,0,5.38.76,7.49,2.27,2.11,1.51,3.74,3.66,4.9,6.44,1.15,2.78,1.73,6.1,1.73,9.94,0,3.46-.58,6.48-1.73,9.07-1.15,2.59-2.79,4.6-4.9,6.01-2.11,1.42-4.61,2.12-7.49,2.12ZM305.8,195.75c-2.74,0-5.16-.19-7.27-.58-2.11-.38-3.89-.89-5.33-1.51-1.44-.62-2.62-1.25-3.53-1.87l3.74-7.63c.67.38,1.56.83,2.66,1.33,1.1.5,2.42.94,3.96,1.3,1.54.36,3.31.54,5.33.54s3.61-.37,5.08-1.12c1.46-.74,2.62-1.9,3.46-3.46.84-1.56,1.26-3.54,1.26-5.94v-32.4h9.5v32.11c0,4.03-.77,7.5-2.3,10.4-1.54,2.9-3.71,5.1-6.52,6.59-2.81,1.49-6.16,2.23-10.04,2.23ZM306.67,171.41c1.63,0,3.06-.42,4.28-1.26,1.22-.84,2.17-1.99,2.84-3.46.67-1.46,1.01-3.13,1.01-5s-.35-3.6-1.04-5.04c-.7-1.44-1.66-2.57-2.88-3.38-1.22-.82-2.65-1.22-4.28-1.22s-3.17.41-4.46,1.22c-1.3.82-2.3,1.94-3.02,3.38-.72,1.44-1.11,3.12-1.15,5.04.05,1.87.43,3.54,1.15,5,.72,1.46,1.74,2.62,3.06,3.46,1.32.84,2.82,1.26,4.5,1.26Z"/>
        <path class="cls-1" d="M349.15,181.28c-3.55,0-6.7-.8-9.43-2.41-2.74-1.61-4.88-3.83-6.44-6.66-1.56-2.83-2.34-6.09-2.34-9.79s.8-6.96,2.41-9.79c1.61-2.83,3.82-5.05,6.62-6.66,2.81-1.61,6.04-2.41,9.68-2.41,3.17,0,6.08.83,8.75,2.48s4.8,4.08,6.41,7.27c1.61,3.19,2.41,7.07,2.41,11.63h-27.29l.86-.86c0,1.78.44,3.32,1.33,4.64.89,1.32,2.04,2.33,3.46,3.02,1.42.7,2.94,1.04,4.57,1.04,1.97,0,3.58-.42,4.82-1.26,1.25-.84,2.21-1.93,2.88-3.28l8.5,3.31c-1.01,2.02-2.32,3.76-3.92,5.22-1.61,1.46-3.52,2.58-5.72,3.35-2.21.77-4.73,1.15-7.56,1.15ZM341.3,158.74l-.86-.86h17.35l-.79.86c0-1.73-.41-3.11-1.22-4.14-.82-1.03-1.81-1.79-2.99-2.27-1.18-.48-2.32-.72-3.42-.72s-2.28.24-3.53.72c-1.25.48-2.32,1.24-3.2,2.27-.89,1.03-1.33,2.41-1.33,4.14Z"/>
        <path class="cls-1" d="M372.76,180.41v-36h8.93l.43,4.68c1.1-1.82,2.52-3.2,4.25-4.14,1.73-.94,3.65-1.4,5.76-1.4,2.93,0,5.39.62,7.38,1.87,1.99,1.25,3.44,3.17,4.36,5.76,1.06-2.45,2.54-4.33,4.46-5.65,1.92-1.32,4.15-1.98,6.7-1.98,4.22,0,7.44,1.33,9.65,4s3.31,6.76,3.31,12.28v20.59h-9.5v-18.43c0-2.45-.26-4.34-.79-5.69-.53-1.34-1.25-2.31-2.16-2.92-.91-.6-1.99-.9-3.24-.9-2.3-.05-4.08.7-5.33,2.23-1.25,1.54-1.87,3.82-1.87,6.84v18.86h-9.5v-18.43c0-2.45-.25-4.34-.76-5.69-.5-1.34-1.22-2.31-2.16-2.92-.94-.6-2.03-.9-3.28-.9-2.3-.05-4.07.7-5.29,2.23-1.22,1.54-1.84,3.82-1.84,6.84v18.86h-9.5Z"/>
        <path class="cls-1" d="M451.82,181.28c-3.55,0-6.7-.8-9.43-2.41-2.74-1.61-4.88-3.83-6.44-6.66-1.56-2.83-2.34-6.09-2.34-9.79s.8-6.96,2.41-9.79c1.61-2.83,3.82-5.05,6.62-6.66,2.81-1.61,6.04-2.41,9.68-2.41,3.17,0,6.08.83,8.75,2.48s4.8,4.08,6.41,7.27c1.61,3.19,2.41,7.07,2.41,11.63h-27.29l.86-.86c0,1.78.44,3.32,1.33,4.64.89,1.32,2.04,2.33,3.46,3.02,1.42.7,2.94,1.04,4.57,1.04,1.97,0,3.58-.42,4.82-1.26,1.25-.84,2.21-1.93,2.88-3.28l8.5,3.31c-1.01,2.02-2.32,3.76-3.92,5.22-1.61,1.46-3.52,2.58-5.72,3.35-2.21.77-4.73,1.15-7.56,1.15ZM443.97,158.74l-.86-.86h17.35l-.79.86c0-1.73-.41-3.11-1.22-4.14-.82-1.03-1.81-1.79-2.99-2.27-1.18-.48-2.32-.72-3.42-.72s-2.28.24-3.53.72c-1.25.48-2.32,1.24-3.2,2.27-.89,1.03-1.33,2.41-1.33,4.14Z"/>
        <path class="cls-1" d="M475.43,180.41v-36h8.93l.58,6.62v29.38h-9.5ZM499.26,161.98c0-2.45-.28-4.34-.83-5.69-.55-1.34-1.33-2.31-2.34-2.92-1.01-.6-2.18-.9-3.53-.9-2.45-.05-4.33.7-5.65,2.23-1.32,1.54-1.98,3.82-1.98,6.84h-3.17c0-3.84.56-7.09,1.69-9.76,1.13-2.66,2.71-4.7,4.75-6.12,2.04-1.42,4.43-2.12,7.16-2.12s5.26.58,7.27,1.73c2.02,1.15,3.55,2.94,4.61,5.36s1.56,5.56,1.51,9.4v1.94h-9.5ZM499.26,180.41v-18.43h9.5v18.43h-9.5Z"/>
        <path class="cls-1" d="M513.23,152.48v-8.06h24.34v8.06h-24.34ZM531.16,181.28c-3.98,0-7-.98-9.04-2.95-2.04-1.97-3.06-4.78-3.06-8.42v-36.72h9.5v34.63c0,1.54.34,2.7,1.01,3.49s1.66,1.19,2.95,1.19c.48,0,1.01-.11,1.58-.32.58-.22,1.18-.54,1.8-.97l3.31,7.13c-1.15.86-2.44,1.57-3.85,2.12-1.42.55-2.82.83-4.21.83Z"/>
      </g>
    </g>
  </g>
</svg>