<?xml version="1.0" encoding="UTF-8"?>
<svg id="Layer_2" data-name="Layer 2" xmlns="http://www.w3.org/2000/svg" viewBox="0 0 380.01 305.28">
  <defs>
    <style>
      .cls-1 {
        fill: #f37b78;
      }

      .cls-2 {
        fill: #231f20;
      }

      .cls-3 {
        fill: #4e50a2;
      }

      .cls-4 {
        fill: #fff;
      }

      .cls-5 {
        fill: #808285;
      }

      .cls-6 {
        fill: #2c1121;
      }
    </style>
  </defs>
  <g id="Layer_1-2" data-name="Layer 1">
    <rect class="cls-3" x="47.63" width="272.79" height="190.18" rx="4.3" ry="4.3"/>
    <rect class="cls-5" x="161.71" y="195.43" width="37.55" height="18.77"/>
    <rect class="cls-5" x="127.23" y="219.45" width="106.51" height="18.77"/>
    <circle class="cls-4" cx="134.5" cy="84.33" r="63.57"/>
    <rect class="cls-4" x="60.05" y="158.54" width="246.27" height="17.01" rx="1.67" ry="1.67"/>
    <rect class="cls-2" x="90.73" y="111.05" width="82.37" height="8.69" rx=".85" ry=".85"/>
    <rect class="cls-2" x="90.73" y="92.27" width="82.37" height="8.69" rx=".85" ry=".85"/>
    <rect class="cls-2" x="90.73" y="73.49" width="82.37" height="8.69" rx=".85" ry=".85"/>
    <rect class="cls-2" x="131.67" y="56.63" width="41.19" height="8.69" rx=".85" ry=".85"/>
    <circle class="cls-2" cx="184.02" cy="167.05" r="7.15"/>
    <circle class="cls-2" cx="106.09" cy="51.11" r="12.29"/>
    <rect class="cls-4" x="221.74" y="117.71" width="61.17" height="17"/>
    <path class="cls-5" d="M227.43,104.95v-19.41s1.7-10.01,13.79-11.65c12.09-1.64,21.46-.24,22.31,0,.85.24,12.6,2.79,13.62,11.3v19.75s-49.72,0-49.72,0Z"/>
    <polygon class="cls-5" points="214.31 104.95 229.3 82.58 228.45 98.14 222.49 104.95 214.31 104.95"/>
    <polygon class="cls-5" points="279.79 104.95 287.63 104.95 276.05 82.58 276.05 93.76 279.79 104.95"/>
    <path class="cls-6" d="M257.28,83.84s5.98.72,7.34-9.21l-8.68-1.52,1.34,10.73Z"/>
    <path class="cls-6" d="M248.27,83.8s-6.01.38-6.81-9.61l8.75-1.03-1.94,10.64Z"/>
    <polygon class="cls-1" points="250.21 83.01 252.94 77.9 256.09 83.01 253.15 87.86 250.21 83.01"/>
    <polygon class="cls-1" points="251.15 86.92 253.06 89.42 254.86 86.92 256.62 106.46 248.73 106.46 251.15 86.92"/>
    <circle class="cls-4" cx="252.67" cy="63.19" r="13.98"/>
    <rect class="cls-4" x="213.24" y="104.55" width="80.01" height="9.17"/>
    <g>
      <path class="cls-3" d="M0,304.53v-31.33h7.77l.37,4.07c.96-1.59,2.19-2.79,3.7-3.61,1.5-.82,3.17-1.22,5.01-1.22,2.55,0,4.69.54,6.42,1.63,1.73,1.09,3,2.76,3.79,5.01.92-2.13,2.21-3.77,3.89-4.92,1.67-1.15,3.61-1.72,5.83-1.72,3.68,0,6.47,1.16,8.4,3.48,1.92,2.32,2.88,5.88,2.88,10.68v17.92h-8.27v-16.04c0-2.13-.23-3.78-.69-4.95-.46-1.17-1.09-2.02-1.88-2.54-.79-.52-1.73-.79-2.82-.79-2.01-.04-3.55.61-4.64,1.94-1.09,1.34-1.63,3.32-1.63,5.96v16.41h-8.27v-16.04c0-2.13-.22-3.78-.66-4.95-.44-1.17-1.07-2.02-1.88-2.54s-1.77-.79-2.85-.79c-2.01-.04-3.54.61-4.61,1.94-1.06,1.34-1.6,3.32-1.6,5.96v16.41H0Z"/>
      <path class="cls-3" d="M59.27,268.13c-1.25,0-2.36-.47-3.32-1.41-.96-.94-1.44-2.05-1.44-3.35s.48-2.41,1.44-3.36c.96-.94,2.07-1.41,3.32-1.41s2.41.47,3.35,1.41c.94.94,1.41,2.06,1.41,3.36s-.47,2.41-1.41,3.35c-.94.94-2.06,1.41-3.35,1.41ZM55.14,304.53v-31.33h8.27v31.33h-8.27Z"/>
      <path class="cls-3" d="M86.15,305.28c-3.26,0-6.16-.7-8.71-2.1-2.55-1.4-4.53-3.34-5.95-5.83-1.42-2.48-2.13-5.31-2.13-8.49s.71-6.06,2.13-8.52c1.42-2.46,3.38-4.4,5.89-5.8,2.51-1.4,5.39-2.1,8.65-2.1s5.99.77,8.58,2.32c2.59,1.55,4.47,3.78,5.64,6.71l-7.77,2.76c-.59-1.21-1.49-2.18-2.73-2.92-1.23-.73-2.6-1.1-4.1-1.1s-2.9.37-4.07,1.1c-1.17.73-2.09,1.74-2.76,3.04-.67,1.3-1,2.8-1,4.51s.33,3.21,1,4.48c.67,1.27,1.61,2.28,2.82,3.04,1.21.75,2.59,1.13,4.14,1.13s2.87-.4,4.1-1.19c1.23-.79,2.14-1.84,2.73-3.13l7.83,2.76c-1.21,2.96-3.1,5.26-5.67,6.89-2.57,1.63-5.44,2.44-8.62,2.44Z"/>
      <path class="cls-3" d="M105.26,304.53v-31.33h8.27v31.33h-8.27ZM111.09,288.05c0-3.38.66-6.18,1.97-8.39,1.32-2.21,3.01-3.87,5.07-4.95s4.23-1.63,6.49-1.63v8.02c-1.92,0-3.73.23-5.42.69-1.69.46-3.06,1.21-4.1,2.26-1.05,1.05-1.57,2.38-1.57,4.01h-2.44Z"/>
      <path class="cls-3" d="M143.73,305.28c-3.17,0-6.01-.7-8.49-2.1-2.49-1.4-4.43-3.33-5.83-5.8-1.4-2.46-2.1-5.3-2.1-8.52s.69-6.06,2.07-8.52c1.38-2.46,3.3-4.4,5.76-5.8,2.46-1.4,5.28-2.1,8.46-2.1s6.06.7,8.52,2.1c2.46,1.4,4.39,3.33,5.76,5.8,1.38,2.46,2.07,5.3,2.07,8.52s-.69,6.06-2.07,8.52c-1.38,2.47-3.29,4.4-5.73,5.8-2.44,1.4-5.25,2.1-8.43,2.1ZM143.73,297.64c1.55,0,2.9-.37,4.07-1.13,1.17-.75,2.08-1.78,2.73-3.1s.97-2.83.97-4.54-.33-3.23-1-4.54c-.67-1.32-1.6-2.35-2.79-3.1-1.19-.75-2.56-1.13-4.1-1.13s-2.85.37-4.04,1.13c-1.19.75-2.12,1.78-2.79,3.1-.67,1.32-1,2.83-1,4.54s.33,3.23,1,4.54c.67,1.32,1.61,2.35,2.82,3.1,1.21.75,2.59,1.13,4.14,1.13Z"/>
      <path class="cls-3" d="M165.23,289.43v-7.08h18.8v7.08h-18.8Z"/>
      <path class="cls-3" d="M206.08,305.28c-3.26,0-6.16-.7-8.71-2.1-2.55-1.4-4.53-3.34-5.95-5.83-1.42-2.48-2.13-5.31-2.13-8.49s.71-6.06,2.13-8.52c1.42-2.46,3.38-4.4,5.89-5.8,2.51-1.4,5.39-2.1,8.65-2.1s5.99.77,8.58,2.32c2.59,1.55,4.47,3.78,5.64,6.71l-7.77,2.76c-.59-1.21-1.49-2.18-2.73-2.92-1.23-.73-2.6-1.1-4.1-1.1s-2.9.37-4.07,1.1c-1.17.73-2.09,1.74-2.76,3.04-.67,1.3-1,2.8-1,4.51s.33,3.21,1,4.48c.67,1.27,1.61,2.28,2.82,3.04,1.21.75,2.59,1.13,4.14,1.13s2.87-.4,4.1-1.19c1.23-.79,2.14-1.84,2.73-3.13l7.83,2.76c-1.21,2.96-3.1,5.26-5.67,6.89-2.57,1.63-5.44,2.44-8.62,2.44Z"/>
      <path class="cls-3" d="M239.91,305.28c-3.17,0-6.01-.7-8.49-2.1-2.49-1.4-4.43-3.33-5.83-5.8-1.4-2.46-2.1-5.3-2.1-8.52s.69-6.06,2.07-8.52c1.38-2.46,3.3-4.4,5.76-5.8,2.46-1.4,5.28-2.1,8.46-2.1s6.06.7,8.52,2.1c2.46,1.4,4.39,3.33,5.76,5.8,1.38,2.46,2.07,5.3,2.07,8.52s-.69,6.06-2.07,8.52c-1.38,2.47-3.29,4.4-5.73,5.8-2.44,1.4-5.25,2.1-8.43,2.1ZM239.91,297.64c1.55,0,2.9-.37,4.07-1.13,1.17-.75,2.08-1.78,2.73-3.1s.97-2.83.97-4.54-.33-3.23-1-4.54c-.67-1.32-1.6-2.35-2.79-3.1-1.19-.75-2.56-1.13-4.1-1.13s-2.85.37-4.04,1.13c-1.19.75-2.12,1.78-2.79,3.1-.67,1.32-1,2.83-1,4.54s.33,3.23,1,4.54c.67,1.32,1.61,2.35,2.82,3.1,1.21.75,2.59,1.13,4.14,1.13Z"/>
      <path class="cls-3" d="M261.03,289.25v-16.04h8.27v16.04h-8.27ZM269.3,289.25c0,2.09.24,3.73.72,4.92.48,1.19,1.17,2.05,2.07,2.57.9.53,1.91.79,3.04.79,2.17.04,3.82-.62,4.95-1.97,1.13-1.36,1.69-3.33,1.69-5.93h2.82c0,3.35-.5,6.18-1.5,8.49-1,2.32-2.38,4.09-4.14,5.33-1.75,1.23-3.82,1.85-6.2,1.85-2.51,0-4.64-.5-6.39-1.5-1.75-1-3.08-2.56-3.98-4.67-.9-2.11-1.35-4.83-1.35-8.17v-1.69h8.27ZM282.27,304.53l-.5-5.76v-25.57h8.27v31.33h-7.77Z"/>
      <path class="cls-3" d="M297.18,304.53v-31.33h8.27v31.33h-8.27ZM303.01,288.05c0-3.38.66-6.18,1.97-8.39s3.01-3.87,5.07-4.95c2.07-1.09,4.23-1.63,6.49-1.63v8.02c-1.92,0-3.73.23-5.42.69-1.69.46-3.06,1.21-4.1,2.26-1.05,1.05-1.57,2.38-1.57,4.01h-2.44Z"/>
      <path class="cls-3" d="M332.65,305.28c-2.01,0-3.88-.3-5.64-.91-1.75-.6-3.3-1.48-4.64-2.63-1.34-1.15-2.38-2.56-3.13-4.23l7.08-3.26c.63,1,1.48,1.87,2.57,2.6,1.09.73,2.34,1.1,3.76,1.1s2.44-.2,3.2-.6,1.13-.97,1.13-1.72-.3-1.31-.91-1.66c-.61-.35-1.43-.66-2.48-.91l-2.88-.75c-3.01-.8-5.38-2.06-7.11-3.79-1.73-1.73-2.6-3.73-2.6-5.98,0-3.22,1.03-5.7,3.1-7.45s5-2.63,8.8-2.63c1.96,0,3.79.29,5.48.88,1.69.58,3.14,1.4,4.36,2.44,1.21,1.05,2.05,2.25,2.51,3.64l-6.83,3.13c-.29-.84-1-1.51-2.13-2.03-1.13-.53-2.26-.79-3.38-.79s-2,.24-2.6.72c-.61.48-.91,1.14-.91,1.97,0,.55.29.99.88,1.35.59.35,1.42.66,2.51.91l4.07,1c2.05.5,3.69,1.31,4.92,2.41,1.23,1.11,2.13,2.34,2.69,3.7.56,1.36.85,2.69.85,3.98,0,1.88-.55,3.54-1.66,4.98-1.11,1.44-2.61,2.55-4.51,3.35-1.9.8-4.06,1.19-6.48,1.19Z"/>
      <path class="cls-3" d="M364.29,305.28c-3.09,0-5.83-.7-8.21-2.1-2.38-1.4-4.25-3.33-5.61-5.8-1.36-2.46-2.04-5.3-2.04-8.52s.7-6.06,2.1-8.52c1.4-2.46,3.32-4.4,5.76-5.8,2.44-1.4,5.25-2.1,8.43-2.1,2.76,0,5.29.72,7.61,2.16,2.32,1.44,4.18,3.55,5.58,6.33,1.4,2.77,2.1,6.15,2.1,10.12h-23.75l.75-.75c0,1.55.39,2.89,1.16,4.04.77,1.15,1.77,2.03,3.01,2.63,1.23.61,2.56.91,3.98.91,1.71,0,3.11-.36,4.2-1.1,1.09-.73,1.92-1.68,2.51-2.85l7.39,2.89c-.88,1.75-2.02,3.27-3.41,4.54-1.4,1.27-3.06,2.25-4.98,2.92-1.92.67-4.11,1-6.58,1ZM357.46,285.67l-.75-.75h15.1l-.69.75c0-1.5-.36-2.7-1.07-3.6-.71-.9-1.58-1.56-2.6-1.97s-2.02-.63-2.98-.63-1.98.21-3.07.63c-1.09.42-2.02,1.08-2.79,1.97-.77.9-1.16,2.1-1.16,3.6Z"/>
    </g>
  </g>
</svg>