<?xml version="1.0" encoding="UTF-8"?>
<svg id="Layer_2" data-name="Layer 2" xmlns="http://www.w3.org/2000/svg" viewBox="0 0 356.37 271.2">
  <defs>
    <style>
      .cls-1 {
        fill: #4e50a2;
      }

      .cls-2 {
        fill: #fff;
      }

      .cls-3 {
        fill: #808285;
      }

      .cls-4 {
        fill: #292561;
      }

      .cls-5 {
        fill: #a7a9ac;
      }

      .cls-6 {
        fill: #262262;
      }

      .cls-7 {
        fill: #bcbec0;
      }

      .cls-8 {
        fill: #c2b59b;
      }
    </style>
  </defs>
  <g id="Layer_1-2" data-name="Layer 1">
    <polygon class="cls-2" points="48.36 1.06 48.36 110.42 138.16 110.42 138.16 21.95 116.82 1.06 48.36 1.06"/>
    <rect class="cls-8" x="59.86" y="24.61" width="21.34" height="21.34"/>
    <path class="cls-2" d="M68.36,34.33s-2.28-2.78-4.45-.72c-1.92,1.82.44,4.06.44,4.06l3.17,3s1.83,1.33,2.83,0,7.34-7.52,7.34-7.52c0,0,.83-2.65-.83-3.48-1.67-.83-3,0-3,0l-5.5,4.67Z"/>
    <rect class="cls-7" x="89.03" y="24.61" width="36.68" height="4.5" rx="2.25" ry="2.25"/>
    <rect class="cls-7" x="89.03" y="36.76" width="36.68" height="4.5" rx="2.25" ry="2.25"/>
    <rect class="cls-7" x="59.56" y="52.54" width="66.15" height="4.5" rx="2.25" ry="2.25"/>
    <rect class="cls-7" x="59.56" y="66.99" width="66.15" height="4.5" rx="2.25" ry="2.25"/>
    <rect class="cls-7" x="59.56" y="81.44" width="66.15" height="4.5" rx="2.25" ry="2.25"/>
    <rect class="cls-7" x="59.56" y="95.89" width="66.15" height="4.5" rx="2.25" ry="2.25"/>
    <polyline class="cls-7" points="116.82 1.06 116.82 21.95 138.16 21.95"/>
    <polygon class="cls-3" points="98.49 184.63 113.97 162.43 236.89 162.43 251.3 184.63 98.49 184.63"/>
    <rect class="cls-2" x="191.53" y="79.11" width="25.89" height="25.89" transform="translate(-18.64 114.57) rotate(-30)"/>
    <path class="cls-4" d="M165.53,2.05h27.34c4.27,0,7.73,3.47,7.73,7.73v78.83h-42.15V9.14c0-3.91,3.17-7.08,7.08-7.08Z" transform="translate(.18 91.36) rotate(-28.57)"/>
    <path class="cls-5" d="M169.01,9.2h20.57c3.11,0,5.63,2.52,5.63,5.63v67.55h-31.71V14.72c0-3.04,2.47-5.52,5.52-5.52Z" transform="translate(-.06 91.33) rotate(-28.57)"/>
    <polygon class="cls-6" points="104.31 175.49 118.66 153.29 232.59 153.29 245.95 175.49 104.31 175.49"/>
    <path class="cls-5" d="M215.76,120.62c-6.42,16.95-22.59,28.98-41.54,28.98-24.58,0-41.98-14.7-44.51-45.22-1.21-14.67,9.91-36.56,25.45-42.02l-10.81-10.36c-17.77,10.48-29.72,30-29.72,52.38,0,33.44,26.68,60.54,59.58,60.54,27.37,0,50.41-18.76,57.4-44.3h-15.86Z"/>
    <rect class="cls-2" x="192.8" y="119.37" width="52.11" height="9.2" rx="1.62" ry="1.62"/>
    <circle class="cls-4" cx="149.52" cy="52" r="20.04"/>
    <circle class="cls-2" cx="149.52" cy="52" r="15.25"/>
    <g>
      <path class="cls-1" d="M0,257.69v-31.85h7.9l.38,4.14c.97-1.62,2.23-2.84,3.76-3.67,1.53-.83,3.23-1.24,5.1-1.24,2.59,0,4.77.55,6.53,1.65,1.76,1.1,3.05,2.8,3.85,5.1.93-2.17,2.25-3.83,3.95-5,1.7-1.17,3.67-1.75,5.93-1.75,3.74,0,6.58,1.18,8.54,3.54,1.95,2.35,2.93,5.98,2.93,10.86v18.22h-8.41v-16.31c0-2.17-.24-3.84-.7-5.03-.47-1.19-1.1-2.05-1.91-2.58s-1.76-.8-2.87-.8c-2.04-.04-3.61.62-4.72,1.98-1.1,1.36-1.66,3.38-1.66,6.06v16.69h-8.41v-16.31c0-2.17-.22-3.84-.67-5.03-.45-1.19-1.08-2.05-1.91-2.58-.83-.53-1.79-.8-2.9-.8-2.04-.04-3.6.62-4.68,1.98-1.08,1.36-1.63,3.38-1.63,6.06v16.69H0Z"/>
      <path class="cls-1" d="M60.26,220.68c-1.27,0-2.4-.48-3.38-1.44-.98-.95-1.46-2.09-1.46-3.41s.49-2.45,1.46-3.41c.98-.95,2.1-1.43,3.38-1.43s2.45.48,3.41,1.43c.96.96,1.43,2.09,1.43,3.41s-.48,2.45-1.43,3.41c-.95.96-2.09,1.44-3.41,1.44ZM56.06,257.69v-31.85h8.41v31.85h-8.41Z"/>
      <path class="cls-1" d="M87.6,258.45c-3.31,0-6.27-.71-8.86-2.13-2.59-1.43-4.61-3.4-6.05-5.93-1.44-2.52-2.17-5.4-2.17-8.63s.72-6.16,2.17-8.66,3.44-4.47,5.99-5.89c2.55-1.42,5.48-2.13,8.79-2.13s6.09.78,8.73,2.35c2.63,1.57,4.54,3.85,5.73,6.82l-7.9,2.8c-.6-1.23-1.52-2.22-2.77-2.97-1.25-.74-2.64-1.11-4.17-1.11s-2.95.37-4.14,1.11c-1.19.75-2.13,1.77-2.8,3.09-.68,1.32-1.02,2.85-1.02,4.59s.34,3.26,1.02,4.56c.68,1.3,1.64,2.32,2.87,3.09,1.23.76,2.63,1.15,4.2,1.15s2.92-.4,4.17-1.21c1.25-.8,2.17-1.87,2.77-3.18l7.96,2.8c-1.23,3.01-3.15,5.35-5.77,7-2.61,1.66-5.53,2.48-8.76,2.48Z"/>
      <path class="cls-1" d="M107.03,257.69v-31.85h8.41v31.85h-8.41ZM112.95,240.94c0-3.44.67-6.28,2.01-8.53,1.34-2.25,3.06-3.93,5.16-5.03,2.1-1.1,4.3-1.66,6.59-1.66v8.16c-1.95,0-3.79.23-5.51.7-1.72.47-3.11,1.23-4.17,2.3-1.06,1.06-1.59,2.42-1.59,4.08h-2.49Z"/>
      <path class="cls-1" d="M146.14,258.45c-3.23,0-6.1-.71-8.63-2.13-2.53-1.43-4.5-3.39-5.92-5.89-1.43-2.5-2.14-5.39-2.14-8.66s.7-6.16,2.1-8.66c1.4-2.5,3.35-4.47,5.86-5.89,2.51-1.42,5.37-2.13,8.6-2.13s6.16.71,8.66,2.13c2.51,1.43,4.46,3.39,5.86,5.89,1.4,2.5,2.1,5.39,2.1,8.66s-.7,6.16-2.1,8.66c-1.4,2.51-3.34,4.47-5.83,5.89-2.49,1.42-5.34,2.13-8.57,2.13ZM146.14,250.68c1.57,0,2.95-.38,4.14-1.15,1.19-.76,2.11-1.81,2.77-3.15.66-1.34.99-2.88.99-4.62s-.34-3.28-1.02-4.62-1.62-2.39-2.83-3.15c-1.21-.77-2.6-1.15-4.17-1.15s-2.9.38-4.11,1.15c-1.21.76-2.16,1.81-2.84,3.15-.68,1.34-1.02,2.88-1.02,4.62s.34,3.28,1.02,4.62,1.64,2.39,2.87,3.15c1.23.77,2.63,1.15,4.2,1.15Z"/>
      <path class="cls-1" d="M167.99,242.34v-7.2h19.11v7.2h-19.11Z"/>
      <path class="cls-1" d="M206.09,258.45c-2.04,0-3.95-.31-5.73-.92-1.78-.61-3.36-1.5-4.72-2.68-1.36-1.17-2.42-2.6-3.19-4.3l7.2-3.31c.64,1.02,1.51,1.9,2.61,2.64,1.1.74,2.38,1.11,3.82,1.11s2.48-.2,3.25-.61,1.15-.99,1.15-1.75-.31-1.33-.92-1.69c-.62-.36-1.45-.67-2.52-.92l-2.93-.76c-3.06-.81-5.47-2.09-7.23-3.86-1.76-1.76-2.64-3.79-2.64-6.08,0-3.27,1.05-5.8,3.15-7.58,2.1-1.78,5.09-2.68,8.95-2.68,2,0,3.85.3,5.57.89,1.72.59,3.2,1.42,4.43,2.48,1.23,1.06,2.08,2.29,2.55,3.7l-6.94,3.18c-.3-.85-1.02-1.54-2.17-2.07-1.15-.53-2.29-.8-3.44-.8s-2.03.24-2.64.73c-.62.49-.92,1.16-.92,2.01,0,.55.3,1.01.89,1.37.59.36,1.44.67,2.55.92l4.14,1.02c2.08.51,3.75,1.33,5,2.45,1.25,1.13,2.17,2.38,2.74,3.76.57,1.38.86,2.73.86,4.05,0,1.91-.56,3.6-1.69,5.07-1.13,1.46-2.65,2.6-4.59,3.41s-4.13,1.21-6.59,1.21Z"/>
      <path class="cls-1" d="M221.13,232.97v-7.13h21.53v7.13h-21.53ZM236.99,258.45c-3.53,0-6.19-.87-7.99-2.61-1.8-1.74-2.71-4.23-2.71-7.46v-32.49h8.41v30.65c0,1.36.3,2.38.89,3.09.59.7,1.46,1.05,2.61,1.05.43,0,.89-.09,1.4-.29s1.04-.48,1.59-.86l2.93,6.31c-1.02.76-2.16,1.39-3.41,1.88s-2.5.73-3.73.73Z"/>
      <path class="cls-1" d="M248.9,242.15v-16.31h8.41v16.31h-8.41ZM257.31,242.15c0,2.12.24,3.79.73,5,.49,1.21,1.19,2.08,2.1,2.61.91.53,1.94.8,3.09.8,2.21.04,3.89-.63,5.03-2.01,1.15-1.38,1.72-3.39,1.72-6.02h2.87c0,3.4-.51,6.28-1.53,8.63-1.02,2.36-2.42,4.16-4.2,5.42-1.78,1.25-3.89,1.88-6.31,1.88-2.55,0-4.71-.51-6.5-1.52-1.79-1.02-3.13-2.6-4.05-4.75-.91-2.14-1.37-4.91-1.37-8.31v-1.72h8.41ZM270.5,257.69l-.51-5.86v-26h8.41v31.85h-7.9Z"/>
      <path class="cls-1" d="M298.34,258.45c-2.93,0-5.47-.68-7.61-2.04-2.15-1.36-3.81-3.29-5-5.8-1.19-2.5-1.78-5.46-1.78-8.86s.6-6.4,1.78-8.89c1.19-2.48,2.86-4.41,5-5.77,2.14-1.36,4.68-2.04,7.61-2.04,2.68,0,4.94.68,6.79,2.04s3.26,3.28,4.24,5.77c.98,2.48,1.46,5.44,1.46,8.89s-.49,6.35-1.46,8.86c-.98,2.5-2.39,4.44-4.24,5.8-1.85,1.36-4.11,2.04-6.79,2.04ZM300.5,250.75c1.44,0,2.73-.38,3.85-1.15,1.13-.76,2.01-1.82,2.64-3.18s.95-2.91.95-4.65-.32-3.29-.95-4.65-1.52-2.41-2.64-3.15c-1.13-.75-2.43-1.11-3.92-1.11s-2.86.37-4.01,1.11c-1.15.74-2.06,1.79-2.74,3.15-.68,1.36-1.02,2.91-1.02,4.65s.34,3.29,1.02,4.65c.68,1.36,1.6,2.42,2.77,3.18,1.17.77,2.52,1.15,4.05,1.15ZM308.34,257.69l-.45-5.93v-38.67h8.41v44.6h-7.96Z"/>
      <path class="cls-1" d="M334.78,257.69l-14.59-31.85h9.24l10.64,25.87,2.74,5.99h-8.03ZM329.93,271.2c-1.15,0-2.41-.22-3.79-.67-1.38-.45-2.6-.96-3.66-1.56l3.12-6.82c.72.38,1.39.69,2.01.92.62.23,1.16.35,1.63.35.89,0,1.68-.24,2.36-.73.68-.49,1.23-1.2,1.66-2.14l3.76-8.86,10.13-25.87h9.24l-14.46,34.59c-.89,2.13-1.83,4-2.8,5.64-.98,1.63-2.17,2.9-3.6,3.79s-3.28,1.34-5.58,1.34Z"/>
    </g>
  </g>
</svg>