<?xml version="1.0" encoding="UTF-8"?>
<svg id="Layer_2" data-name="Layer 2" xmlns="http://www.w3.org/2000/svg" viewBox="0 0 412.21 291.27">
  <defs>
    <style>
      .cls-1 {
        fill: #4e50a2;
      }
    </style>
  </defs>
  <g id="Layer_1-2" data-name="Layer 1">
    <path class="cls-1" d="M105.16,196.56v-62.95h65.8l-21.62,20.65s31.96,51.73,89.3,10.83c0,0,4.7,7.03,8.46,7.03,0,0-26.32-3.76-33.84,31.02,0,0-57.34,8.46-82.72-28.2l-25.38,21.62Z"/>
    <path class="cls-1" d="M284.87,40.44v62.95h-65.8l21.62-20.65s-19.35-36.89-74.68-21.31c0,0-.87-2.27-8.21-4.19,0,0,12.58-5.85,15.63-22.27,0,0,60.68-9.57,86.05,27.09l25.38-21.62Z"/>
    <circle class="cls-1" cx="272.01" cy="142.28" r="29.14"/>
    <path class="cls-1" d="M218.9,202.44s3.99-22.09,28.2-25.85h49.58s19.27,4.93,20.21,25.85h-97.99Z"/>
    <circle class="cls-1" cx="140.25" cy="29.14" r="29.14"/>
    <path class="cls-1" d="M91.25,90.62s3.99-22.09,28.2-25.85h49.58s19.27,4.93,20.21,25.85h-97.99Z"/>
    <g>
      <path class="cls-1" d="M0,290.43v-44.99h7.97l.52,5.91v39.08H0ZM18.19,278.35c-2.7,0-4.98-.69-6.85-2.06-1.86-1.37-3.29-3.32-4.27-5.85-.99-2.53-1.48-5.51-1.48-8.93s.49-6.46,1.48-8.96c.99-2.51,2.41-4.45,4.27-5.82,1.86-1.37,4.15-2.06,6.85-2.06,2.96,0,5.52.69,7.68,2.06,2.16,1.37,3.84,3.31,5.04,5.82,1.2,2.51,1.8,5.49,1.8,8.96s-.6,6.41-1.8,8.93c-1.2,2.53-2.88,4.48-5.04,5.85-2.17,1.37-4.73,2.06-7.68,2.06ZM16,270.57c1.54,0,2.9-.39,4.08-1.16,1.18-.77,2.11-1.84,2.8-3.21.69-1.37,1.03-2.93,1.03-4.69s-.33-3.32-1-4.69-1.58-2.43-2.76-3.18c-1.18-.75-2.54-1.12-4.08-1.12-1.46,0-2.76.38-3.92,1.16-1.16.77-2.06,1.83-2.7,3.18-.64,1.35-.96,2.9-.96,4.66s.32,3.32.96,4.69c.64,1.37,1.53,2.44,2.67,3.21,1.13.77,2.43,1.16,3.89,1.16Z"/>
      <path class="cls-1" d="M52.83,278.35c-3.17,0-5.98-.72-8.42-2.15-2.44-1.44-4.36-3.42-5.75-5.95-1.39-2.53-2.09-5.44-2.09-8.74s.72-6.21,2.15-8.74c1.43-2.53,3.4-4.51,5.91-5.95,2.51-1.43,5.39-2.15,8.64-2.15,2.83,0,5.43.74,7.81,2.21,2.38,1.48,4.28,3.65,5.72,6.5,1.44,2.85,2.15,6.31,2.15,10.38h-24.36l.77-.77c0,1.58.39,2.97,1.19,4.14.79,1.18,1.82,2.08,3.08,2.7,1.27.62,2.63.93,4.08.93,1.76,0,3.19-.37,4.31-1.12,1.11-.75,1.97-1.72,2.57-2.92l7.58,2.96c-.9,1.8-2.07,3.35-3.5,4.65-1.44,1.31-3.14,2.31-5.11,2.99-1.97.69-4.22,1.03-6.75,1.03ZM45.82,258.23l-.77-.77h15.49l-.71.77c0-1.54-.37-2.77-1.09-3.69-.73-.92-1.62-1.6-2.67-2.02-1.05-.43-2.07-.64-3.05-.64s-2.04.21-3.15.64c-1.12.43-2.07,1.1-2.86,2.02s-1.19,2.15-1.19,3.69Z"/>
      <path class="cls-1" d="M88.43,278.35c-3.17,0-5.98-.72-8.42-2.15-2.44-1.44-4.36-3.42-5.75-5.95-1.39-2.53-2.09-5.44-2.09-8.74s.72-6.21,2.15-8.74c1.43-2.53,3.4-4.51,5.91-5.95,2.51-1.43,5.39-2.15,8.64-2.15,2.83,0,5.43.74,7.81,2.21,2.38,1.48,4.28,3.65,5.72,6.5,1.44,2.85,2.15,6.31,2.15,10.38h-24.36l.77-.77c0,1.58.39,2.97,1.19,4.14.79,1.18,1.82,2.08,3.08,2.7,1.27.62,2.63.93,4.08.93,1.76,0,3.19-.37,4.31-1.12,1.11-.75,1.97-1.72,2.57-2.92l7.58,2.96c-.9,1.8-2.07,3.35-3.5,4.65-1.44,1.31-3.14,2.31-5.11,2.99-1.97.69-4.22,1.03-6.75,1.03ZM81.43,258.23l-.77-.77h15.49l-.71.77c0-1.54-.37-2.77-1.09-3.69-.73-.92-1.62-1.6-2.67-2.02-1.05-.43-2.07-.64-3.05-.64s-2.04.21-3.15.64c-1.12.43-2.07,1.1-2.86,2.02-.79.92-1.19,2.15-1.19,3.69Z"/>
      <path class="cls-1" d="M109.51,277.58v-32.13h8.48v32.13h-8.48ZM115.49,260.67c0-3.47.67-6.34,2.03-8.61,1.35-2.27,3.08-3.96,5.2-5.08,2.12-1.11,4.34-1.67,6.65-1.67v8.23c-1.97,0-3.82.24-5.56.71-1.74.48-3.14,1.24-4.21,2.32-1.07,1.07-1.61,2.44-1.61,4.11h-2.51Z"/>
      <path class="cls-1" d="M164.65,278.35c-3.34,0-6.32-.72-8.93-2.15-2.62-1.44-4.65-3.43-6.11-5.98-1.46-2.55-2.19-5.45-2.19-8.71s.73-6.21,2.19-8.74c1.46-2.53,3.47-4.51,6.04-5.95,2.57-1.43,5.53-2.15,8.87-2.15s6.15.79,8.81,2.37c2.66,1.58,4.58,3.88,5.78,6.88l-7.97,2.83c-.6-1.24-1.53-2.24-2.8-2.99-1.27-.75-2.67-1.12-4.21-1.12s-2.98.38-4.18,1.12c-1.2.75-2.14,1.79-2.83,3.12s-1.03,2.87-1.03,4.63.34,3.29,1.03,4.6,1.65,2.34,2.89,3.12c1.24.77,2.66,1.16,4.24,1.16s2.94-.41,4.21-1.22c1.26-.81,2.19-1.88,2.8-3.21l8.03,2.83c-1.24,3.04-3.18,5.4-5.82,7.07-2.64,1.67-5.58,2.51-8.84,2.51Z"/>
      <path class="cls-1" d="M199.36,278.35c-3.26,0-6.16-.72-8.71-2.15-2.55-1.44-4.54-3.42-5.98-5.95-1.44-2.53-2.15-5.44-2.15-8.74s.71-6.21,2.12-8.74c1.41-2.53,3.38-4.51,5.91-5.95,2.53-1.43,5.42-2.15,8.68-2.15s6.21.72,8.74,2.15c2.53,1.44,4.5,3.42,5.91,5.95,1.41,2.53,2.12,5.44,2.12,8.74s-.71,6.21-2.12,8.74c-1.41,2.53-3.37,4.51-5.88,5.95-2.51,1.43-5.39,2.15-8.65,2.15ZM199.36,270.51c1.58,0,2.98-.38,4.18-1.16,1.2-.77,2.13-1.83,2.8-3.18.66-1.35,1-2.9,1-4.66s-.35-3.31-1.03-4.66-1.64-2.41-2.86-3.18c-1.22-.77-2.63-1.16-4.21-1.16s-2.92.38-4.14,1.16c-1.22.77-2.18,1.83-2.86,3.18s-1.03,2.9-1.03,4.66.34,3.31,1.03,4.66,1.65,2.41,2.89,3.18c1.24.77,2.66,1.16,4.24,1.16Z"/>
      <path class="cls-1" d="M232.01,278.35c-3.85,0-6.84-.85-8.96-2.57-2.12-1.72-3.18-4.14-3.18-7.26,0-3.43,1.15-6.01,3.44-7.74,2.29-1.74,5.52-2.6,9.67-2.6h8.16v6.3h-5.21c-2.79,0-4.71.33-5.78,1-1.07.66-1.61,1.6-1.61,2.79,0,.95.43,1.68,1.29,2.22.86.54,2.06.81,3.6.81,1.41,0,2.67-.33,3.76-1,1.09-.66,1.96-1.52,2.6-2.57s.96-2.13.96-3.25h2.06c0,4.37-.83,7.78-2.47,10.22-1.65,2.44-4.42,3.66-8.32,3.66ZM241,277.58l-.26-6.49v-9.77c0-1.93-.2-3.58-.61-4.95s-1.05-2.43-1.93-3.18c-.88-.75-2.07-1.12-3.57-1.12-1.37,0-2.62.3-3.73.9s-2.06,1.52-2.83,2.76l-7.46-2.57c.6-1.38,1.48-2.71,2.64-4.02,1.16-1.31,2.67-2.38,4.53-3.22,1.86-.84,4.15-1.25,6.85-1.25,3.26,0,5.97.62,8.13,1.86,2.16,1.24,3.77,2.99,4.82,5.24,1.05,2.25,1.55,4.92,1.51,8l-.19,17.8h-7.91Z"/>
      <path class="cls-1" d="M271.34,278.35c-3.34,0-6.32-.72-8.93-2.15-2.62-1.44-4.65-3.43-6.11-5.98-1.46-2.55-2.19-5.45-2.19-8.71s.73-6.21,2.19-8.74c1.46-2.53,3.47-4.51,6.04-5.95,2.57-1.43,5.53-2.15,8.87-2.15s6.15.79,8.81,2.37c2.66,1.58,4.58,3.88,5.78,6.88l-7.97,2.83c-.6-1.24-1.53-2.24-2.8-2.99-1.27-.75-2.67-1.12-4.21-1.12s-2.98.38-4.18,1.12c-1.2.75-2.14,1.79-2.83,3.12s-1.03,2.87-1.03,4.63.34,3.29,1.03,4.6,1.65,2.34,2.89,3.12c1.24.77,2.66,1.16,4.24,1.16s2.94-.41,4.21-1.22c1.26-.81,2.19-1.88,2.8-3.21l8.03,2.83c-1.24,3.04-3.18,5.4-5.82,7.07-2.64,1.67-5.58,2.51-8.84,2.51Z"/>
      <path class="cls-1" d="M291,277.58v-44.99h8.48v44.99h-8.48ZM312.34,261.12c0-2.19-.26-3.88-.77-5.07-.52-1.2-1.22-2.07-2.12-2.6s-1.95-.81-3.15-.81c-2.18-.04-3.87.62-5.04,1.99-1.18,1.37-1.77,3.4-1.77,6.11h-2.83c0-3.43.5-6.33,1.51-8.71,1-2.38,2.42-4.2,4.24-5.47,1.82-1.26,3.95-1.89,6.39-1.89,2.57,0,4.74.51,6.52,1.54,1.78,1.03,3.14,2.63,4.08,4.79.94,2.17,1.41,4.96,1.41,8.38v1.74h-8.48ZM312.34,277.58v-16.45h8.48v16.45h-8.48Z"/>
      <path class="cls-1" d="M332.33,240.24c-1.28,0-2.42-.48-3.4-1.45-.99-.96-1.48-2.11-1.48-3.44s.49-2.47,1.48-3.44c.99-.96,2.12-1.44,3.4-1.44s2.48.48,3.44,1.44c.96.97,1.45,2.11,1.45,3.44s-.48,2.47-1.45,3.44c-.96.97-2.11,1.45-3.44,1.45ZM328.08,277.58v-32.13h8.48v32.13h-8.48Z"/>
      <path class="cls-1" d="M344.41,277.58v-32.13h7.97l.52,5.91v26.22h-8.48ZM365.68,261.12c0-2.19-.25-3.88-.74-5.07-.49-1.2-1.19-2.07-2.09-2.6s-1.95-.81-3.15-.81c-2.19-.04-3.87.62-5.04,1.99-1.18,1.37-1.77,3.4-1.77,6.11h-2.83c0-3.43.5-6.33,1.51-8.71,1.01-2.38,2.42-4.2,4.24-5.47,1.82-1.26,3.95-1.89,6.39-1.89s4.69.51,6.49,1.54c1.8,1.03,3.17,2.63,4.11,4.79.94,2.17,1.39,4.96,1.35,8.38v1.74h-8.49ZM365.68,277.58v-16.45h8.49v16.45h-8.49Z"/>
      <path class="cls-1" d="M393.7,276.68c-2.96,0-5.52-.64-7.68-1.93-2.17-1.28-3.85-3.08-5.05-5.4-1.2-2.31-1.8-5.05-1.8-8.23,0-3.34.6-6.24,1.8-8.71,1.2-2.46,2.88-4.37,5.05-5.72,2.16-1.35,4.72-2.02,7.68-2.02,2.57,0,4.8.67,6.68,2.02,1.89,1.35,3.34,3.26,4.37,5.75,1.03,2.49,1.54,5.44,1.54,8.87,0,3.09-.51,5.78-1.54,8.1-1.03,2.32-2.49,4.11-4.37,5.37-1.89,1.27-4.11,1.9-6.68,1.9ZM395.37,291.27c-2.44,0-4.61-.17-6.49-.51s-3.47-.79-4.75-1.35c-1.29-.56-2.34-1.11-3.15-1.67l3.34-6.81c.6.34,1.39.74,2.38,1.19.98.45,2.16.84,3.53,1.16,1.37.32,2.96.49,4.76.49s3.22-.33,4.53-1c1.3-.66,2.33-1.69,3.08-3.09s1.12-3.16,1.12-5.3v-28.92h8.48v28.66c0,3.6-.69,6.69-2.06,9.29-1.37,2.59-3.31,4.55-5.82,5.88-2.51,1.33-5.49,1.99-8.97,1.99ZM396.14,269.54c1.46,0,2.73-.38,3.83-1.12,1.09-.75,1.94-1.78,2.54-3.09.6-1.31.9-2.79.9-4.47s-.31-3.21-.93-4.5c-.62-1.29-1.48-2.29-2.57-3.02-1.09-.73-2.37-1.09-3.82-1.09s-2.83.36-3.99,1.09c-1.16.73-2.06,1.74-2.7,3.02s-.99,2.79-1.03,4.5c.04,1.67.38,3.16,1.03,4.47s1.55,2.34,2.73,3.09c1.18.75,2.52,1.12,4.02,1.12Z"/>
    </g>
  </g>
</svg>