<?xml version="1.0" encoding="UTF-8"?>
<svg id="Layer_2" xmlns="http://www.w3.org/2000/svg" viewBox="0 0 255.23 285.91">
  <defs>
    <style>
      .cls-1 {
        fill: #fff;
      }
    </style>
  </defs>
  <g id="Layer_1-2" data-name="Layer_1">
    <g>
      <path class="cls-1" d="M254.91,52.17C190.91,46.61,128.3,0,128.3,0,98.39,32.7,3.09,52.17,3.09,52.17c0,0-15.3,63.3,22.26,140.52,37.57,77.22,104.14,93.22,104.14,93.22,0,0,67.37-22.33,101.77-91.13,28.52-57.04,23.65-142.61,23.65-142.61ZM215.75,187.03c-29.25,58.5-86.54,77.49-86.54,77.49,0,0-56.61-13.61-88.56-79.27C8.71,119.59,21.72,65.76,21.72,65.76c0,0,81.04-16.56,106.48-44.37,0,0,53.24,39.63,107.66,44.37,0,0,4.14,72.76-20.11,121.27Z"/>
      <path class="cls-1" d="M171.96,125.52h-1.03c.34-20.95-3.97-38.45-20.23-44.26-7.3-2.61-10.63-4.49-36.17-2.43-30.26,2.43-30.26,35.13-30.26,35.13v11.57h-1.01c-4.9,0-8.87,3.97-8.87,8.87v64.7c0,4.9,3.97,8.87,8.87,8.87h88.7c4.9,0,8.87-3.97,8.87-8.87v-64.7c0-4.9-3.97-8.87-8.87-8.87ZM136.79,189.78h-18.09l4-20.91c-3.6-1.75-6.09-5.43-6.09-9.69,0-5.96,4.83-10.78,10.78-10.78s10.78,4.83,10.78,10.78c0,4.35-2.58,8.09-6.29,9.79l4.9,20.82ZM158.99,125.52h-64.03l.79-14c3.83-19.13,21.74-21.74,21.74-21.74l20.7-.17c18.09,4.17,20.87,21.91,20.87,21.91l-.07,14Z"/>
    </g>
  </g>
</svg>