<?xml version="1.0" encoding="UTF-8"?>
<svg id="Layer_2" data-name="Layer 2" xmlns="http://www.w3.org/2000/svg" viewBox="0 0 142.17 125.35">
  <defs>
    <style>
      .cls-1 {
        fill: #7b7fad;
      }

      .cls-2 {
        fill: #4e50a2;
      }

      .cls-3 {
        fill: #fff;
      }
    </style>
  </defs>
  <g id="Layer_1-2" data-name="Layer 1">
    <g>
      <path class="cls-2" d="M0,125.35v-19.88h3.52l.23,2.61v17.26H0ZM8.03,120.01c-1.19,0-2.2-.3-3.02-.91-.82-.61-1.45-1.46-1.89-2.58-.43-1.12-.65-2.43-.65-3.95s.22-2.85.65-3.96c.44-1.11,1.07-1.96,1.89-2.57.82-.61,1.83-.91,3.02-.91,1.31,0,2.44.3,3.39.91.95.61,1.7,1.46,2.23,2.57s.79,2.43.79,3.96-.27,2.83-.79,3.95c-.53,1.12-1.27,1.98-2.23,2.58-.96.61-2.09.91-3.39.91ZM7.07,116.58c.68,0,1.28-.17,1.8-.51.52-.34.93-.81,1.23-1.42.3-.61.46-1.3.46-2.07s-.15-1.47-.44-2.07-.7-1.07-1.22-1.4c-.52-.33-1.12-.5-1.8-.5-.64,0-1.22.17-1.73.51-.51.34-.91.81-1.19,1.4s-.43,1.28-.43,2.06.14,1.47.43,2.07c.28.61.68,1.08,1.18,1.42.5.34,1.07.51,1.72.51Z"/>
      <path class="cls-2" d="M16.92,119.67v-14.2h3.75v14.2h-3.75ZM19.56,112.2c0-1.53.3-2.8.89-3.81s1.36-1.75,2.3-2.24c.94-.49,1.92-.74,2.94-.74v3.63c-.87,0-1.69.1-2.46.31s-1.39.55-1.86,1.02c-.47.47-.71,1.08-.71,1.82h-1.11Z"/>
      <path class="cls-2" d="M34.36,120.01c-1.44,0-2.72-.32-3.85-.95-1.13-.63-2.01-1.51-2.64-2.63-.64-1.12-.95-2.4-.95-3.86s.31-2.74.94-3.86c.62-1.12,1.5-1.99,2.61-2.63,1.12-.63,2.4-.95,3.83-.95s2.75.32,3.86.95c1.12.64,1.99,1.51,2.61,2.63.62,1.12.94,2.41.94,3.86s-.31,2.75-.94,3.86c-.62,1.12-1.49,1.99-2.6,2.63-1.11.63-2.38.95-3.82.95ZM34.36,116.55c.7,0,1.31-.17,1.85-.51.53-.34.94-.81,1.23-1.4s.44-1.28.44-2.06-.15-1.46-.46-2.06-.72-1.06-1.26-1.4c-.54-.34-1.16-.51-1.86-.51s-1.29.17-1.83.51c-.54.34-.96.81-1.26,1.4s-.46,1.28-.46,2.06.15,1.46.46,2.06.73,1.07,1.28,1.4c.55.34,1.17.51,1.87.51Z"/>
      <path class="cls-2" d="M44.18,119.67v-14.2h3.52l.17,1.85c.43-.72.99-1.26,1.68-1.63.68-.37,1.44-.55,2.27-.55,1.16,0,2.13.24,2.91.74.78.49,1.36,1.25,1.72,2.27.42-.96,1-1.71,1.76-2.23.76-.52,1.64-.78,2.64-.78,1.66,0,2.93.52,3.8,1.58.87,1.05,1.31,2.66,1.31,4.84v8.12h-3.75v-7.27c0-.97-.11-1.71-.31-2.24s-.49-.91-.85-1.15c-.36-.24-.79-.35-1.28-.35-.91-.02-1.61.27-2.1.88-.49.61-.74,1.51-.74,2.7v7.44h-3.75v-7.27c0-.97-.1-1.71-.3-2.24s-.48-.91-.85-1.15c-.37-.24-.8-.35-1.29-.35-.91-.02-1.6.27-2.09.88-.48.61-.72,1.51-.72,2.7v7.44h-3.75Z"/>
      <path class="cls-2" d="M69.08,125.35v-19.88h3.52l.23,2.61v17.26h-3.75ZM77.12,120.01c-1.19,0-2.2-.3-3.02-.91-.82-.61-1.45-1.46-1.89-2.58-.44-1.12-.65-2.43-.65-3.95s.22-2.85.65-3.96c.43-1.11,1.07-1.96,1.89-2.57s1.83-.91,3.02-.91c1.31,0,2.44.3,3.39.91s1.7,1.46,2.23,2.57c.53,1.11.79,2.43.79,3.96s-.27,2.83-.79,3.95c-.53,1.12-1.27,1.98-2.23,2.58-.96.61-2.09.91-3.39.91ZM76.15,116.58c.68,0,1.28-.17,1.8-.51.52-.34.93-.81,1.24-1.42.3-.61.45-1.3.45-2.07s-.15-1.47-.44-2.07-.7-1.07-1.22-1.4c-.52-.33-1.12-.5-1.8-.5-.64,0-1.22.17-1.73.51-.51.34-.91.81-1.19,1.4-.28.6-.43,1.28-.43,2.06s.14,1.47.43,2.07c.28.61.68,1.08,1.18,1.42.5.34,1.07.51,1.72.51Z"/>
      <path class="cls-2" d="M84.78,108.66v-3.18h9.6v3.18h-9.6ZM91.85,120.01c-1.57,0-2.76-.39-3.56-1.16s-1.21-1.88-1.21-3.32v-14.48h3.75v13.66c0,.61.13,1.07.4,1.38.26.31.65.47,1.16.47.19,0,.4-.04.63-.13.23-.09.46-.21.71-.38l1.31,2.81c-.45.34-.96.62-1.52.84-.56.22-1.11.33-1.66.33Z"/>
      <path class="cls-2" d="M109.49,120.01c-.91,0-1.76-.14-2.56-.41-.79-.27-1.5-.67-2.1-1.19-.61-.52-1.08-1.16-1.42-1.92l3.21-1.48c.28.46.67.85,1.16,1.18s1.06.5,1.71.5,1.11-.09,1.45-.27c.34-.18.51-.44.51-.78s-.14-.59-.41-.75c-.27-.16-.65-.3-1.12-.41l-1.31-.34c-1.36-.36-2.44-.93-3.22-1.72s-1.18-1.69-1.18-2.71c0-1.46.47-2.58,1.4-3.38.94-.79,2.27-1.19,3.99-1.19.89,0,1.72.13,2.48.4s1.42.63,1.97,1.11c.55.47.93,1.02,1.13,1.65l-3.09,1.42c-.13-.38-.46-.69-.97-.92-.51-.24-1.02-.36-1.53-.36s-.91.11-1.18.33c-.27.22-.41.52-.41.89,0,.24.13.45.4.61.26.16.64.3,1.13.41l1.85.46c.93.23,1.67.59,2.23,1.09.56.5.97,1.06,1.22,1.68.25.61.38,1.22.38,1.8,0,.85-.25,1.6-.75,2.26-.5.65-1.18,1.16-2.04,1.52-.86.36-1.84.54-2.94.54Z"/>
      <path class="cls-2" d="M123.82,120.01c-1.4,0-2.64-.32-3.72-.95s-1.93-1.51-2.54-2.63c-.61-1.12-.92-2.4-.92-3.86s.32-2.74.95-3.86c.63-1.12,1.5-1.99,2.61-2.63,1.11-.63,2.38-.95,3.82-.95,1.25,0,2.4.33,3.45.98,1.05.65,1.89,1.61,2.53,2.87.64,1.26.95,2.79.95,4.58h-10.76l.34-.34c0,.7.18,1.31.53,1.83.35.52.8.92,1.36,1.19.56.27,1.16.41,1.8.41.78,0,1.41-.17,1.9-.5.49-.33.87-.76,1.14-1.29l3.35,1.31c-.4.79-.92,1.48-1.55,2.06-.64.58-1.39,1.02-2.26,1.32s-1.86.46-2.98.46ZM120.73,111.13l-.34-.34h6.84l-.31.34c0-.68-.16-1.23-.48-1.63s-.71-.7-1.18-.89-.91-.28-1.35-.28-.9.09-1.39.28c-.49.19-.92.49-1.26.89-.35.41-.53.95-.53,1.63Z"/>
      <path class="cls-2" d="M131.92,108.66v-3.18h9.6v3.18h-9.6ZM138.98,120.01c-1.57,0-2.76-.39-3.56-1.16s-1.21-1.88-1.21-3.32v-14.48h3.75v13.66c0,.61.13,1.07.4,1.38s.65.47,1.16.47c.19,0,.4-.04.62-.13.23-.09.46-.21.71-.38l1.31,2.81c-.46.34-.96.62-1.52.84-.56.22-1.11.33-1.66.33Z"/>
    </g>
    <rect class="cls-2" x="24.33" width="95.71" height="73.87" rx="4.06" ry="4.06"/>
    <rect class="cls-1" x="17.57" y="6.81" width="95.71" height="73.87" rx="4.06" ry="4.06"/>
    <rect class="cls-3" x="11.83" y="12.57" width="95.71" height="73.87" rx="4.06" ry="4.06"/>
    <rect class="cls-2" x="20.64" y="26.16" width="78.25" height="3.67" rx=".46" ry=".46"/>
    <rect class="cls-2" x="20.64" y="38.21" width="78.25" height="3.67" rx=".46" ry=".46"/>
    <rect class="cls-2" x="20.64" y="50.25" width="78.25" height="3.67" rx=".46" ry=".46"/>
    <rect class="cls-2" x="20.64" y="62.3" width="78.25" height="3.67" rx=".46" ry=".46"/>
    <rect class="cls-2" x="20.64" y="74.35" width="78.25" height="3.67" rx=".46" ry=".46"/>
  </g>
</svg>