<?xml version="1.0" encoding="UTF-8"?>
<svg id="Layer_2" data-name="Layer 2" xmlns="http://www.w3.org/2000/svg" viewBox="0 0 663.01 816">
  <defs>
    <style>
      .cls-1 {
        fill: #4e50a2;
      }

      .cls-2 {
        fill: #5aba4d;
      }

      .cls-3 {
        fill: #f7941d;
      }

      .cls-4 {
        fill: #a7a9ac;
      }

      .cls-5 {
        fill: #6d6e71;
      }

      .cls-6 {
        fill: #dc186a;
      }
    </style>
  </defs>
  <g id="Layer_1-2" data-name="Layer 1">
    <g>
      <path class="cls-1" d="M616.37,0H46.64C20.88,0,0,20.88,0,46.64v722.73c0,25.76,20.88,46.63,46.64,46.63h569.74c25.76,0,46.64-20.88,46.64-46.63V46.64c0-25.76-20.88-46.64-46.64-46.64ZM644.23,757.6c0,20.55-16.66,37.22-37.22,37.22H57.44c-20.55,0-37.22-16.66-37.22-37.22V53.91c0-20.55,16.66-37.22,37.22-37.22h549.57c20.55,0,37.22,16.66,37.22,37.22v703.69Z"/>
      <path class="cls-6" d="M207,366.72l129.8-15.24c-8.42-71.69-73.35-122.98-145.04-114.57l15.24,129.8Z"/>
      <path class="cls-1" d="M183.53,245.27c-70.62,9.39-120.88,73.77-112.54,144.78,8.42,71.69,73.35,122.98,145.04,114.56,71.69-8.42,122.98-73.35,114.57-145.04l-131.83,15.48-15.24-129.78Z"/>
      <rect class="cls-4" x="369.13" y="301.37" width="218.63" height="37.57" rx="18.78" ry="18.78"/>
      <rect class="cls-4" x="369.13" y="366.72" width="218.63" height="37.57" rx="18.78" ry="18.78"/>
      <rect class="cls-4" x="74.87" y="579.59" width="218.63" height="37.57" rx="18.78" ry="18.78"/>
      <rect class="cls-4" x="74.87" y="645.33" width="218.63" height="37.57" rx="18.78" ry="18.78"/>
      <rect class="cls-4" x="74.87" y="703.07" width="218.63" height="37.57" rx="18.78" ry="18.78"/>
      <path class="cls-5" d="M341.55,592.43h55.15c5.56,0,10.07,4.51,10.07,10.07v143.74c0,1.32-1.07,2.4-2.4,2.4h-70.47c-1.32,0-2.4-1.07-2.4-2.4v-143.76c0-5.55,4.5-10.05,10.05-10.05Z"/>
      <path class="cls-2" d="M427.86,547.95h55.15c5.56,0,10.07,4.51,10.07,10.07v188.22c0,1.32-1.07,2.4-2.4,2.4h-70.47c-1.32,0-2.4-1.07-2.4-2.4v-188.24c0-5.55,4.5-10.05,10.05-10.05Z"/>
      <path class="cls-3" d="M516.09,503.11h55.15c5.56,0,10.07,4.51,10.07,10.07v233.06c0,1.32-1.07,2.4-2.4,2.4h-70.47c-1.32,0-2.4-1.07-2.4-2.4v-233.08c0-5.55,4.5-10.05,10.05-10.05Z"/>
      <g>
        <path class="cls-1" d="M74.87,170.2v-64.2h11.37l.73,8.44v55.77h-12.11ZM100.82,152.95c-3.85,0-7.11-.98-9.77-2.93s-4.69-4.74-6.1-8.35c-1.41-3.61-2.11-7.86-2.11-12.75s.7-9.22,2.11-12.79c1.41-3.58,3.44-6.34,6.1-8.3,2.66-1.96,5.92-2.93,9.77-2.93,4.22,0,7.87.98,10.96,2.93,3.09,1.96,5.49,4.72,7.2,8.3,1.71,3.58,2.57,7.84,2.57,12.79s-.86,9.14-2.57,12.75c-1.71,3.61-4.11,6.39-7.2,8.35-3.09,1.96-6.74,2.93-10.96,2.93ZM97.71,141.86c2.2,0,4.14-.55,5.82-1.65,1.68-1.1,3.01-2.63,3.99-4.59.98-1.96,1.47-4.19,1.47-6.7s-.47-4.74-1.42-6.7c-.95-1.96-2.26-3.47-3.94-4.54-1.68-1.07-3.62-1.61-5.82-1.61-2.08,0-3.94.55-5.6,1.65-1.65,1.1-2.93,2.61-3.85,4.54-.92,1.93-1.38,4.14-1.38,6.65s.46,4.74,1.38,6.7c.92,1.96,2.19,3.49,3.81,4.59,1.62,1.1,3.47,1.65,5.55,1.65Z"/>
        <path class="cls-1" d="M129.53,151.85v-45.86h12.11v45.86h-12.11ZM138.06,127.73c0-4.95.96-9.05,2.89-12.29,1.93-3.24,4.4-5.66,7.43-7.25,3.03-1.59,6.19-2.38,9.49-2.38v11.74c-2.81,0-5.46.34-7.93,1.01-2.48.67-4.48,1.77-6.01,3.3-1.53,1.53-2.29,3.49-2.29,5.87h-3.58Z"/>
        <path class="cls-1" d="M185.85,152.95c-4.65,0-8.79-1.02-12.43-3.07-3.64-2.05-6.48-4.88-8.53-8.48-2.05-3.61-3.07-7.76-3.07-12.47s1.01-8.87,3.03-12.47c2.02-3.61,4.83-6.43,8.44-8.48,3.61-2.05,7.73-3.07,12.38-3.07s8.87,1.02,12.47,3.07c3.61,2.05,6.42,4.88,8.44,8.48,2.02,3.61,3.03,7.77,3.03,12.47s-1.01,8.87-3.03,12.47c-2.02,3.61-4.82,6.44-8.39,8.48-3.58,2.05-7.69,3.07-12.34,3.07ZM185.85,141.76c2.26,0,4.25-.55,5.96-1.65,1.71-1.1,3.04-2.61,3.99-4.54.95-1.93,1.42-4.14,1.42-6.65s-.49-4.72-1.47-6.65c-.98-1.93-2.34-3.44-4.08-4.54-1.74-1.1-3.75-1.65-6.01-1.65s-4.17.55-5.92,1.65c-1.74,1.1-3.1,2.61-4.08,4.54-.98,1.93-1.47,4.14-1.47,6.65s.49,4.72,1.47,6.65c.98,1.93,2.35,3.44,4.13,4.54,1.77,1.1,3.79,1.65,6.05,1.65Z"/>
        <path class="cls-1" d="M217.58,151.85v-45.86h11.37l.55,5.96c1.41-2.32,3.21-4.08,5.41-5.27s4.65-1.79,7.34-1.79c3.73,0,6.86.79,9.4,2.38,2.54,1.59,4.39,4.04,5.55,7.34,1.34-3.12,3.24-5.52,5.69-7.2,2.45-1.68,5.29-2.52,8.53-2.52,5.38,0,9.48,1.7,12.29,5.09,2.81,3.39,4.22,8.61,4.22,15.64v26.23h-12.11v-23.48c0-3.12-.34-5.53-1.01-7.25-.67-1.71-1.59-2.95-2.75-3.71-1.16-.76-2.54-1.15-4.13-1.15-2.93-.06-5.2.89-6.79,2.84-1.59,1.96-2.38,4.86-2.38,8.71v24.03h-12.11v-23.48c0-3.12-.32-5.53-.96-7.25-.64-1.71-1.56-2.95-2.75-3.71-1.19-.76-2.58-1.15-4.17-1.15-2.93-.06-5.18.89-6.74,2.84-1.56,1.96-2.34,4.86-2.34,8.71v24.03h-12.11Z"/>
        <path class="cls-1" d="M298.02,170.2v-64.2h11.37l.73,8.44v55.77h-12.11ZM323.98,152.95c-3.85,0-7.11-.98-9.77-2.93s-4.69-4.74-6.1-8.35c-1.41-3.61-2.11-7.86-2.11-12.75s.7-9.22,2.11-12.79c1.41-3.58,3.44-6.34,6.1-8.3,2.66-1.96,5.92-2.93,9.77-2.93,4.22,0,7.87.98,10.96,2.93,3.09,1.96,5.49,4.72,7.2,8.3,1.71,3.58,2.57,7.84,2.57,12.79s-.86,9.14-2.57,12.75c-1.71,3.61-4.11,6.39-7.2,8.35-3.09,1.96-6.74,2.93-10.96,2.93ZM320.86,141.86c2.2,0,4.14-.55,5.82-1.65,1.68-1.1,3.01-2.63,3.99-4.59.98-1.96,1.47-4.19,1.47-6.7s-.47-4.74-1.42-6.7c-.95-1.96-2.26-3.47-3.94-4.54-1.68-1.07-3.62-1.61-5.82-1.61-2.08,0-3.94.55-5.6,1.65-1.65,1.1-2.93,2.61-3.85,4.54-.92,1.93-1.38,4.14-1.38,6.65s.46,4.74,1.38,6.7c.92,1.96,2.19,3.49,3.81,4.59,1.62,1.1,3.47,1.65,5.55,1.65Z"/>
        <path class="cls-1" d="M348.74,116.27v-10.27h31v10.27h-31ZM371.58,152.95c-5.08,0-8.91-1.25-11.51-3.76-2.6-2.51-3.9-6.08-3.9-10.73v-46.78h12.11v44.12c0,1.96.43,3.44,1.28,4.45.86,1.01,2.11,1.51,3.76,1.51.61,0,1.28-.14,2.02-.41.73-.27,1.5-.69,2.29-1.24l4.22,9.08c-1.47,1.1-3.1,2-4.91,2.71-1.8.7-3.59,1.05-5.37,1.05Z"/>
        <path class="cls-1" d="M428.54,152.95c-2.93,0-5.69-.44-8.25-1.33s-4.83-2.17-6.79-3.85c-1.96-1.68-3.49-3.74-4.59-6.19l10.36-4.77c.92,1.47,2.17,2.74,3.76,3.81,1.59,1.07,3.42,1.6,5.5,1.6s3.58-.29,4.68-.87c1.1-.58,1.65-1.42,1.65-2.52s-.44-1.91-1.33-2.43c-.89-.52-2.1-.96-3.62-1.33l-4.22-1.1c-4.4-1.16-7.87-3.01-10.41-5.55-2.54-2.54-3.81-5.46-3.81-8.76,0-4.71,1.51-8.35,4.54-10.91,3.03-2.57,7.32-3.85,12.89-3.85,2.87,0,5.55.43,8.03,1.28,2.48.86,4.6,2.05,6.38,3.58,1.77,1.53,2.99,3.3,3.67,5.32l-10,4.59c-.43-1.22-1.47-2.22-3.12-2.98-1.65-.76-3.3-1.15-4.95-1.15s-2.92.35-3.81,1.05c-.89.7-1.33,1.67-1.33,2.89,0,.8.43,1.45,1.28,1.97.86.52,2.08.96,3.67,1.33l5.96,1.47c2.99.73,5.4,1.91,7.2,3.53,1.8,1.62,3.12,3.42,3.94,5.41.83,1.99,1.24,3.93,1.24,5.82,0,2.75-.81,5.18-2.43,7.29-1.62,2.11-3.82,3.75-6.6,4.91-2.78,1.16-5.95,1.74-9.49,1.74Z"/>
        <path class="cls-1" d="M474.85,152.95c-4.53,0-8.53-1.02-12.02-3.07-3.49-2.05-6.22-4.88-8.21-8.48-1.99-3.61-2.98-7.76-2.98-12.47s1.02-8.87,3.07-12.47c2.05-3.61,4.86-6.43,8.44-8.48,3.58-2.05,7.69-3.07,12.34-3.07,4.04,0,7.75,1.05,11.14,3.16,3.39,2.11,6.11,5.2,8.16,9.26,2.05,4.07,3.07,9,3.07,14.81h-34.76l1.1-1.1c0,2.26.56,4.24,1.7,5.92,1.13,1.68,2.6,2.97,4.4,3.85,1.8.89,3.74,1.33,5.82,1.33,2.51,0,4.56-.53,6.15-1.61,1.59-1.07,2.81-2.46,3.67-4.17l10.82,4.22c-1.28,2.57-2.95,4.79-5,6.65-2.05,1.87-4.48,3.29-7.29,4.27-2.81.98-6.02,1.47-9.63,1.47ZM464.86,124.25l-1.1-1.1h22.1l-1.01,1.1c0-2.2-.52-3.96-1.56-5.27-1.04-1.31-2.31-2.28-3.81-2.89-1.5-.61-2.95-.92-4.36-.92s-2.9.31-4.49.92c-1.59.61-2.95,1.57-4.08,2.89-1.13,1.32-1.7,3.07-1.7,5.27Z"/>
        <path class="cls-1" d="M500.99,116.27v-10.27h31v10.27h-31ZM523.83,152.95c-5.08,0-8.91-1.25-11.51-3.76-2.6-2.51-3.9-6.08-3.9-10.73v-46.78h12.11v44.12c0,1.96.43,3.44,1.28,4.45.86,1.01,2.11,1.51,3.76,1.51.61,0,1.28-.14,2.02-.41.73-.27,1.5-.69,2.29-1.24l4.22,9.08c-1.47,1.1-3.1,2-4.91,2.71-1.8.7-3.59,1.05-5.37,1.05Z"/>
        <path class="cls-1" d="M558.96,152.95c-2.93,0-5.69-.44-8.25-1.33s-4.83-2.17-6.79-3.85c-1.96-1.68-3.49-3.74-4.59-6.19l10.36-4.77c.92,1.47,2.17,2.74,3.76,3.81,1.59,1.07,3.42,1.6,5.5,1.6s3.58-.29,4.68-.87c1.1-.58,1.65-1.42,1.65-2.52s-.44-1.91-1.33-2.43c-.89-.52-2.1-.96-3.62-1.33l-4.22-1.1c-4.4-1.16-7.87-3.01-10.41-5.55-2.54-2.54-3.81-5.46-3.81-8.76,0-4.71,1.51-8.35,4.54-10.91,3.03-2.57,7.32-3.85,12.89-3.85,2.87,0,5.55.43,8.03,1.28,2.48.86,4.6,2.05,6.38,3.58,1.77,1.53,2.99,3.3,3.67,5.32l-10,4.59c-.43-1.22-1.47-2.22-3.12-2.98-1.65-.76-3.3-1.15-4.95-1.15s-2.92.35-3.81,1.05c-.89.7-1.33,1.67-1.33,2.89,0,.8.43,1.45,1.28,1.97.86.52,2.08.96,3.67,1.33l5.96,1.47c2.99.73,5.4,1.91,7.2,3.53,1.8,1.62,3.12,3.42,3.94,5.41.83,1.99,1.24,3.93,1.24,5.82,0,2.75-.81,5.18-2.43,7.29-1.62,2.11-3.82,3.75-6.6,4.91-2.78,1.16-5.95,1.74-9.49,1.74Z"/>
      </g>
    </g>
  </g>
</svg>