<?xml version="1.0" encoding="UTF-8"?>
<svg id="Layer_2" data-name="Layer 2" xmlns="http://www.w3.org/2000/svg" viewBox="0 0 190.81 151.74">
  <defs>
    <style>
      .cls-1 {
        fill: #fff;
      }
    </style>
  </defs>
  <g id="Layer_2-2" data-name="Layer 2">
    <path class="cls-1" d="M187.57,49.69C181.17,47.26,97.13.88,97.13.88c0,0-2.1-1.99-5.85,0C87.53,2.87,2.05,50.36,2.05,50.36c0,0-5.52,4.42,1.55,7.07,7.07,2.65,44.39,22.53,44.39,22.53,0,0-9.72,22.75,1.33,37.33,11.04,14.58,36.66,27.93,70.45,16.73l17.67,17.29s5.3,2.21,5.74-3.09,0-30.26,0-30.26c0,0,10.82-7.73,3.09-35.78l19.21-11.19v16.93s4.86,5.3,8.39-.22v-22.97l15.02-7.95s5.08-4.64-1.33-7.07ZM134.94,120.76v19.04l-12.44-11.95c-7.35,2.9-16.02,4.59-25.33,4.59-26.41,0-47.82-13.51-47.82-30.18s21.41-30.18,47.82-30.18,47.82,13.51,47.82,30.18c0,6.97-3.76,13.39-10.05,18.5Z"/>
  </g>
</svg>