<?xml version="1.0" encoding="UTF-8"?>
<svg id="Layer_2" xmlns="http://www.w3.org/2000/svg" viewBox="0 0 390.02 400.82">
  <defs>
    <style>
      .cls-1 {
        fill: #fff;
      }
    </style>
  </defs>
  <g id="Layer_1-2" data-name="Layer_1">
    <g>
      <path class="cls-1" d="M162.97,142.19h16.82c5.86-.19,4.91-6.42,4.91-6.42v-53.85s-2.75-.66-6.87-1.17c2.97-16.06,15.68-56.95,68.67-62.7h29.86s59.75,3.99,69.49,61.44c-.18,0-.35-.02-.51-.02-6.99-.38-6.24,7.56-6.24,7.56v45.73c0,11.53,10.2,9.83,10.2,9.83,20.98.57,23.43-12.09,23.43-12.09v-34.77c-1.21-5.96-4.13-9.69-7.7-12.03-1.05-14.43-9.73-68.89-81.11-81.5-21.16-3.74-35.53-1.51-35.53-1.51,0,0-79.38,3.28-87.62,81.52-6.68,4.37-11.21,14.47-11.21,14.47,0,0,.19,13.61.94,27.97.76,14.36,12.47,17.57,12.47,17.57Z"/>
      <path class="cls-1" d="M215.42,303.13c20.65-22.45,10.96-52.91,10.96-52.91l-32.88,33.26-28.72-28.34,29.86-27.59s6.72-6.24,2.27-8.31c-21.92-10.2-43.81,5.62-51.78,11.72-17.76,13.61-14.74,47.24-14.74,47.24,0,0-74.07,72.94-79.74,77.48-5.67,4.54-7.18,22.3,1.89,37.04,9.07,14.74,37.42,4.91,37.42,4.91l80.15-80.12c22.7,1.51,36.63-4.91,45.32-14.36ZM160.16,294.06l-79.15,82.58c-2.21,2.31-5.88,2.39-8.19.17h0c-2.31-2.21-2.39-5.88-.17-8.19l79.15-82.58c2.21-2.31,5.88-2.39,8.19-.17,2.31,2.21,2.39,5.88.17,8.19Z"/>
      <path class="cls-1" d="M373.39,215.89c-17.54-10.04-79.37-29.91-79.37-29.91l-20.79,20.79v74.07l-8.31,9.45-9.45-10.58v-73.7l-19.65-20.03c-10.58,8.31-77.1,26.83-77.1,26.83,60.85-12.09,44.97,17.01,44.97,17.01l-29.1,29.1,13.09,13.61,31.88-29.86s11.26-4.13,15.49,6.8c13.21,34.1-9.83,54.8-9.83,54.8-15.12,23.05-52.15,21.16-52.15,21.16l-9.45,9.83h226.38s.54-109.54-16.63-119.37Z"/>
      <path class="cls-1" d="M332.85,139.88l-48.07-.52c-1.3-3.22-4.46-5.5-8.15-5.5-2.38,0-4.53.95-6.11,2.48-.08.01-.1.04-.07.06-1.61,1.59-2.61,3.8-2.61,6.24,0,4.85,3.94,8.79,8.79,8.79,3.67,0,6.82-2.26,8.13-5.45l43.82.71,4.26-6.82Z"/>
      <path class="cls-1" d="M57.11,280.9h20.25l1.53-14.18c5.86-1.63,11.3-4.26,16.13-7.7l13.03,9.6,13.65-14.95-11.11-12.23c1.87-3.44,3.35-7.11,4.41-10.97l16.14-1.96v-20.25l-15.27-1.65c-1.06-5.37-2.94-10.44-5.52-15.08l11.3-13.1-13.86-14.76-13.31,10.34c-4.65-3.22-9.84-5.7-15.42-7.28l-1.92-15.87h-20.25l-1.6,14.83c-5.84,1.1-11.33,3.17-16.3,6.04l-14.44-10.63-13.65,14.95,10.81,11.9c-3.14,4.72-5.53,9.97-7,15.6l-14.71,1.78v20.25l14.08,1.52c1.21,5.94,3.44,11.52,6.49,16.53l-10.83,11.6,13.27,15.29,14.04-10.05c5.53,3.53,11.77,6.04,18.47,7.27l1.59,13.14ZM45.7,215.89c0-10.98,8.9-19.87,19.87-19.87s19.87,8.9,19.87,19.87-8.9,19.87-19.87,19.87-19.87-8.9-19.87-19.87Z"/>
      <path class="cls-1" d="M275.58,128.27c5.06,0,9.99,3.47,12.69,7.63h37.61c3.79-8.54,6-17.3,6-27.34,0-39.07-31.67-70.74-70.74-70.74s-70.74,31.67-70.74,70.74,31.67,70.74,70.74,70.74c23.19,0,44.81-12.49,57.76-29.79h-30.35c-.34.58-.7,1.1-.85,1.02-2.57,3.98-7.04,6.62-12.12,6.62-7.97,0-14.44-6.46-14.44-14.44s6.46-14.44,14.44-14.44Z"/>
    </g>
  </g>
</svg>