<?xml version="1.0" encoding="UTF-8"?>
<svg id="Layer_2" xmlns="http://www.w3.org/2000/svg" viewBox="0 0 203.48 284.13">
  <defs>
    <style>
      .cls-1 {
        fill: #fff;
      }
    </style>
  </defs>
  <g id="Layer_1-2" data-name="Layer_1">
    <g>
      <path class="cls-1" d="M88.89,72.32c4.33-2.89,2.89-13,2.89-13,0,0-19.5-44.77-22.39-52.72C66.51-1.34,56.76.1,56.76.1h-18.41l36.83,90.99s9.39-15.89,13.72-18.78Z"/>
      <path class="cls-1" d="M197.87,231.63s-29.45-34.83-34.2-41.16c-4.75-6.34-12.49-2.37-12.49-2.37l-15.43,5.04,57.52,71.55s7.02-9.3,10-17.97c1.53-4.44-5.39-15.08-5.39-15.08Z"/>
      <path class="cls-1" d="M101.89,189.3c-6.5-10.83-40.44-69.33-40.44-69.33,0,0-5.76-19.86,7.22-23.11,2.89-.72-38.99-93.88-38.99-93.88,0,0-22.39,10.01-28.89,42.56-6.5,32.55,26.03,175.07,133.6,231.86,33.45,17.66,54.88-5.06,54.88-5.06l-63.04-76.56s-17.84,4.35-24.34-6.49Z"/>
    </g>
  </g>
</svg>