<?xml version="1.0" encoding="UTF-8"?>
<svg id="Layer_2" data-name="Layer 2" xmlns="http://www.w3.org/2000/svg" viewBox="0 0 265.68 243.84">
  <defs>
    <style>
      .cls-1 {
        fill: #786b73;
      }

      .cls-2 {
        fill: #7b7fad;
      }

      .cls-3 {
        fill: #4e50a2;
      }

      .cls-4 {
        fill: #fff;
      }

      .cls-5 {
        fill: #5e4e58;
      }

      .cls-6 {
        fill: #939598;
      }

      .cls-7 {
        fill: #d1d3d4;
      }

      .cls-8 {
        fill: #58595b;
      }

      .cls-9 {
        fill: #bcbec0;
      }
    </style>
  </defs>
  <g id="Layer_1-2" data-name="Layer 1">
    <g>
      <path class="cls-3" d="M0,205.85v-7.24h21.84v7.24H0ZM16.09,231.7c-3.58,0-6.28-.88-8.11-2.65-1.83-1.77-2.74-4.29-2.74-7.56v-32.95h8.53v31.08c0,1.38.3,2.42.9,3.13.6.71,1.49,1.07,2.65,1.07.43,0,.9-.1,1.42-.29s1.05-.48,1.62-.87l2.97,6.4c-1.03.77-2.19,1.41-3.46,1.9-1.27.49-2.53.75-3.78.75Z"/>
      <path class="cls-3" d="M42.77,231.7c-3.19,0-6.01-.73-8.46-2.17-2.46-1.44-4.39-3.43-5.78-5.98-1.4-2.54-2.1-5.47-2.1-8.79s.72-6.24,2.17-8.79c1.44-2.54,3.42-4.53,5.94-5.98,2.52-1.44,5.42-2.16,8.69-2.16,2.84,0,5.46.74,7.85,2.23,2.39,1.48,4.31,3.66,5.75,6.53,1.44,2.87,2.17,6.34,2.17,10.43h-24.49l.78-.77c0,1.59.4,2.98,1.2,4.16.8,1.19,1.83,2.09,3.1,2.72,1.27.62,2.64.94,4.1.94,1.77,0,3.21-.38,4.33-1.13,1.12-.76,1.98-1.74,2.58-2.94l7.62,2.97c-.9,1.81-2.08,3.37-3.52,4.69-1.44,1.31-3.15,2.31-5.14,3-1.98.69-4.24,1.04-6.78,1.04ZM35.73,211.47l-.78-.78h15.57l-.71.78c0-1.55-.37-2.79-1.1-3.72-.73-.93-1.63-1.6-2.68-2.03-1.06-.43-2.08-.65-3.07-.65s-2.05.22-3.17.65c-1.12.43-2.08,1.11-2.88,2.03s-1.2,2.17-1.2,3.72Z"/>
      <path class="cls-3" d="M63.97,230.92v-32.31h8.01l.39,4.2c.99-1.64,2.26-2.88,3.81-3.72,1.55-.84,3.27-1.26,5.17-1.26,2.63,0,4.83.56,6.62,1.68,1.79,1.12,3.09,2.84,3.91,5.17.95-2.19,2.28-3.89,4-5.07,1.72-1.19,3.73-1.78,6.01-1.78,3.79,0,6.68,1.19,8.66,3.59,1.98,2.39,2.97,6.06,2.97,11.02v18.48h-8.53v-16.54c0-2.2-.24-3.9-.71-5.11-.47-1.2-1.12-2.08-1.94-2.62-.82-.54-1.79-.8-2.91-.8-2.07-.05-3.66.62-4.78,2-1.12,1.38-1.68,3.43-1.68,6.14v16.93h-8.53v-16.54c0-2.2-.23-3.9-.68-5.11s-1.1-2.08-1.94-2.62c-.84-.54-1.82-.8-2.94-.8-2.07-.05-3.65.62-4.75,2-1.1,1.38-1.65,3.43-1.65,6.14v16.93h-8.53Z"/>
      <path class="cls-3" d="M120.63,243.84v-45.23h8.01l.52,5.95v39.28h-8.53ZM138.91,231.7c-2.71,0-5.01-.69-6.88-2.07-1.87-1.38-3.3-3.33-4.3-5.88-.99-2.54-1.49-5.53-1.49-8.98s.49-6.49,1.49-9.01c.99-2.52,2.42-4.47,4.3-5.85,1.87-1.38,4.17-2.07,6.88-2.07,2.97,0,5.54.69,7.72,2.07,2.17,1.38,3.86,3.33,5.07,5.85,1.2,2.52,1.81,5.53,1.81,9.01s-.6,6.44-1.81,8.98c-1.21,2.54-2.9,4.5-5.07,5.88-2.18,1.38-4.75,2.07-7.72,2.07ZM136.72,223.88c1.55,0,2.92-.39,4.1-1.16,1.18-.78,2.12-1.85,2.81-3.23s1.03-2.95,1.03-4.72-.33-3.34-1-4.72c-.67-1.38-1.59-2.45-2.78-3.2s-2.55-1.13-4.1-1.13c-1.46,0-2.78.39-3.94,1.16-1.16.78-2.07,1.84-2.72,3.2-.64,1.36-.97,2.92-.97,4.69s.32,3.34.97,4.72c.65,1.38,1.54,2.46,2.68,3.23,1.14.77,2.45,1.16,3.91,1.16Z"/>
      <path class="cls-3" d="M159.14,230.92v-45.23h8.53v45.23h-8.53Z"/>
      <path class="cls-3" d="M185.5,231.7c-3.88,0-6.88-.86-9.01-2.59-2.13-1.72-3.2-4.15-3.2-7.3,0-3.45,1.15-6.04,3.46-7.79,2.3-1.75,5.54-2.62,9.72-2.62h8.21v6.33h-5.23c-2.8,0-4.74.34-5.82,1-1.08.67-1.61,1.6-1.61,2.81,0,.95.43,1.69,1.29,2.23.86.54,2.07.81,3.62.81,1.42,0,2.68-.33,3.78-1,1.1-.67,1.97-1.53,2.62-2.59.65-1.06.97-2.14.97-3.27h2.07c0,4.4-.83,7.82-2.49,10.27-1.66,2.46-4.45,3.69-8.37,3.69ZM194.54,230.92l-.26-6.53v-9.82c0-1.93-.2-3.6-.61-4.97-.41-1.38-1.06-2.45-1.94-3.2-.88-.75-2.08-1.13-3.59-1.13-1.38,0-2.63.3-3.75.9-1.12.6-2.07,1.53-2.84,2.78l-7.5-2.58c.6-1.38,1.49-2.72,2.65-4.04,1.16-1.31,2.68-2.39,4.55-3.23,1.87-.84,4.17-1.26,6.88-1.26,3.27,0,6,.63,8.17,1.87,2.17,1.25,3.79,3.01,4.85,5.27,1.05,2.26,1.56,4.94,1.52,8.04l-.19,17.9h-7.95Z"/>
      <path class="cls-3" d="M206.69,205.85v-7.24h21.84v7.24h-21.84ZM222.78,231.7c-3.58,0-6.28-.88-8.11-2.65-1.83-1.77-2.74-4.29-2.74-7.56v-32.95h8.53v31.08c0,1.38.3,2.42.9,3.13.6.71,1.49,1.07,2.65,1.07.43,0,.9-.1,1.42-.29s1.05-.48,1.62-.87l2.97,6.4c-1.03.77-2.19,1.41-3.46,1.9s-2.53.75-3.78.75Z"/>
      <path class="cls-3" d="M249.46,231.7c-3.19,0-6.01-.73-8.46-2.17-2.46-1.44-4.39-3.43-5.78-5.98-1.4-2.54-2.1-5.47-2.1-8.79s.72-6.24,2.17-8.79c1.44-2.54,3.42-4.53,5.94-5.98,2.52-1.44,5.42-2.16,8.69-2.16,2.84,0,5.46.74,7.85,2.23,2.39,1.48,4.31,3.66,5.75,6.53,1.44,2.87,2.17,6.34,2.17,10.43h-24.49l.78-.77c0,1.59.4,2.98,1.2,4.16.8,1.19,1.83,2.09,3.1,2.72,1.27.62,2.64.94,4.1.94,1.77,0,3.21-.38,4.33-1.13,1.12-.76,1.98-1.74,2.58-2.94l7.62,2.97c-.9,1.81-2.08,3.37-3.52,4.69-1.44,1.31-3.15,2.31-5.14,3-1.98.69-4.24,1.04-6.78,1.04ZM242.42,211.47l-.78-.78h15.57l-.71.78c0-1.55-.37-2.79-1.1-3.72-.73-.93-1.63-1.6-2.68-2.03-1.06-.43-2.08-.65-3.07-.65s-2.05.22-3.17.65c-1.12.43-2.08,1.11-2.88,2.03-.8.93-1.2,2.17-1.2,3.72Z"/>
    </g>
    <polygon class="cls-7" points="51.53 24.15 51.53 150.53 155.3 150.53 155.3 48.29 130.64 24.15 51.53 24.15"/>
    <rect class="cls-9" x="64.48" y="83.64" width="76.44" height="5.2" rx="1.95" ry="1.95"/>
    <rect class="cls-9" x="64.48" y="100.34" width="76.44" height="5.2" rx="1.95" ry="1.95"/>
    <rect class="cls-9" x="64.48" y="117.03" width="76.44" height="5.2" rx="1.95" ry="1.95"/>
    <rect class="cls-9" x="64.48" y="133.73" width="76.44" height="5.2" rx="1.95" ry="1.95"/>
    <polygon class="cls-4" points="80.4 0 80.4 126.38 184.18 126.38 184.18 24.15 159.52 0 80.4 0"/>
    <rect class="cls-3" x="93.7" y="27.21" width="24.66" height="24.66"/>
    <path class="cls-4" d="M103.51,38.45s-2.63-3.21-5.14-.83c-2.22,2.11.51,4.69.51,4.69l3.66,3.47s2.12,1.54,3.28,0,8.48-8.69,8.48-8.69c0,0,.96-3.06-.96-4.02-1.93-.96-3.47,0-3.47,0l-6.36,5.39Z"/>
    <rect class="cls-9" x="127.41" y="27.21" width="42.38" height="5.2" rx="1.95" ry="1.95"/>
    <rect class="cls-9" x="127.41" y="41.26" width="42.38" height="5.2" rx="1.95" ry="1.95"/>
    <rect class="cls-9" x="93.35" y="59.49" width="76.44" height="5.2" rx="1.95" ry="1.95"/>
    <rect class="cls-9" x="93.35" y="76.19" width="44.62" height="5.2" rx="1.95" ry="1.95"/>
    <rect class="cls-9" x="93.35" y="92.89" width="44.62" height="5.2" rx="1.95" ry="1.95"/>
    <rect class="cls-9" x="93.35" y="109.58" width="44.62" height="5.2" rx="1.95" ry="1.95"/>
    <polyline class="cls-9" points="159.52 0 159.52 24.15 184.18 24.15"/>
    <polygon class="cls-5" points="147.63 87.88 199.46 25.59 208.17 32.5 156.44 95.45 147.63 87.88"/>
    <polygon class="cls-1" points="165.8 103.55 156.44 95.45 208.17 32.5 228.24 50.88 210.12 73.15 205.62 69.34 220 51.16 213.52 45.07 165.8 103.55"/>
    <polygon class="cls-6" points="143.87 109.42 147.63 87.88 156.44 95.45 143.87 109.42"/>
    <polygon class="cls-8" points="165.8 103.55 143.87 109.42 156.44 95.45 165.8 103.55"/>
    <path class="cls-2" d="M199.46,25.59s7.13-12.44,18.85-4.9l-10.15,11.81-8.71-6.91Z"/>
    <path class="cls-3" d="M216.91,40.5s12.82-10.49,1.41-19.81l-10.15,11.81,8.74,8Z"/>
  </g>
</svg>