<?xml version="1.0" encoding="UTF-8"?>
<svg id="Layer_2" xmlns="http://www.w3.org/2000/svg" viewBox="0 0 266.96 241">
  <defs>
    <style>
      .cls-1 {
        fill: #fff;
      }
    </style>
  </defs>
  <g id="Layer_1-2" data-name="Layer_1">
    <g>
      <path class="cls-1" d="M13.22.04C5.92.04,0,5.96,0,13.26v14.26h27.13v-13.57C27.13,6.27,20.9.04,13.22.04Z"/>
      <path class="cls-1" d="M266.96,233.17v-19.3H66.09v10.96c0,10.96-4.96,16.17-4.96,16.17h198.26c8.09-1.57,7.56-7.83,7.56-7.83Z"/>
      <path class="cls-1" d="M257.57,27.52C251.83-2.22,220.53.04,220.53.04H33.22L27.13,0s6.09,3.17,6.09,10.56v216.35c0,7.64,6.19,13.83,13.83,13.83s13.83-6.19,13.83-13.83v-20.43h194.61l2.09-178.96ZM187.58,34.82c6.64,0,12.63,2.76,16.9,7.19l-.04,3.92c-.3.63-.77,1.28-1.51,1.89-3.13,2.57-6.23,0-6.23,0,.01.02.03.03.04.05-2.43-2.18-5.64-3.51-9.16-3.51-7.6,0-13.76,6.16-13.76,13.76s6.16,13.76,13.76,13.76c3.32,0,6.36-1.18,8.74-3.13-.11.09-.18.14-.18.14,0,0,4.57-3.42,7.05-1.07.48.45.8.99,1.02,1.57.93,2.43-.05,5.53-.05,5.53l.05-5.53-.05,5.54c-4.25,4.23-10.11,6.85-16.58,6.85-12.97,0-23.48-10.51-23.48-23.48s10.51-23.48,23.48-23.48ZM197.16,67.99c-.35.35-.64.6-.82.74.28-.24.55-.49.82-.74ZM127.04,66.13c0-2.54,2.06-4.6,4.6-4.6h6.88v-5.74c0-2.74,2.22-4.96,4.96-4.96s4.96,2.22,4.96,4.96v5.74h6.35c2.54,0,4.6,2.06,4.6,4.6h0c0,2.54-2.06,4.6-4.6,4.6h-6.35v5.74c0,2.74-2.22,4.96-4.96,4.96s-4.96-2.22-4.96-4.96v-5.74h-6.88c-2.54,0-4.6-2.06-4.6-4.6h0ZM86.17,40.91c0-3.27,2.65-5.91,5.91-5.91h28.87c3.27,0,5.91,2.65,5.91,5.91h0c0,3.27-2.65,5.91-5.91,5.91h-8.7v29.04c0,3.17-2.57,5.74-5.74,5.74s-5.74-2.57-5.74-5.74v-29.04h-8.7c-3.27,0-5.91-2.65-5.91-5.91h0ZM70.09,115.87h154.26c3.07,0,5.57,2.49,5.57,5.57s-2.49,5.57-5.57,5.57H70.09c-3.07,0-5.56-2.49-5.56-5.57s2.49-5.57,5.56-5.57ZM225.13,174.87H70.87c-3.07,0-5.57-2.49-5.57-5.57s2.49-5.57,5.57-5.57h154.26c3.07,0,5.57,2.49,5.57,5.57s-2.49,5.57-5.57,5.57ZM225.13,150.47H70.87c-3.07,0-5.57-2.49-5.57-5.57s2.49-5.57,5.57-5.57h154.26c3.07,0,5.57,2.49,5.57,5.57s-2.49,5.57-5.57,5.57Z"/>
    </g>
  </g>
</svg>