<?xml version="1.0" encoding="UTF-8"?>
<svg id="Layer_2" data-name="Layer 2" xmlns="http://www.w3.org/2000/svg" viewBox="0 0 346.26 287.59">
  <defs>
    <style>
      .cls-1 {
        fill: #fff;
      }
    </style>
  </defs>
  <g id="Layer_1-2" data-name="Layer 1">
    <g>
      <rect class="cls-1" x="32.28" y="27.74" width="30.61" height="30.61" rx="2.51" ry="2.51"/>
      <path class="cls-1" d="M329.99,0H16.26C7.28,0,0,7.28,0,16.26v53.56c0,8.98,7.28,16.26,16.26,16.26h313.73c8.98,0,16.26-7.28,16.26-16.26V16.26c0-8.98-7.28-16.26-16.26-16.26ZM76.04,63.37c0,4.49-3.64,8.13-8.13,8.13H27.26c-4.49,0-8.13-3.64-8.13-8.13V22.72c0-4.49,3.64-8.13,8.13-8.13h40.65c4.49,0,8.13,3.64,8.13,8.13v40.65ZM298.67,71.5H113.11c-4.09,0-7.41-3.32-7.41-7.41s3.32-7.41,7.41-7.41h185.56c4.09,0,7.41,3.32,7.41,7.41s-3.32,7.41-7.41,7.41ZM298.67,50.46H113.11c-4.09,0-7.41-3.32-7.41-7.41s3.32-7.41,7.41-7.41h185.56c4.09,0,7.41,3.32,7.41,7.41s-3.32,7.41-7.41,7.41ZM298.67,29.41H113.11c-4.09,0-7.41-3.32-7.41-7.41s3.32-7.41,7.41-7.41h185.56c4.09,0,7.41,3.32,7.41,7.41s-3.32,7.41-7.41,7.41Z"/>
    </g>
    <g>
      <rect class="cls-1" x="32.28" y="128.49" width="30.61" height="30.61" rx="2.51" ry="2.51"/>
      <path class="cls-1" d="M329.99,100.75H16.26c-8.98,0-16.26,7.28-16.26,16.26v53.56c0,8.98,7.28,16.26,16.26,16.26h313.73c8.98,0,16.26-7.28,16.26-16.26v-53.56c0-8.98-7.28-16.26-16.26-16.26ZM76.04,164.12c0,4.49-3.64,8.13-8.13,8.13H27.26c-4.49,0-8.13-3.64-8.13-8.13v-40.65c0-4.49,3.64-8.13,8.13-8.13h40.65c4.49,0,8.13,3.64,8.13,8.13v40.65ZM298.67,172.25H113.11c-4.09,0-7.41-3.32-7.41-7.41s3.32-7.41,7.41-7.41h185.56c4.09,0,7.41,3.32,7.41,7.41s-3.32,7.41-7.41,7.41ZM298.67,151.21H113.11c-4.09,0-7.41-3.32-7.41-7.41s3.32-7.41,7.41-7.41h185.56c4.09,0,7.41,3.32,7.41,7.41s-3.32,7.41-7.41,7.41ZM298.67,130.16H113.11c-4.09,0-7.41-3.32-7.41-7.41s3.32-7.41,7.41-7.41h185.56c4.09,0,7.41,3.32,7.41,7.41s-3.32,7.41-7.41,7.41Z"/>
    </g>
    <g>
      <rect class="cls-1" x="32.28" y="229.24" width="30.61" height="30.61" rx="2.51" ry="2.51"/>
      <path class="cls-1" d="M329.99,201.5H16.26c-8.98,0-16.26,7.28-16.26,16.26v53.56c0,8.98,7.28,16.26,16.26,16.26h313.73c8.98,0,16.26-7.28,16.26-16.26v-53.56c0-8.98-7.28-16.26-16.26-16.26ZM76.04,264.87c0,4.49-3.64,8.13-8.13,8.13H27.26c-4.49,0-8.13-3.64-8.13-8.13v-40.65c0-4.49,3.64-8.13,8.13-8.13h40.65c4.49,0,8.13,3.64,8.13,8.13v40.65ZM298.67,273H113.11c-4.09,0-7.41-3.32-7.41-7.41s3.32-7.41,7.41-7.41h185.56c4.09,0,7.41,3.32,7.41,7.41s-3.32,7.41-7.41,7.41ZM298.67,251.96H113.11c-4.09,0-7.41-3.32-7.41-7.41s3.32-7.41,7.41-7.41h185.56c4.09,0,7.41,3.32,7.41,7.41s-3.32,7.41-7.41,7.41ZM298.67,230.92H113.11c-4.09,0-7.41-3.32-7.41-7.41s3.32-7.41,7.41-7.41h185.56c4.09,0,7.41,3.32,7.41,7.41s-3.32,7.41-7.41,7.41Z"/>
    </g>
  </g>
</svg>