<?xml version="1.0" encoding="UTF-8"?>
<svg id="Layer_2" data-name="Layer 2" xmlns="http://www.w3.org/2000/svg" viewBox="0 0 156.72 205.18">
  <defs>
    <style>
      .cls-1 {
        fill: #4e50a2;
      }
    </style>
  </defs>
  <g id="Layer_1-2" data-name="Layer 1">
    <path class="cls-1" d="M145.06,62.55L37.5.45c-2.2-1.27-4.96.32-4.96,2.86v124.2c0,2.54,2.75,4.13,4.96,2.86l107.56-62.1c2.2-1.27,2.2-4.45,0-5.72Z"/>
    <g>
      <path class="cls-1" d="M12.8,204.43L0,173.22h8.49l11.86,31.21h-7.55ZM13.48,204.43l11.86-31.21h8.49l-12.8,31.21h-7.55Z"/>
      <path class="cls-1" d="M42.44,168.17c-1.25,0-2.35-.47-3.31-1.41-.96-.93-1.44-2.05-1.44-3.34s.48-2.4,1.44-3.34c.96-.93,2.06-1.4,3.31-1.4s2.4.47,3.34,1.4c.94.94,1.4,2.05,1.4,3.34s-.47,2.4-1.4,3.34c-.94.94-2.05,1.41-3.34,1.41ZM38.32,204.43v-31.21h8.24v31.21h-8.24Z"/>
      <path class="cls-1" d="M66.6,205.18c-2.87,0-5.36-.67-7.46-2s-3.73-3.23-4.9-5.68c-1.17-2.45-1.75-5.35-1.75-8.68s.58-6.27,1.75-8.71c1.16-2.43,2.8-4.32,4.9-5.65s4.59-2,7.46-2c2.62,0,4.84.67,6.65,2,1.81,1.33,3.19,3.22,4.15,5.65s1.44,5.33,1.44,8.71-.48,6.22-1.44,8.68-2.34,4.35-4.15,5.68c-1.81,1.33-4.03,2-6.65,2ZM68.72,197.63c1.41,0,2.67-.38,3.78-1.13,1.1-.75,1.97-1.79,2.59-3.12.62-1.33.94-2.85.94-4.56s-.31-3.23-.94-4.56c-.62-1.33-1.49-2.36-2.59-3.09-1.1-.73-2.38-1.09-3.84-1.09s-2.81.36-3.93,1.09c-1.12.73-2.02,1.76-2.68,3.09-.67,1.33-1,2.85-1,4.56s.33,3.23,1,4.56c.67,1.33,1.57,2.37,2.71,3.12,1.14.75,2.46,1.13,3.96,1.13ZM76.4,204.43l-.44-5.81v-37.89h8.24v43.69h-7.8Z"/>
      <path class="cls-1" d="M105.42,205.18c-3.08,0-5.8-.7-8.18-2.09-2.37-1.4-4.23-3.32-5.59-5.78-1.35-2.45-2.03-5.28-2.03-8.49s.7-6.03,2.09-8.49,3.31-4.38,5.74-5.78c2.43-1.39,5.23-2.09,8.39-2.09,2.75,0,5.27.72,7.58,2.15,2.31,1.44,4.16,3.54,5.56,6.31,1.39,2.76,2.09,6.13,2.09,10.08h-23.65l.75-.75c0,1.54.38,2.88,1.16,4.02.77,1.15,1.77,2.02,3,2.62,1.23.6,2.55.9,3.96.9,1.71,0,3.1-.36,4.18-1.09,1.08-.73,1.91-1.67,2.5-2.84l7.37,2.87c-.87,1.75-2.01,3.26-3.4,4.52-1.4,1.27-3.05,2.24-4.96,2.91-1.91.67-4.1,1-6.55,1ZM98.62,185.64l-.75-.75h15.04l-.69.75c0-1.5-.35-2.69-1.06-3.59-.71-.89-1.57-1.55-2.59-1.97s-2.01-.62-2.97-.62-1.98.21-3.06.62-2.01,1.07-2.78,1.97c-.77.89-1.16,2.09-1.16,3.59Z"/>
      <path class="cls-1" d="M140.56,205.18c-3.16,0-5.98-.7-8.46-2.09-2.48-1.4-4.41-3.32-5.8-5.78-1.39-2.45-2.09-5.28-2.09-8.49s.69-6.03,2.06-8.49c1.37-2.45,3.29-4.38,5.74-5.78,2.45-1.39,5.26-2.09,8.43-2.09s6.03.7,8.49,2.09c2.45,1.4,4.37,3.32,5.74,5.78,1.37,2.45,2.06,5.28,2.06,8.49s-.69,6.03-2.06,8.49c-1.37,2.46-3.28,4.38-5.71,5.78-2.43,1.39-5.23,2.09-8.39,2.09ZM140.56,197.56c1.54,0,2.89-.37,4.06-1.12,1.16-.75,2.07-1.78,2.71-3.09s.97-2.82.97-4.53-.33-3.22-1-4.53c-.67-1.31-1.59-2.34-2.78-3.09-1.19-.75-2.55-1.12-4.09-1.12s-2.84.37-4.03,1.12c-1.19.75-2.11,1.78-2.78,3.09-.67,1.31-1,2.82-1,4.53s.33,3.22,1,4.53c.66,1.31,1.6,2.34,2.81,3.09,1.21.75,2.58,1.12,4.12,1.12Z"/>
    </g>
  </g>
</svg>