<?xml version="1.0" encoding="UTF-8"?>
<svg id="Layer_2" data-name="Layer 2" xmlns="http://www.w3.org/2000/svg" viewBox="0 0 239.03 329.31">
  <defs>
    <style>
      .cls-1 {
        fill: #fff;
      }
    </style>
  </defs>
  <g id="Layer_1-2" data-name="Layer 1">
    <path class="cls-1" d="M84.72,165.35l-2.32-57.66,30.82-2.98c8.83-1.11,16.01-3.64,21.54-7.62,5.52-3.98,8.28-10.49,8.28-19.55,0-7.07-2.54-12.92-7.62-17.56-5.08-4.64-11.71-6.96-19.88-6.96-5.53,0-10.22,1.49-14.09,4.47-3.87,2.98-6.68,6.69-8.45,11.1l-53.35-14.25c4.42-16.79,13.25-30.04,26.51-39.76C79.42,4.86,95.87,0,115.54,0c16.34,0,30.81,3.31,43.41,9.94,12.59,6.62,22.48,15.74,29.66,27.34,7.17,11.6,10.77,25.02,10.77,40.26,0,11.05-2.38,20.93-7.12,29.66-4.76,8.73-11.49,15.91-20.22,21.54-8.73,5.63-18.94,9.44-30.65,11.43l-.99,25.18h-55.67ZM112.55,240.9c-9.28,0-17.29-3.37-24.02-10.11-6.74-6.74-10.11-14.75-10.11-24.02s3.37-17.28,10.11-24.02c6.74-6.74,14.75-10.11,24.02-10.11s17.28,3.37,24.02,10.11c6.74,6.74,10.11,14.75,10.11,24.02s-3.37,17.29-10.11,24.02c-6.74,6.74-14.75,10.11-24.02,10.11Z"/>
    <g>
      <path class="cls-1" d="M6.1,275.81l7.75-.74v11.58h7.96v6.92h-7.96v18.36c0,3.24.08,5.39.25,6.44.16,1.06.66,1.92,1.48,2.59.82.67,2.2,1.01,4.12,1.01,1.02,0,2.17-.1,3.46-.29v6.88c-2.31.5-4.45.75-6.43.75-3.22,0-5.67-.63-7.38-1.88s-2.79-2.95-3.26-5.09-.7-5.41-.7-9.81v-18.96H0v-6.92h5.65l.45-10.84Z"/>
      <path class="cls-1" d="M22.42,286.65h8.46l6.19,28.61,5.98-28.61h7.54l5.94,28.77,6.61-28.77h6.98l-10.32,41.63h-7.3l-6.31-28.85-6.02,28.85h-7.3l-10.44-41.63Z"/>
      <path class="cls-1" d="M105.27,308.74h-23.54c0,5.62.76,9.36,2.28,11.24,1.52,1.88,3.43,2.82,5.74,2.82,3.84,0,6.26-2.58,7.28-7.75l7.87,1.03c-2.06,8.82-7.2,13.23-15.42,13.23-5.03,0-9.04-1.8-12.04-5.4s-4.49-8.88-4.49-15.83,1.51-12.67,4.53-16.57,7.06-5.85,12.12-5.85c3.54,0,6.53.98,8.94,2.93s4.12,4.51,5.11,7.69,1.53,7.33,1.61,12.47ZM96.49,302.93c0-7.34-2.39-11.01-7.17-11.01-4.48,0-6.94,3.67-7.38,11.01h14.55Z"/>
      <path class="cls-1" d="M112.4,286.65h7.91v6.43c1.93-4.95,5.37-7.42,10.32-7.42,2.81,0,5.07.67,6.79,2.02s2.81,2.96,3.26,4.84c.45,1.88.68,4.86.68,8.92v26.83h-8.57v-26.35c0-3.62-.32-6.09-.95-7.39-.63-1.3-1.99-1.96-4.05-1.96s-3.83.83-5.03,2.49-1.8,4.96-1.8,9.9v23.3h-8.57v-41.63Z"/>
      <path class="cls-1" d="M151.23,286.65h7.91v6.43c1.93-4.95,5.37-7.42,10.32-7.42,2.81,0,5.07.67,6.79,2.02s2.81,2.96,3.26,4.84c.45,1.88.68,4.86.68,8.92v26.83h-8.57v-26.35c0-3.62-.32-6.09-.95-7.39-.63-1.3-1.99-1.96-4.05-1.96s-3.83.83-5.03,2.49-1.8,4.96-1.8,9.9v23.3h-8.57v-41.63Z"/>
      <path class="cls-1" d="M198.88,281.04h-9.03v-9.11h9.03v9.11ZM190.06,286.65h8.57v41.63h-8.57v-41.63Z"/>
      <path class="cls-1" d="M239.03,308.74h-23.54c0,5.62.76,9.36,2.28,11.24,1.52,1.88,3.43,2.82,5.74,2.82,3.84,0,6.26-2.58,7.28-7.75l7.87,1.03c-2.06,8.82-7.2,13.23-15.42,13.23-5.03,0-9.04-1.8-12.04-5.4s-4.49-8.88-4.49-15.83,1.51-12.67,4.53-16.57,7.06-5.85,12.12-5.85c3.54,0,6.53.98,8.94,2.93s4.12,4.51,5.11,7.69,1.53,7.33,1.61,12.47ZM230.25,302.93c0-7.34-2.39-11.01-7.17-11.01-4.48,0-6.94,3.67-7.38,11.01h14.55Z"/>
    </g>
  </g>
</svg>