<?xml version="1.0" encoding="UTF-8"?>
<svg id="Layer_2" xmlns="http://www.w3.org/2000/svg" viewBox="0 0 132.38 135.23">
  <defs>
    <style>
      .cls-1 {
        fill: #808285;
      }

      .cls-2 {
        fill: #dc176a;
      }

      .cls-3 {
        fill: #d1d3d4;
      }
    </style>
  </defs>
  <g id="Layer_1-2" data-name="Layer_1">
    <ellipse class="cls-3" cx="66.12" cy="68.08" rx="66.12" ry="67.15"/>
    <path class="cls-2" d="M132.35,68.47c.33-10.99-2.01-18.36-2.01-18.36l-.36-1.06c-2.73-11.05-7.61-17.81-8.29-18.81l.04-.03c-6.9-10.29-15.92-16.72-15.92-16.72l-.02.03c-10.1-7.22-19.4-10.02-19.4-10.02v.04C74.6-.38,65.69.01,65.69.01l-1.71,61.8.78.05c-2.55.64-4.44,2.92-4.44,5.65,0,3.22,2.64,5.83,5.89,5.83,1.42,0,2.71-.5,3.73-1.32l48.6,36.11c7-9.69,9.04-15.52,9.22-16.09l1.06-3.01c3.95-11.7,3.56-20.57,3.56-20.57h-.02Z"/>
    <circle class="cls-1" cx="66.12" cy="68.08" r="7.32"/>
  </g>
</svg>