<?xml version="1.0" encoding="UTF-8"?>
<svg id="Layer_2" xmlns="http://www.w3.org/2000/svg" viewBox="0 0 132.24 132.24">
  <defs>
    <style>
      .cls-1 {
        fill: #808285;
      }

      .cls-2 {
        fill: #dc176a;
      }

      .cls-3 {
        fill: #d1d3d4;
      }
    </style>
  </defs>
  <g id="Layer_1-2" data-name="Layer_1">
    <circle class="cls-3" cx="66.12" cy="66.12" r="66.12"/>
    <path class="cls-2" d="M130.61,50.36c-2.7-11.19-7.95-19.16-8.63-20.16l.04-.03c-6.88-10.27-15.89-16.7-15.89-16.7l-.02.03c-10.08-7.21-19.36-10-19.36-10v.04C74.99-.38,66.1.01,66.1.01l-1.68,60.89c-3.09.17-5.54,2.7-5.54,5.81s2.63,5.82,5.88,5.82,5.88-2.61,5.88-5.82c0-.72-.14-1.4-.38-2.04l60.36-14.31Z"/>
    <circle class="cls-1" cx="66.12" cy="66.12" r="7.32"/>
  </g>
</svg>