<?xml version="1.0" encoding="UTF-8"?>
<svg id="Layer_2" xmlns="http://www.w3.org/2000/svg" viewBox="0 0 132.24 135.08">
  <defs>
    <style>
      .cls-1 {
        fill: #808285;
      }

      .cls-2 {
        fill: #dc176a;
      }

      .cls-3 {
        fill: #d1d3d4;
      }
    </style>
  </defs>
  <g id="Layer_1-2" data-name="Layer_1">
    <ellipse class="cls-3" cx="66.12" cy="67.54" rx="66.12" ry="67.54"/>
    <path class="cls-2" d="M130.23,49.75l-.08.02c-2.67-10.97-7.72-18.76-8.38-19.75l.04-.03c-6.75-10.21-15.58-16.6-15.58-16.6l-.02.03c-9.88-7.17-18.98-9.95-18.98-9.95v.04C75.71-.38,66.99.01,66.99.01l-1.64,60.11c-2.83.37-5.02,2.79-5.02,5.74,0,3.2,2.58,5.79,5.76,5.79,2.97,0,5.41-2.26,5.72-5.16l60.28,3.9c.78-12.23-1.86-20.64-1.86-20.64Z"/>
    <circle class="cls-1" cx="66.12" cy="67.54" r="7.32"/>
  </g>
</svg>