<?xml version="1.0" encoding="UTF-8"?>
<svg id="Layer_2" xmlns="http://www.w3.org/2000/svg" viewBox="0 0 132.99 133.94">
  <defs>
    <style>
      .cls-1 {
        fill: #f7941d;
      }

      .cls-2 {
        fill: #808285;
      }

      .cls-3 {
        fill: #d1d3d4;
      }
    </style>
  </defs>
  <g id="Layer_1-2" data-name="Layer_1">
    <ellipse class="cls-3" cx="66.87" cy="66.54" rx="66.12" ry="66.53"/>
    <path class="cls-1" d="M132.95,68.36c.33-10.97-2.01-18.33-2.01-18.33l-.08.02c-2.72-11.03-7.87-18.86-8.55-19.86l.04-.03c-6.88-10.27-15.89-16.7-15.89-16.7l-.02.03c-10.08-7.21-19.36-10-19.36-10v.04C75.32-.38,66.43.01,66.43.01l-1.57,62.09.64-.34c-1.2.3-2.25.96-3.02,1.87L11.25,30.43c-6.45,10.26-8.69,19.48-8.76,19.78l-.14-.04C.91,55.57.32,60.32.11,63.92h0s0,.09,0,.14c-.16,2.75-.1,4.81-.04,5.91.24,7.63,1.55,12.92,1.92,14.29h0c3.08,11.94,8.62,20.22,8.62,20.22,7,10.15,16.03,16.42,16.03,16.42,9.95,6.93,19.05,9.59,19.35,9.68l-.04.14c11.75,3.74,20.59,3.19,20.59,3.19h0c9.58.06,16.04-1.83,16.63-2.01,11.54-2.93,19.45-8.42,19.45-8.42h0c9.44-6.28,15.61-14.31,16.52-15.54l.02.02c6.99-9.67,9.83-18.58,10-19.15l.26.09c3.94-11.68,3.55-20.53,3.55-20.53h-.02Z"/>
    <circle class="cls-2" cx="66.87" cy="66.54" r="7.32"/>
  </g>
</svg>