<?xml version="1.0" encoding="UTF-8"?>
<svg id="Layer_2" xmlns="http://www.w3.org/2000/svg" viewBox="0 0 133.02 133.94">
  <defs>
    <style>
      .cls-1 {
        fill: #808285;
      }

      .cls-2 {
        fill: #d1d3d4;
      }

      .cls-3 {
        fill: #8dc63f;
      }
    </style>
  </defs>
  <g id="Layer_1-2" data-name="Layer_1">
    <ellipse class="cls-2" cx="66.12" cy="67" rx="66.12" ry="66.53"/>
    <path class="cls-3" d="M132.99,68.36c.33-10.97-2.01-18.33-2.01-18.33l-.08.02c-2.72-11.03-7.87-18.86-8.55-19.86l.04-.03c-6.88-10.27-15.89-16.7-15.89-16.7l-.02.03c-10.08-7.21-19.36-10-19.36-10v.04C75.36-.38,66.46.01,66.46.01l-1.7,61.7.77.05c-2.35.59-4.13,2.58-4.39,5.02L.14,63.92c-.51,10.84,1.41,18.64,1.88,20.35h0c3.08,11.94,8.62,20.22,8.62,20.22,7,10.15,16.03,16.42,16.03,16.42,9.95,6.93,19.05,9.59,19.35,9.68l-.04.14c11.75,3.74,20.59,3.19,20.59,3.19h0c9.57.06,16.02-1.82,16.63-2.01,11.54-2.93,19.46-8.42,19.46-8.42h0c9.44-6.28,15.61-14.31,16.53-15.54l.02.02c6.99-9.67,9.83-18.59,10-19.15l.26.09c3.94-11.68,3.55-20.53,3.55-20.53h-.02Z"/>
    <circle class="cls-1" cx="66.12" cy="67" r="7.32"/>
  </g>
</svg>