<?xml version="1.0" encoding="UTF-8"?>
<svg id="Layer_2" xmlns="http://www.w3.org/2000/svg" viewBox="0 0 132.24 135.08">
  <defs>
    <style>
      .cls-1 {
        fill: #f7941d;
      }

      .cls-2 {
        fill: #808285;
      }

      .cls-3 {
        fill: #d1d3d4;
      }
    </style>
  </defs>
  <g id="Layer_1-2" data-name="Layer_1">
    <ellipse class="cls-3" cx="66.12" cy="67.54" rx="66.12" ry="67.54"/>
    <path class="cls-1" d="M130.23,50.03l-.08.02c-2.67-11.03-7.72-18.86-8.38-19.86l.04-.03c-6.75-10.27-15.58-16.7-15.58-16.7l-.02.03c-9.88-7.21-18.98-10-18.98-10v.04C75.71-.38,66.99.01,66.99.01l-1.64,60.45c-2.83.37-5.02,2.81-5.02,5.77,0,3.22,2.58,5.82,5.76,5.82,2.97,0,5.41-2.27,5.72-5.19l60.28,3.92c.78-12.3-1.86-20.75-1.86-20.75Z"/>
    <circle class="cls-2" cx="66.12" cy="67.54" r="7.32"/>
  </g>
</svg>