<?xml version="1.0" encoding="UTF-8"?>
<svg id="Layer_2" xmlns="http://www.w3.org/2000/svg" viewBox="0 0 134.02 134.48">
  <defs>
    <style>
      .cls-1 {
        fill: #808285;
      }

      .cls-2 {
        fill: #d1d3d4;
      }

      .cls-3 {
        fill: #8dc63f;
      }
    </style>
  </defs>
  <g id="Layer_1-2" data-name="Layer_1">
    <ellipse class="cls-2" cx="66.12" cy="67.25" rx="66.12" ry="67.15"/>
    <path class="cls-3" d="M133.99,68.36c.33-10.97-2.01-18.33-2.01-18.33l-.08.02c-2.72-11.03-7.87-18.86-8.55-19.86l.04-.03c-6.88-10.27-15.89-16.7-15.89-16.7l-.02.03c-10.08-7.21-19.36-10-19.36-10v.04C76.36-.38,67.47.01,67.47.01l-1.72,62.25.79-.49c-2.54.64-4.43,2.92-4.43,5.64,0,2.32,1.38,4.32,3.36,5.26l-18.74,58.82c11.75,3.74,19.38,2.93,19.38,2.93h1.45c9.58.07,16.04-2.33,16.64-2.51,11.54-2.93,19.45-8.42,19.45-8.42h0c9.44-6.28,15.61-14.31,16.53-15.54l.02.02c6.99-9.67,9.83-18.58,10-19.15l.26.09c3.94-11.68,3.55-20.53,3.55-20.53h-.02Z"/>
    <circle class="cls-1" cx="66.12" cy="67.25" r="7.32"/>
  </g>
</svg>