<?xml version="1.0" encoding="UTF-8"?>
<svg id="Layer_2" xmlns="http://www.w3.org/2000/svg" viewBox="0 0 132.24 134.3">
  <defs>
    <style>
      .cls-1 {
        fill: #808285;
      }

      .cls-2 {
        fill: #d1d3d4;
      }

      .cls-3 {
        fill: #8dc63f;
      }
    </style>
  </defs>
  <g id="Layer_1-2" data-name="Layer_1">
    <ellipse class="cls-2" cx="66.12" cy="67.15" rx="66.12" ry="67.15"/>
    <path class="cls-3" d="M132.2,67.89c.33-10.9-2.01-18.2-2.01-18.2l-.36-1.05c-2.72-10.95-7.6-17.66-8.28-18.65l.04-.03c-6.88-10.2-15.89-16.58-15.89-16.58l-.02.03c-10.08-7.16-19.36-9.93-19.36-9.93v.04C74.57-.38,65.68.01,65.68.01l-1.7,61.27.77.05c-2.54.64-4.43,2.9-4.43,5.6,0,3.19,2.63,5.78,5.88,5.78,1.41,0,2.71-.49,3.72-1.31l48.5,35.8c6.99-9.6,9.02-15.39,9.2-15.95l1.06-2.98c3.94-11.6,3.55-20.39,3.55-20.39h-.02Z"/>
    <circle class="cls-1" cx="66.12" cy="67.15" r="7.32"/>
  </g>
</svg>