<?xml version="1.0" encoding="UTF-8"?>
<svg id="Layer_2" xmlns="http://www.w3.org/2000/svg" viewBox="0 0 134.32 134.61">
  <defs>
    <style>
      .cls-1 {
        fill: #808285;
      }

      .cls-2 {
        fill: #dc176a;
      }

      .cls-3 {
        fill: #d1d3d4;
      }
    </style>
  </defs>
  <g id="Layer_1-2" data-name="Layer_1">
    <ellipse class="cls-3" cx="66.12" cy="67.15" rx="66.12" ry="67.15"/>
    <path class="cls-2" d="M134.28,68.71c.33-11.03-2.01-18.42-2.01-18.42l-.08.02c-2.72-11.09-7.87-18.96-8.55-19.96l.04-.03c-6.88-10.32-15.89-16.78-15.89-16.78l-.02.03c-10.08-7.24-19.36-10.05-19.36-10.05v.04C76.65-.38,67.76.01,67.76.01l-1.71,62.37.78-.3c-2.54.64-4.43,2.93-4.43,5.66,0,1.39.49,2.67,1.3,3.67l-35.74,50.1c9.95,6.96,17.34,9.72,19.35,9.73l-.04.14c11.75,3.76,20.59,3.21,20.59,3.21h0c9.57.06,16.02-1.83,16.63-2.02,11.54-2.94,19.46-8.46,19.46-8.46h0c9.44-6.31,15.61-14.38,16.53-15.62l.02.02c6.99-9.72,9.83-18.68,10-19.25l.26.09c3.94-11.74,3.55-20.64,3.55-20.64h-.02Z"/>
    <circle class="cls-1" cx="66.12" cy="67.15" r="7.32"/>
  </g>
</svg>