<?xml version="1.0" encoding="UTF-8"?>
<svg id="Layer_2" xmlns="http://www.w3.org/2000/svg" viewBox="0 0 133.9 134.3">
  <defs>
    <style>
      .cls-1 {
        fill: #808285;
      }

      .cls-2 {
        fill: #dc176a;
      }

      .cls-3 {
        fill: #d1d3d4;
      }
    </style>
  </defs>
  <g id="Layer_1-2" data-name="Layer_1">
    <ellipse class="cls-3" cx="66.12" cy="67.15" rx="66.12" ry="67.15"/>
    <path class="cls-2" d="M133.86,68.36c.33-10.97-2.01-18.33-2.01-18.33l-.08.02c-2.72-11.03-7.87-18.86-8.55-19.86l.04-.03c-6.88-10.27-15.89-16.7-15.89-16.7l-.02.03c-10.08-7.21-19.36-10-19.36-10v.04C76.23-.38,67.34.01,67.34.01l-1.71,62.01.78-.26c-2.54.64-4.43,2.92-4.43,5.64,0,3.22,2.63,5.82,5.88,5.82.44,0,.86-.05,1.27-.14l14.13,59.03c11.99-2.87,20.28-8.63,20.28-8.63h0c9.44-6.28,15.61-14.31,16.52-15.54l.02.02c6.99-9.67,9.83-18.59,10-19.15l.26.09c3.94-11.68,3.55-20.53,3.55-20.53h-.02Z"/>
    <circle class="cls-1" cx="66.12" cy="67.15" r="7.32"/>
  </g>
</svg>