<?xml version="1.0" encoding="UTF-8"?>
<svg id="Layer_2" xmlns="http://www.w3.org/2000/svg" viewBox="0 0 132.24 134.3">
  <defs>
    <style>
      .cls-1 {
        fill: #808285;
      }

      .cls-2 {
        fill: #d1d3d4;
      }

      .cls-3 {
        fill: #8dc63f;
      }
    </style>
  </defs>
  <g id="Layer_1-2" data-name="Layer_1">
    <ellipse class="cls-2" cx="66.12" cy="67.15" rx="66.12" ry="67.15"/>
    <path class="cls-3" d="M132.2,68.58c.33-10.97-2.01-18.33-2.01-18.33l-.08.02c-2.72-11.03-7.87-18.86-8.55-19.86l.04-.03c-6.88-10.27-15.89-16.7-15.89-16.7l-.02.03c-10.08-7.21-19.36-10-19.36-10v.04C74.57-.16,65.68.23,65.68.23l-1.7,61.7.77.05c-2.54.64-4.43,2.92-4.43,5.64,0,3.22,2.63,5.82,5.88,5.82,2.45,0,4.54-1.48,5.43-3.59l57.05,19.27c3.94-11.68,3.55-20.53,3.55-20.53h-.02Z"/>
    <circle class="cls-1" cx="66.12" cy="67.15" r="7.32"/>
  </g>
</svg>