<?xml version="1.0" encoding="UTF-8"?>
<svg id="Layer_2" xmlns="http://www.w3.org/2000/svg" viewBox="0 0 133.85 133.94">
  <defs>
    <style>
      .cls-1 {
        fill: #808285;
      }

      .cls-2 {
        fill: #d1d3d4;
      }

      .cls-3 {
        fill: #8dc63f;
      }
    </style>
  </defs>
  <g id="Layer_1-2" data-name="Layer_1">
    <ellipse class="cls-2" cx="66.12" cy="66.84" rx="66.12" ry="66.53"/>
    <path class="cls-3" d="M133.82,68.36c.33-10.97-2.01-18.33-2.01-18.33l-.08.02c-2.72-11.03-7.87-18.86-8.55-19.86l.04-.03c-6.88-10.27-15.89-16.7-15.89-16.7l-.02.03c-10.08-7.21-19.36-10-19.36-10v.04C76.19-.38,67.29.01,67.29.01l-1.7,61.7.77.05c-2.54.64-4.43,2.92-4.43,5.64,0,.62.1,1.21.28,1.77l-.1-.18L2.85,84.26c3.08,11.94,8.62,20.22,8.62,20.22,7,10.15,16.03,16.42,16.03,16.42,9.95,6.93,19.05,9.59,19.35,9.68l-.04.14c11.75,3.74,20.59,3.19,20.59,3.19h0c9.58.06,16.04-1.82,16.63-2.01,11.54-2.93,19.45-8.42,19.45-8.42h0c9.44-6.28,15.61-14.31,16.52-15.54l.02.02c6.99-9.67,9.83-18.58,10-19.15l.26.09c3.94-11.68,3.55-20.53,3.55-20.53h-.02Z"/>
    <circle class="cls-1" cx="66.12" cy="66.84" r="7.32"/>
  </g>
</svg>