<?xml version="1.0" encoding="UTF-8"?>
<svg id="Layer_2" xmlns="http://www.w3.org/2000/svg" viewBox="0 0 132.95 134.69">
  <defs>
    <style>
      .cls-1 {
        fill: #808285;
      }

      .cls-2 {
        fill: #d1d3d4;
      }

      .cls-3 {
        fill: #8dc63f;
      }
    </style>
  </defs>
  <g id="Layer_1-2" data-name="Layer_1">
    <ellipse class="cls-2" cx="66.12" cy="67.54" rx="66.12" ry="67.15"/>
    <path class="cls-3" d="M132.92,68.51c.33-11-2.02-18.37-2.02-18.37l-.08.02c-2.73-11.05-7.9-18.9-8.58-19.9l.04-.03c-6.9-10.29-15.94-16.73-15.94-16.73l-.02.03c-10.11-7.22-19.42-10.03-19.42-10.03v.04C75.11-.38,66.19.01,66.19.01l-1.73,62.48.79-.58c-2.55.64-4.44,2.92-4.44,5.65,0,3.22,2.64,5.83,5.89,5.83.97,0,1.87-.23,2.68-.64l33.06,51.04c9.49-6.3,15.7-14.37,16.62-15.6l.02.02c7.01-9.69,9.86-18.63,10.03-19.19l.26.09c3.96-11.7,3.56-20.58,3.56-20.58h-.02Z"/>
    <circle class="cls-1" cx="66.12" cy="67.54" r="7.32"/>
  </g>
</svg>